<svg width="1061" height="400" viewBox="0 0 1061 400" fill="none" xmlns="http://www.w3.org/2000/svg">
<g opacity="0.3">
<path d="M172.567 32.8143C172.567 28.5051 173.416 24.2381 175.065 20.2569C176.714 16.2757 179.131 12.6583 182.178 9.61121C185.225 6.56414 188.843 4.14707 192.824 2.49801C196.805 0.848946 201.072 0.000183105 205.381 0.000183105C209.69 0.000183105 213.957 0.848946 217.939 2.49801C221.92 4.14708 225.537 6.56414 228.584 9.61122C231.631 12.6583 234.048 16.2757 235.697 20.2569C237.347 24.2381 238.195 28.5051 238.195 32.8143L205.381 32.8143H172.567Z" fill="white"/>
<path d="M41.0036 32.8143C41.0036 28.5051 41.8524 24.2381 43.5014 20.2569C45.1505 16.2757 47.5676 12.6583 50.6146 9.61121C53.6617 6.56414 57.2791 4.14707 61.2603 2.49801C65.2415 0.848946 69.5085 0.000183105 73.8177 0.000183105C78.1269 0.000183105 82.3939 0.848946 86.3751 2.49801C90.3563 4.14708 93.9737 6.56414 97.0208 9.61122C100.068 12.6583 102.485 16.2757 104.134 20.2569C105.783 24.2381 106.632 28.5051 106.632 32.8143L73.8177 32.8143H41.0036Z" fill="white"/>
<path d="M140.599 32.8141C140.599 37.1233 141.448 41.3903 143.097 45.3715C144.746 49.3527 147.163 52.9701 150.21 56.0172C153.257 59.0643 156.875 61.4813 160.856 63.1304C164.837 64.7795 169.104 65.6282 173.413 65.6282C177.723 65.6282 181.99 64.7795 185.971 63.1304C189.952 61.4813 193.569 59.0643 196.617 56.0172C199.664 52.9701 202.081 49.3527 203.73 45.3715C205.379 41.3903 206.228 37.1233 206.228 32.8141L173.413 32.8141H140.599Z" fill="white"/>
<path d="M9.03485 32.8141C9.03485 37.1233 9.88361 41.3903 11.5327 45.3715C13.1817 49.3527 15.5988 52.9701 18.6459 56.0172C21.693 59.0643 25.3104 61.4813 29.2915 63.1304C33.2727 64.7795 37.5398 65.6282 41.849 65.6282C46.1582 65.6282 50.4252 64.7795 54.4064 63.1304C58.3876 61.4813 62.005 59.0643 65.0521 56.0172C68.0991 52.9701 70.5162 49.3527 72.1653 45.3715C73.8143 41.3903 74.6631 37.1233 74.6631 32.8141L41.849 32.8141H9.03485Z" fill="white"/>
<path d="M206.381 32.8141C206.381 37.1233 207.229 41.3903 208.878 45.3715C210.527 49.3527 212.945 52.9701 215.992 56.0172C219.039 59.0643 222.656 61.4813 226.637 63.1304C230.618 64.7795 234.885 65.6282 239.195 65.6282C243.504 65.6282 247.771 64.7795 251.752 63.1304C255.733 61.4813 259.351 59.0643 262.398 56.0172C265.445 52.9701 267.862 49.3527 269.511 45.3715C271.16 41.3903 272.009 37.1233 272.009 32.8141L239.195 32.8141H206.381Z" fill="#9183FF"/>
<path d="M74.8171 32.8141C74.8171 37.1233 75.6658 41.3903 77.3149 45.3715C78.964 49.3527 81.381 52.9701 84.4281 56.0172C87.4752 59.0643 91.0926 61.4813 95.0738 63.1304C99.055 64.7795 103.322 65.6282 107.631 65.6282C111.94 65.6282 116.207 64.7795 120.189 63.1304C124.17 61.4813 127.787 59.0643 130.834 56.0172C133.881 52.9701 136.298 49.3527 137.947 45.3715C139.597 41.3903 140.445 37.1233 140.445 32.8141L107.631 32.8141H74.8171Z" fill="#9183FF"/>
<path d="M106.786 32.8143C106.786 28.5051 107.635 24.2381 109.284 20.2569C110.933 16.2757 113.35 12.6583 116.397 9.61121C119.444 6.56414 123.061 4.14707 127.042 2.49801C131.024 0.848946 135.291 0.000183105 139.6 0.000183105C143.909 0.000183105 148.176 0.848946 152.157 2.49801C156.138 4.14708 159.756 6.56414 162.803 9.61122C165.85 12.6583 168.267 16.2757 169.916 20.2569C171.565 24.2381 172.414 28.5051 172.414 32.8143L139.6 32.8143H106.786Z" fill="#9183FF"/>
<path d="M172.567 96.2418C172.567 91.9326 173.416 87.6656 175.065 83.6844C176.714 79.7032 179.131 76.0858 182.178 73.0387C185.225 69.9916 188.843 67.5746 192.824 65.9255C196.805 64.2764 201.072 63.4277 205.381 63.4277C209.69 63.4277 213.957 64.2764 217.939 65.9255C221.92 67.5746 225.537 69.9916 228.584 73.0387C231.631 76.0858 234.048 79.7032 235.698 83.6844C237.347 87.6656 238.195 91.9326 238.195 96.2418L205.381 96.2418H172.567Z" fill="white"/>
<path d="M41.0037 96.2415C41.0037 91.9323 41.8524 87.6653 43.5015 83.6841C45.1506 79.7029 47.5676 76.0855 50.6147 73.0385C53.6618 69.9914 57.2792 67.5743 61.2604 65.9253C65.2416 64.2762 69.5086 63.4274 73.8178 63.4274C78.127 63.4274 82.394 64.2762 86.3752 65.9253C90.3564 67.5743 93.9738 69.9914 97.0209 73.0385C100.068 76.0855 102.485 79.7029 104.134 83.6841C105.783 87.6653 106.632 91.9323 106.632 96.2416L73.8178 96.2415H41.0037Z" fill="white"/>
<path d="M140.599 96.2419C140.599 100.551 141.448 104.818 143.097 108.799C144.746 112.78 147.163 116.398 150.21 119.445C153.257 122.492 156.875 124.909 160.856 126.558C164.837 128.207 169.104 129.056 173.413 129.056C177.723 129.056 181.99 128.207 185.971 126.558C189.952 124.909 193.569 122.492 196.617 119.445C199.664 116.398 202.081 112.78 203.73 108.799C205.379 104.818 206.228 100.551 206.228 96.2418L173.413 96.2419H140.599Z" fill="white"/>
<path d="M9.03485 96.2419C9.03485 100.551 9.88361 104.818 11.5327 108.799C13.1817 112.78 15.5988 116.398 18.6459 119.445C21.693 122.492 25.3104 124.909 29.2915 126.558C33.2727 128.207 37.5398 129.056 41.849 129.056C46.1582 129.056 50.4252 128.207 54.4064 126.558C58.3876 124.909 62.005 122.492 65.0521 119.445C68.0991 116.398 70.5162 112.78 72.1653 108.799C73.8143 104.818 74.6631 100.551 74.6631 96.2418L41.849 96.2419H9.03485Z" fill="white"/>
<path d="M206.381 96.2419C206.381 100.551 207.229 104.818 208.878 108.799C210.527 112.78 212.945 116.398 215.992 119.445C219.039 122.492 222.656 124.909 226.637 126.558C230.618 128.207 234.885 129.056 239.195 129.056C243.504 129.056 247.771 128.207 251.752 126.558C255.733 124.909 259.351 122.492 262.398 119.445C265.445 116.398 267.862 112.78 269.511 108.799C271.16 104.818 272.009 100.551 272.009 96.2418L239.195 96.2419H206.381Z" fill="#9183FF"/>
<path d="M74.8171 96.2419C74.8171 100.551 75.6658 104.818 77.3149 108.799C78.964 112.78 81.381 116.398 84.4281 119.445C87.4752 122.492 91.0926 124.909 95.0738 126.558C99.055 128.207 103.322 129.056 107.631 129.056C111.94 129.056 116.207 128.207 120.189 126.558C124.17 124.909 127.787 122.492 130.834 119.445C133.881 116.398 136.298 112.78 137.947 108.799C139.597 104.818 140.445 100.551 140.445 96.2418L107.631 96.2419H74.8171Z" fill="#9183FF"/>
<path d="M106.786 96.2418C106.786 91.9326 107.635 87.6656 109.284 83.6844C110.933 79.7032 113.35 76.0858 116.397 73.0387C119.444 69.9916 123.061 67.5746 127.043 65.9255C131.024 64.2764 135.291 63.4277 139.6 63.4277C143.909 63.4277 148.176 64.2764 152.157 65.9255C156.139 67.5746 159.756 69.9916 162.803 73.0387C165.85 76.0858 168.267 79.7032 169.916 83.6844C171.565 87.6656 172.414 91.9326 172.414 96.2418L139.6 96.2418H106.786Z" fill="#9183FF"/>
<path d="M172.567 162.181C172.567 157.872 173.416 153.605 175.065 149.624C176.714 145.642 179.131 142.025 182.178 138.978C185.225 135.931 188.843 133.514 192.824 131.865C196.805 130.216 201.072 129.367 205.381 129.367C209.69 129.367 213.957 130.216 217.939 131.865C221.92 133.514 225.537 135.931 228.584 138.978C231.631 142.025 234.048 145.642 235.698 149.624C237.347 153.605 238.195 157.872 238.195 162.181L205.381 162.181H172.567Z" fill="white"/>
<path d="M41.0037 162.181C41.0037 157.872 41.8524 153.605 43.5015 149.624C45.1506 145.642 47.5676 142.025 50.6147 138.978C53.6618 135.931 57.2792 133.514 61.2604 131.865C65.2416 130.216 69.5086 129.367 73.8178 129.367C78.127 129.367 82.394 130.216 86.3752 131.865C90.3564 133.514 93.9738 135.931 97.0209 138.978C100.068 142.025 102.485 145.642 104.134 149.624C105.783 153.605 106.632 157.872 106.632 162.181L73.8178 162.181H41.0037Z" fill="white"/>
<path d="M140.599 162.181C140.599 166.49 141.448 170.757 143.097 174.738C144.746 178.719 147.163 182.337 150.21 185.384C153.257 188.431 156.875 190.848 160.856 192.497C164.837 194.146 169.104 194.995 173.413 194.995C177.723 194.995 181.99 194.146 185.971 192.497C189.952 190.848 193.569 188.431 196.617 185.384C199.664 182.337 202.081 178.719 203.73 174.738C205.379 170.757 206.228 166.49 206.228 162.181L173.413 162.181H140.599Z" fill="white"/>
<path d="M9.03491 162.181C9.03491 166.49 9.88367 170.757 11.5327 174.738C13.1818 178.72 15.5989 182.337 18.6459 185.384C21.693 188.431 25.3104 190.848 29.2916 192.497C33.2728 194.146 37.5398 194.995 41.849 194.995C46.1582 194.995 50.4253 194.146 54.4065 192.497C58.3876 190.848 62.005 188.431 65.0521 185.384C68.0992 182.337 70.5163 178.72 72.1653 174.738C73.8144 170.757 74.6631 166.49 74.6631 162.181L41.849 162.181H9.03491Z" fill="white"/>
<path d="M206.381 162.181C206.381 166.49 207.229 170.757 208.878 174.738C210.528 178.72 212.945 182.337 215.992 185.384C219.039 188.431 222.656 190.848 226.637 192.497C230.619 194.146 234.886 194.995 239.195 194.995C243.504 194.995 247.771 194.146 251.752 192.497C255.733 190.848 259.351 188.431 262.398 185.384C265.445 182.337 267.862 178.72 269.511 174.738C271.16 170.757 272.009 166.49 272.009 162.181L239.195 162.181H206.381Z" fill="#9183FF"/>
<path d="M74.8171 162.181C74.8171 166.49 75.6659 170.757 77.315 174.738C78.964 178.719 81.3811 182.337 84.4282 185.384C87.4752 188.431 91.0926 190.848 95.0738 192.497C99.055 194.146 103.322 194.995 107.631 194.995C111.94 194.995 116.207 194.146 120.189 192.497C124.17 190.848 127.787 188.431 130.834 185.384C133.881 182.337 136.298 178.719 137.948 174.738C139.597 170.757 140.445 166.49 140.445 162.181L107.631 162.181H74.8171Z" fill="#9183FF"/>
<path d="M106.786 162.181C106.786 157.872 107.635 153.605 109.284 149.624C110.933 145.642 113.35 142.025 116.397 138.978C119.444 135.931 123.061 133.514 127.043 131.865C131.024 130.216 135.291 129.367 139.6 129.367C143.909 129.367 148.176 130.216 152.157 131.865C156.139 133.514 159.756 135.931 162.803 138.978C165.85 142.025 168.267 145.642 169.916 149.624C171.565 153.605 172.414 157.872 172.414 162.181L139.6 162.181H106.786Z" fill="#9183FF"/>
<path d="M172.567 228.121C172.567 223.811 173.416 219.544 175.065 215.563C176.714 211.582 179.131 207.965 182.178 204.918C185.225 201.871 188.843 199.453 192.824 197.804C196.805 196.155 201.072 195.307 205.381 195.307C209.69 195.307 213.957 196.155 217.939 197.804C221.92 199.453 225.537 201.871 228.584 204.918C231.631 207.965 234.048 211.582 235.698 215.563C237.347 219.544 238.195 223.811 238.195 228.121L205.381 228.121H172.567Z" fill="white"/>
<path d="M41.0037 228.121C41.0037 223.811 41.8525 219.544 43.5015 215.563C45.1506 211.582 47.5677 207.965 50.6148 204.918C53.6618 201.871 57.2792 199.453 61.2604 197.804C65.2416 196.155 69.5086 195.307 73.8178 195.307C78.1271 195.307 82.3941 196.155 86.3753 197.804C90.3565 199.453 93.9739 201.871 97.0209 204.918C100.068 207.965 102.485 211.582 104.134 215.563C105.783 219.544 106.632 223.811 106.632 228.121L73.8178 228.121H41.0037Z" fill="white"/>
<path d="M140.599 228.121C140.599 232.43 141.448 236.697 143.097 240.678C144.746 244.66 147.163 248.277 150.21 251.324C153.258 254.371 156.875 256.788 160.856 258.437C164.837 260.086 169.104 260.935 173.414 260.935C177.723 260.935 181.99 260.086 185.971 258.437C189.952 256.788 193.57 254.371 196.617 251.324C199.664 248.277 202.081 244.66 203.73 240.678C205.379 236.697 206.228 232.43 206.228 228.121L173.414 228.121H140.599Z" fill="white"/>
<path d="M9.03497 228.121C9.03497 232.43 9.88374 236.697 11.5328 240.678C13.1819 244.66 15.5989 248.277 18.646 251.324C21.6931 254.371 25.3105 256.788 29.2917 258.437C33.2729 260.086 37.5399 260.935 41.8491 260.935C46.1583 260.935 50.4253 260.086 54.4065 258.437C58.3877 256.788 62.0051 254.371 65.0522 251.324C68.0992 248.277 70.5163 244.66 72.1654 240.678C73.8144 236.697 74.6632 232.43 74.6632 228.121L41.8491 228.121H9.03497Z" fill="white"/>
<path d="M206.381 228.121C206.381 232.43 207.229 236.697 208.879 240.678C210.528 244.66 212.945 248.277 215.992 251.324C219.039 254.371 222.656 256.788 226.637 258.437C230.619 260.086 234.886 260.935 239.195 260.935C243.504 260.935 247.771 260.086 251.752 258.437C255.733 256.788 259.351 254.371 262.398 251.324C265.445 248.277 267.862 244.66 269.511 240.678C271.16 236.697 272.009 232.43 272.009 228.121L239.195 228.121H206.381Z" fill="#9183FF"/>
<path d="M74.8172 228.121C74.8172 232.43 75.666 236.697 77.315 240.678C78.9641 244.66 81.3812 248.277 84.4282 251.324C87.4753 254.371 91.0927 256.788 95.0739 258.437C99.0551 260.086 103.322 260.935 107.631 260.935C111.941 260.935 116.208 260.086 120.189 258.437C124.17 256.788 127.787 254.371 130.834 251.324C133.881 248.277 136.299 244.66 137.948 240.678C139.597 236.697 140.445 232.43 140.445 228.121L107.631 228.121H74.8172Z" fill="#9183FF"/>
<path d="M106.786 228.121C106.786 223.811 107.635 219.544 109.284 215.563C110.933 211.582 113.35 207.965 116.397 204.918C119.444 201.871 123.061 199.453 127.043 197.804C131.024 196.155 135.291 195.307 139.6 195.307C143.909 195.307 148.176 196.155 152.157 197.804C156.139 199.453 159.756 201.871 162.803 204.918C165.85 207.965 168.267 211.582 169.916 215.563C171.565 219.544 172.414 223.811 172.414 228.121L139.6 228.121H106.786Z" fill="#9183FF"/>
<path d="M172.567 294.06C172.567 289.751 173.416 285.484 175.065 281.503C176.714 277.522 179.131 273.904 182.178 270.857C185.225 267.81 188.843 265.393 192.824 263.744C196.805 262.095 201.072 261.246 205.381 261.246C209.69 261.246 213.957 262.095 217.939 263.744C221.92 265.393 225.537 267.81 228.584 270.857C231.631 273.904 234.048 277.522 235.698 281.503C237.347 285.484 238.195 289.751 238.195 294.06L205.381 294.06H172.567Z" fill="white"/>
<path d="M41.0037 294.06C41.0037 289.751 41.8524 285.484 43.5015 281.503C45.1506 277.522 47.5676 273.904 50.6147 270.857C53.6618 267.81 57.2792 265.393 61.2604 263.744C65.2416 262.095 69.5086 261.246 73.8178 261.246C78.127 261.246 82.394 262.095 86.3752 263.744C90.3564 265.393 93.9738 267.81 97.0209 270.857C100.068 273.904 102.485 277.522 104.134 281.503C105.783 285.484 106.632 289.751 106.632 294.06L73.8178 294.06H41.0037Z" fill="white"/>
<path d="M140.599 294.06C140.599 298.369 141.448 302.636 143.097 306.618C144.746 310.599 147.163 314.216 150.21 317.263C153.257 320.31 156.875 322.727 160.856 324.377C164.837 326.026 169.104 326.874 173.413 326.874C177.723 326.874 181.99 326.026 185.971 324.377C189.952 322.727 193.569 320.31 196.617 317.263C199.664 314.216 202.081 310.599 203.73 306.618C205.379 302.636 206.228 298.369 206.228 294.06L173.413 294.06H140.599Z" fill="white"/>
<path d="M9.03491 294.06C9.03491 298.369 9.88367 302.636 11.5327 306.618C13.1818 310.599 15.5989 314.216 18.6459 317.263C21.693 320.31 25.3104 322.727 29.2916 324.377C33.2728 326.026 37.5398 326.874 41.849 326.874C46.1582 326.874 50.4253 326.026 54.4065 324.377C58.3876 322.727 62.005 320.31 65.0521 317.263C68.0992 314.216 70.5163 310.599 72.1653 306.618C73.8144 302.636 74.6631 298.369 74.6631 294.06L41.849 294.06H9.03491Z" fill="white"/>
<path d="M206.381 294.06C206.381 298.369 207.229 302.636 208.878 306.618C210.528 310.599 212.945 314.216 215.992 317.263C219.039 320.31 222.656 322.727 226.637 324.377C230.619 326.026 234.886 326.874 239.195 326.874C243.504 326.874 247.771 326.026 251.752 324.377C255.733 322.727 259.351 320.31 262.398 317.263C265.445 314.216 267.862 310.599 269.511 306.618C271.16 302.636 272.009 298.369 272.009 294.06L239.195 294.06H206.381Z" fill="#9183FF"/>
<path d="M74.8171 294.06C74.8171 298.369 75.6659 302.636 77.315 306.617C78.964 310.599 81.3811 314.216 84.4282 317.263C87.4752 320.31 91.0926 322.727 95.0738 324.376C99.055 326.025 103.322 326.874 107.631 326.874C111.94 326.874 116.207 326.025 120.189 324.376C124.17 322.727 127.787 320.31 130.834 317.263C133.881 314.216 136.298 310.599 137.948 306.617C139.597 302.636 140.445 298.369 140.445 294.06L107.631 294.06H74.8171Z" fill="#9183FF"/>
<path d="M106.786 294.06C106.786 289.751 107.635 285.484 109.284 281.503C110.933 277.522 113.35 273.904 116.397 270.857C119.444 267.81 123.061 265.393 127.043 263.744C131.024 262.095 135.291 261.246 139.6 261.246C143.909 261.246 148.176 262.095 152.157 263.744C156.139 265.393 159.756 267.81 162.803 270.857C165.85 273.904 168.267 277.522 169.916 281.503C171.565 285.484 172.414 289.751 172.414 294.06L139.6 294.06H106.786Z" fill="#9183FF"/>
<path d="M172.567 360C172.567 355.691 173.416 351.424 175.065 347.442C176.714 343.461 179.131 339.844 182.178 336.797C185.225 333.75 188.843 331.333 192.824 329.684C196.805 328.034 201.072 327.186 205.381 327.186C209.69 327.186 213.957 328.034 217.939 329.684C221.92 331.333 225.537 333.75 228.584 336.797C231.631 339.844 234.048 343.461 235.698 347.442C237.347 351.424 238.195 355.691 238.195 360L205.381 360H172.567Z" fill="white"/>
<path d="M41.0037 360C41.0037 355.691 41.8524 351.424 43.5015 347.442C45.1506 343.461 47.5676 339.844 50.6147 336.797C53.6618 333.75 57.2792 331.333 61.2604 329.684C65.2416 328.034 69.5086 327.186 73.8178 327.186C78.127 327.186 82.394 328.034 86.3752 329.684C90.3564 331.333 93.9738 333.75 97.0209 336.797C100.068 339.844 102.485 343.461 104.134 347.442C105.783 351.424 106.632 355.691 106.632 360L73.8178 360H41.0037Z" fill="white"/>
<path d="M140.598 360C140.598 364.309 141.447 368.576 143.096 372.558C144.745 376.539 147.162 380.156 150.209 383.203C153.257 386.25 156.874 388.667 160.855 390.316C164.836 391.966 169.103 392.814 173.413 392.814C177.722 392.814 181.989 391.966 185.97 390.316C189.951 388.667 193.569 386.25 196.616 383.203C199.663 380.156 202.08 376.539 203.729 372.558C205.378 368.576 206.227 364.309 206.227 360L173.413 360H140.598Z" fill="white"/>
<path d="M9.03491 360C9.03491 364.309 9.88367 368.576 11.5327 372.558C13.1818 376.539 15.5989 380.156 18.6459 383.203C21.693 386.25 25.3104 388.667 29.2916 390.316C33.2728 391.966 37.5398 392.814 41.849 392.814C46.1582 392.814 50.4253 391.966 54.4065 390.316C58.3876 388.667 62.005 386.25 65.0521 383.203C68.0992 380.156 70.5163 376.539 72.1653 372.558C73.8144 368.576 74.6631 364.309 74.6631 360L41.849 360H9.03491Z" fill="white"/>
<path d="M206.381 360C206.381 364.309 207.229 368.576 208.879 372.558C210.528 376.539 212.945 380.156 215.992 383.203C219.039 386.25 222.656 388.667 226.637 390.316C230.619 391.966 234.886 392.814 239.195 392.814C243.504 392.814 247.771 391.966 251.752 390.316C255.733 388.667 259.351 386.25 262.398 383.203C265.445 380.156 267.862 376.539 269.511 372.558C271.16 368.576 272.009 364.309 272.009 360L239.195 360H206.381Z" fill="#9183FF"/>
<path d="M74.8162 360C74.8162 364.309 75.665 368.576 77.314 372.558C78.9631 376.539 81.3802 380.156 84.4273 383.203C87.4743 386.25 91.0917 388.667 95.0729 390.316C99.0541 391.966 103.321 392.814 107.63 392.814C111.94 392.814 116.207 391.966 120.188 390.316C124.169 388.667 127.786 386.25 130.833 383.203C133.88 380.156 136.298 376.539 137.947 372.558C139.596 368.576 140.444 364.309 140.444 360L107.63 360H74.8162Z" fill="#9183FF"/>
<path d="M106.786 360C106.786 355.691 107.635 351.424 109.284 347.442C110.933 343.461 113.35 339.844 116.397 336.797C119.444 333.75 123.061 331.333 127.043 329.684C131.024 328.034 135.291 327.186 139.6 327.186C143.909 327.186 148.176 328.034 152.157 329.684C156.139 331.333 159.756 333.75 162.803 336.797C165.85 339.844 168.267 343.461 169.916 347.442C171.565 351.424 172.414 355.691 172.414 360L139.6 360H106.786Z" fill="#9183FF"/>
</g>
<g opacity="0.3">
<path d="M698.515 32.8143C698.515 28.5051 699.364 24.2381 701.013 20.2569C702.662 16.2757 705.079 12.6583 708.126 9.61121C711.173 6.56414 714.791 4.14707 718.772 2.49801C722.753 0.848946 727.02 0.000183105 731.329 0.000183105C735.639 0.000183105 739.906 0.848946 743.887 2.49801C747.868 4.14708 751.486 6.56414 754.533 9.61122C757.58 12.6583 759.997 16.2757 761.646 20.2569C763.295 24.2381 764.144 28.5051 764.144 32.8143L731.329 32.8143H698.515Z" fill="white"/>
<path d="M566.953 32.8143C566.953 28.5051 567.802 24.2381 569.451 20.2569C571.1 16.2757 573.517 12.6583 576.564 9.61121C579.611 6.56414 583.228 4.14707 587.21 2.49801C591.191 0.848946 595.458 0.000183105 599.767 0.000183105C604.076 0.000183105 608.343 0.848946 612.324 2.49801C616.306 4.14708 619.923 6.56414 622.97 9.61122C626.017 12.6583 628.434 16.2757 630.083 20.2569C631.732 24.2381 632.581 28.5051 632.581 32.8143L599.767 32.8143H566.953Z" fill="white"/>
<path d="M666.548 32.8141C666.548 37.1233 667.396 41.3903 669.045 45.3715C670.694 49.3527 673.112 52.9701 676.159 56.0172C679.206 59.0643 682.823 61.4813 686.804 63.1304C690.785 64.7795 695.052 65.6282 699.362 65.6282C703.671 65.6282 707.938 64.7795 711.919 63.1304C715.9 61.4813 719.518 59.0643 722.565 56.0172C725.612 52.9701 728.029 49.3527 729.678 45.3715C731.327 41.3903 732.176 37.1233 732.176 32.8141L699.362 32.8141H666.548Z" fill="white"/>
<path d="M534.983 32.8141C534.983 37.1233 535.832 41.3903 537.481 45.3715C539.13 49.3527 541.547 52.9701 544.594 56.0172C547.641 59.0643 551.259 61.4813 555.24 63.1304C559.221 64.7795 563.488 65.6282 567.797 65.6282C572.106 65.6282 576.374 64.7795 580.355 63.1304C584.336 61.4813 587.953 59.0643 591 56.0172C594.047 52.9701 596.465 49.3527 598.114 45.3715C599.763 41.3903 600.611 37.1233 600.611 32.8141L567.797 32.8141H534.983Z" fill="white"/>
<path d="M732.329 32.8141C732.329 37.1233 733.178 41.3903 734.827 45.3715C736.476 49.3527 738.893 52.9701 741.94 56.0172C744.987 59.0643 748.604 61.4813 752.585 63.1304C756.567 64.7795 760.834 65.6282 765.143 65.6282C769.452 65.6282 773.719 64.7795 777.7 63.1304C781.682 61.4813 785.299 59.0643 788.346 56.0172C791.393 52.9701 793.81 49.3527 795.459 45.3715C797.108 41.3903 797.957 37.1233 797.957 32.8141L765.143 32.8141H732.329Z" fill="#9183FF"/>
<path d="M600.765 32.8141C600.765 37.1233 601.614 41.3903 603.263 45.3715C604.912 49.3527 607.329 52.9701 610.376 56.0172C613.423 59.0643 617.041 61.4813 621.022 63.1304C625.003 64.7795 629.27 65.6282 633.579 65.6282C637.889 65.6282 642.156 64.7795 646.137 63.1304C650.118 61.4813 653.735 59.0643 656.783 56.0172C659.83 52.9701 662.247 49.3527 663.896 45.3715C665.545 41.3903 666.394 37.1233 666.394 32.8141L633.579 32.8141H600.765Z" fill="#9183FF"/>
<path d="M632.734 32.8143C632.734 28.5051 633.583 24.2381 635.232 20.2569C636.881 16.2757 639.298 12.6583 642.345 9.61121C645.392 6.56414 649.01 4.14707 652.991 2.49801C656.972 0.848946 661.239 0.000183105 665.548 0.000183105C669.857 0.000183105 674.124 0.848946 678.106 2.49801C682.087 4.14708 685.704 6.56414 688.751 9.61122C691.798 12.6583 694.215 16.2757 695.865 20.2569C697.514 24.2381 698.362 28.5051 698.362 32.8143L665.548 32.8143H632.734Z" fill="#9183FF"/>
<path d="M698.515 96.2418C698.515 91.9326 699.364 87.6656 701.013 83.6844C702.662 79.7032 705.079 76.0858 708.126 73.0387C711.173 69.9916 714.791 67.5746 718.772 65.9255C722.753 64.2764 727.02 63.4277 731.329 63.4277C735.639 63.4277 739.906 64.2764 743.887 65.9255C747.868 67.5746 751.485 69.9916 754.532 73.0387C757.58 76.0858 759.997 79.7032 761.646 83.6844C763.295 87.6656 764.144 91.9326 764.144 96.2418L731.329 96.2418H698.515Z" fill="white"/>
<path d="M566.952 96.2415C566.952 91.9323 567.801 87.6653 569.45 83.6841C571.099 79.7029 573.516 76.0855 576.563 73.0385C579.61 69.9914 583.227 67.5743 587.209 65.9253C591.19 64.2762 595.457 63.4274 599.766 63.4274C604.075 63.4274 608.342 64.2762 612.324 65.9253C616.305 67.5743 619.922 69.9914 622.969 73.0385C626.016 76.0855 628.433 79.7029 630.082 83.6841C631.731 87.6653 632.58 91.9323 632.58 96.2416L599.766 96.2415H566.952Z" fill="white"/>
<path d="M666.547 96.2419C666.547 100.551 667.396 104.818 669.045 108.799C670.694 112.78 673.111 116.398 676.158 119.445C679.205 122.492 682.822 124.909 686.804 126.558C690.785 128.207 695.052 129.056 699.361 129.056C703.67 129.056 707.937 128.207 711.918 126.558C715.9 124.909 719.517 122.492 722.564 119.445C725.611 116.398 728.028 112.78 729.677 108.799C731.326 104.818 732.175 100.551 732.175 96.2418L699.361 96.2419H666.547Z" fill="white"/>
<path d="M534.983 96.2419C534.983 100.551 535.832 104.818 537.481 108.799C539.13 112.78 541.547 116.398 544.594 119.445C547.641 122.492 551.259 124.909 555.24 126.558C559.221 128.207 563.488 129.056 567.797 129.056C572.106 129.056 576.374 128.207 580.355 126.558C584.336 124.909 587.953 122.492 591 119.445C594.047 116.398 596.465 112.78 598.114 108.799C599.763 104.818 600.611 100.551 600.611 96.2418L567.797 96.2419H534.983Z" fill="white"/>
<path d="M732.329 96.2419C732.329 100.551 733.178 104.818 734.827 108.799C736.476 112.78 738.893 116.398 741.94 119.445C744.987 122.492 748.605 124.909 752.586 126.558C756.567 128.207 760.834 129.056 765.143 129.056C769.452 129.056 773.719 128.207 777.701 126.558C781.682 124.909 785.299 122.492 788.346 119.445C791.393 116.398 793.81 112.78 795.459 108.799C797.109 104.818 797.957 100.551 797.957 96.2418L765.143 96.2419H732.329Z" fill="#9183FF"/>
<path d="M600.765 96.2419C600.765 100.551 601.613 104.818 603.262 108.799C604.911 112.78 607.329 116.398 610.376 119.445C613.423 122.492 617.04 124.909 621.021 126.558C625.002 128.207 629.269 129.056 633.579 129.056C637.888 129.056 642.155 128.207 646.136 126.558C650.117 124.909 653.735 122.492 656.782 119.445C659.829 116.398 662.246 112.78 663.895 108.799C665.544 104.818 666.393 100.551 666.393 96.2418L633.579 96.2419H600.765Z" fill="#9183FF"/>
<path d="M632.734 96.2418C632.734 91.9326 633.583 87.6656 635.232 83.6844C636.881 79.7032 639.298 76.0858 642.345 73.0387C645.392 69.9916 649.01 67.5746 652.991 65.9255C656.972 64.2764 661.239 63.4277 665.548 63.4277C669.857 63.4277 674.124 64.2764 678.106 65.9255C682.087 67.5746 685.704 69.9916 688.751 73.0387C691.798 76.0858 694.215 79.7032 695.864 83.6844C697.513 87.6656 698.362 91.9326 698.362 96.2418L665.548 96.2418H632.734Z" fill="#9183FF"/>
<path d="M698.515 162.181C698.515 157.872 699.364 153.605 701.013 149.624C702.662 145.642 705.079 142.025 708.126 138.978C711.173 135.931 714.791 133.514 718.772 131.865C722.753 130.216 727.02 129.367 731.329 129.367C735.639 129.367 739.906 130.216 743.887 131.865C747.868 133.514 751.485 135.931 754.532 138.978C757.58 142.025 759.997 145.642 761.646 149.624C763.295 153.605 764.144 157.872 764.144 162.181L731.329 162.181H698.515Z" fill="white"/>
<path d="M566.952 162.181C566.952 157.872 567.801 153.605 569.45 149.624C571.099 145.642 573.516 142.025 576.563 138.978C579.61 135.931 583.227 133.514 587.209 131.865C591.19 130.216 595.457 129.367 599.766 129.367C604.075 129.367 608.342 130.216 612.324 131.865C616.305 133.514 619.922 135.931 622.969 138.978C626.016 142.025 628.433 145.642 630.082 149.624C631.731 153.605 632.58 157.872 632.58 162.181L599.766 162.181H566.952Z" fill="white"/>
<path d="M666.547 162.181C666.547 166.49 667.395 170.757 669.045 174.738C670.694 178.719 673.111 182.337 676.158 185.384C679.205 188.431 682.822 190.848 686.803 192.497C690.785 194.146 695.052 194.995 699.361 194.995C703.67 194.995 707.937 194.146 711.918 192.497C715.899 190.848 719.517 188.431 722.564 185.384C725.611 182.337 728.028 178.719 729.677 174.738C731.326 170.757 732.175 166.49 732.175 162.181L699.361 162.181H666.547Z" fill="white"/>
<path d="M534.983 162.181C534.983 166.49 535.832 170.757 537.481 174.738C539.13 178.72 541.547 182.337 544.594 185.384C547.641 188.431 551.259 190.848 555.24 192.497C559.221 194.146 563.488 194.995 567.797 194.995C572.106 194.995 576.373 194.146 580.355 192.497C584.336 190.848 587.953 188.431 591 185.384C594.047 182.337 596.464 178.72 598.113 174.738C599.763 170.757 600.611 166.49 600.611 162.181L567.797 162.181H534.983Z" fill="white"/>
<path d="M732.329 162.181C732.329 166.49 733.178 170.757 734.827 174.738C736.476 178.72 738.893 182.337 741.94 185.384C744.987 188.431 748.604 190.848 752.586 192.497C756.567 194.146 760.834 194.995 765.143 194.995C769.452 194.995 773.719 194.146 777.7 192.497C781.682 190.848 785.299 188.431 788.346 185.384C791.393 182.337 793.81 178.72 795.459 174.738C797.108 170.757 797.957 166.49 797.957 162.181L765.143 162.181H732.329Z" fill="#9183FF"/>
<path d="M600.764 162.181C600.764 166.49 601.613 170.757 603.262 174.738C604.911 178.719 607.328 182.337 610.376 185.384C613.423 188.431 617.04 190.848 621.021 192.497C625.002 194.146 629.269 194.995 633.579 194.995C637.888 194.995 642.155 194.146 646.136 192.497C650.117 190.848 653.735 188.431 656.782 185.384C659.829 182.337 662.246 178.719 663.895 174.738C665.544 170.757 666.393 166.49 666.393 162.181L633.579 162.181H600.764Z" fill="#9183FF"/>
<path d="M632.734 162.181C632.734 157.872 633.583 153.605 635.232 149.624C636.881 145.642 639.298 142.025 642.345 138.978C645.392 135.931 649.01 133.514 652.991 131.865C656.972 130.216 661.239 129.367 665.548 129.367C669.857 129.367 674.124 130.216 678.106 131.865C682.087 133.514 685.704 135.931 688.751 138.978C691.798 142.025 694.215 145.642 695.864 149.624C697.513 153.605 698.362 157.872 698.362 162.181L665.548 162.181H632.734Z" fill="#9183FF"/>
<path d="M698.515 228.121C698.515 223.811 699.364 219.544 701.013 215.563C702.662 211.582 705.079 207.965 708.126 204.918C711.173 201.871 714.791 199.453 718.772 197.804C722.753 196.155 727.02 195.307 731.329 195.307C735.639 195.307 739.906 196.155 743.887 197.804C747.868 199.453 751.485 201.871 754.532 204.918C757.58 207.965 759.997 211.582 761.646 215.563C763.295 219.544 764.143 223.811 764.143 228.121L731.329 228.121H698.515Z" fill="white"/>
<path d="M566.952 228.121C566.952 223.811 567.801 219.544 569.45 215.563C571.099 211.582 573.516 207.965 576.563 204.918C579.61 201.871 583.227 199.453 587.209 197.804C591.19 196.155 595.457 195.307 599.766 195.307C604.075 195.307 608.342 196.155 612.323 197.804C616.305 199.453 619.922 201.871 622.969 204.918C626.016 207.965 628.433 211.582 630.082 215.563C631.731 219.544 632.58 223.811 632.58 228.121L599.766 228.121H566.952Z" fill="white"/>
<path d="M666.547 228.121C666.547 232.43 667.395 236.697 669.044 240.678C670.693 244.66 673.111 248.277 676.158 251.324C679.205 254.371 682.822 256.788 686.803 258.437C690.784 260.086 695.051 260.935 699.361 260.935C703.67 260.935 707.937 260.086 711.918 258.437C715.899 256.788 719.517 254.371 722.564 251.324C725.611 248.277 728.028 244.66 729.677 240.678C731.326 236.697 732.175 232.43 732.175 228.121L699.361 228.121H666.547Z" fill="white"/>
<path d="M534.983 228.121C534.983 232.43 535.832 236.697 537.481 240.678C539.13 244.66 541.547 248.277 544.594 251.324C547.641 254.371 551.258 256.788 555.24 258.437C559.221 260.086 563.488 260.935 567.797 260.935C572.106 260.935 576.373 260.086 580.354 258.437C584.336 256.788 587.953 254.371 591 251.324C594.047 248.277 596.464 244.66 598.113 240.678C599.762 236.697 600.611 232.43 600.611 228.121L567.797 228.121H534.983Z" fill="white"/>
<path d="M732.329 228.121C732.329 232.43 733.178 236.697 734.827 240.678C736.476 244.66 738.893 248.277 741.94 251.324C744.987 254.371 748.604 256.788 752.586 258.437C756.567 260.086 760.834 260.935 765.143 260.935C769.452 260.935 773.719 260.086 777.7 258.437C781.682 256.788 785.299 254.371 788.346 251.324C791.393 248.277 793.81 244.66 795.459 240.678C797.108 236.697 797.957 232.43 797.957 228.121L765.143 228.121H732.329Z" fill="#9183FF"/>
<path d="M600.764 228.121C600.764 232.43 601.613 236.697 603.262 240.678C604.911 244.66 607.328 248.277 610.375 251.324C613.422 254.371 617.04 256.788 621.021 258.437C625.002 260.086 629.269 260.935 633.578 260.935C637.888 260.935 642.155 260.086 646.136 258.437C650.117 256.788 653.734 254.371 656.782 251.324C659.829 248.277 662.246 244.66 663.895 240.678C665.544 236.697 666.393 232.43 666.393 228.121L633.578 228.121H600.764Z" fill="#9183FF"/>
<path d="M632.734 228.121C632.734 223.811 633.583 219.544 635.232 215.563C636.881 211.582 639.298 207.965 642.345 204.918C645.392 201.871 649.01 199.453 652.991 197.804C656.972 196.155 661.239 195.307 665.548 195.307C669.857 195.307 674.124 196.155 678.106 197.804C682.087 199.453 685.704 201.871 688.751 204.918C691.798 207.965 694.215 211.582 695.864 215.563C697.513 219.544 698.362 223.811 698.362 228.121L665.548 228.121H632.734Z" fill="#9183FF"/>
<path d="M698.515 294.06C698.515 289.751 699.364 285.484 701.013 281.503C702.662 277.522 705.079 273.904 708.126 270.857C711.173 267.81 714.791 265.393 718.772 263.744C722.753 262.095 727.02 261.246 731.329 261.246C735.639 261.246 739.906 262.095 743.887 263.744C747.868 265.393 751.485 267.81 754.532 270.857C757.58 273.904 759.997 277.522 761.646 281.503C763.295 285.484 764.144 289.751 764.144 294.06L731.329 294.06H698.515Z" fill="white"/>
<path d="M566.952 294.06C566.952 289.751 567.801 285.484 569.45 281.503C571.099 277.522 573.516 273.904 576.563 270.857C579.61 267.81 583.227 265.393 587.209 263.744C591.19 262.095 595.457 261.246 599.766 261.246C604.075 261.246 608.342 262.095 612.324 263.744C616.305 265.393 619.922 267.81 622.969 270.857C626.016 273.904 628.433 277.522 630.082 281.503C631.731 285.484 632.58 289.751 632.58 294.06L599.766 294.06H566.952Z" fill="white"/>
<path d="M666.547 294.06C666.547 298.369 667.395 302.636 669.045 306.618C670.694 310.599 673.111 314.216 676.158 317.263C679.205 320.31 682.822 322.727 686.803 324.377C690.785 326.026 695.052 326.874 699.361 326.874C703.67 326.874 707.937 326.026 711.918 324.377C715.899 322.727 719.517 320.31 722.564 317.263C725.611 314.216 728.028 310.599 729.677 306.618C731.326 302.636 732.175 298.369 732.175 294.06L699.361 294.06H666.547Z" fill="white"/>
<path d="M534.983 294.06C534.983 298.369 535.832 302.636 537.481 306.618C539.13 310.599 541.547 314.216 544.594 317.263C547.641 320.31 551.259 322.727 555.24 324.377C559.221 326.026 563.488 326.874 567.797 326.874C572.106 326.874 576.373 326.026 580.355 324.377C584.336 322.727 587.953 320.31 591 317.263C594.047 314.216 596.464 310.599 598.113 306.618C599.763 302.636 600.611 298.369 600.611 294.06L567.797 294.06H534.983Z" fill="white"/>
<path d="M732.329 294.06C732.329 298.369 733.178 302.636 734.827 306.618C736.476 310.599 738.893 314.216 741.94 317.263C744.987 320.31 748.604 322.727 752.586 324.377C756.567 326.026 760.834 326.874 765.143 326.874C769.452 326.874 773.719 326.026 777.7 324.377C781.682 322.727 785.299 320.31 788.346 317.263C791.393 314.216 793.81 310.599 795.459 306.618C797.108 302.636 797.957 298.369 797.957 294.06L765.143 294.06H732.329Z" fill="#9183FF"/>
<path d="M600.764 294.06C600.764 298.369 601.613 302.636 603.262 306.617C604.911 310.599 607.328 314.216 610.376 317.263C613.423 320.31 617.04 322.727 621.021 324.376C625.002 326.025 629.269 326.874 633.579 326.874C637.888 326.874 642.155 326.025 646.136 324.376C650.117 322.727 653.735 320.31 656.782 317.263C659.829 314.216 662.246 310.599 663.895 306.617C665.544 302.636 666.393 298.369 666.393 294.06L633.579 294.06H600.764Z" fill="#9183FF"/>
<path d="M632.734 294.06C632.734 289.751 633.583 285.484 635.232 281.503C636.881 277.522 639.298 273.904 642.345 270.857C645.392 267.81 649.01 265.393 652.991 263.744C656.972 262.095 661.239 261.246 665.548 261.246C669.857 261.246 674.124 262.095 678.106 263.744C682.087 265.393 685.704 267.81 688.751 270.857C691.798 273.904 694.215 277.522 695.864 281.503C697.513 285.484 698.362 289.751 698.362 294.06L665.548 294.06H632.734Z" fill="#9183FF"/>
<path d="M698.515 360C698.515 355.691 699.364 351.424 701.013 347.442C702.662 343.461 705.079 339.844 708.126 336.797C711.173 333.75 714.791 331.333 718.772 329.684C722.753 328.034 727.02 327.186 731.329 327.186C735.639 327.186 739.906 328.034 743.887 329.684C747.868 331.333 751.485 333.75 754.532 336.797C757.58 339.844 759.997 343.461 761.646 347.442C763.295 351.424 764.144 355.691 764.144 360L731.329 360H698.515Z" fill="white"/>
<path d="M566.952 360C566.952 355.691 567.801 351.424 569.45 347.442C571.099 343.461 573.516 339.844 576.563 336.797C579.61 333.75 583.227 331.333 587.209 329.684C591.19 328.034 595.457 327.186 599.766 327.186C604.075 327.186 608.342 328.034 612.324 329.684C616.305 331.333 619.922 333.75 622.969 336.797C626.016 339.844 628.433 343.461 630.082 347.442C631.731 351.424 632.58 355.691 632.58 360L599.766 360H566.952Z" fill="white"/>
<path d="M666.547 360C666.547 364.309 667.395 368.576 669.044 372.558C670.693 376.539 673.111 380.156 676.158 383.203C679.205 386.25 682.822 388.667 686.803 390.316C690.784 391.966 695.052 392.814 699.361 392.814C703.67 392.814 707.937 391.966 711.918 390.316C715.899 388.667 719.517 386.25 722.564 383.203C725.611 380.156 728.028 376.539 729.677 372.558C731.326 368.576 732.175 364.309 732.175 360L699.361 360H666.547Z" fill="white"/>
<path d="M534.983 360C534.983 364.309 535.832 368.576 537.481 372.558C539.13 376.539 541.547 380.156 544.594 383.203C547.641 386.25 551.259 388.667 555.24 390.316C559.221 391.966 563.488 392.814 567.797 392.814C572.106 392.814 576.373 391.966 580.355 390.316C584.336 388.667 587.953 386.25 591 383.203C594.047 380.156 596.464 376.539 598.113 372.558C599.763 368.576 600.611 364.309 600.611 360L567.797 360H534.983Z" fill="white"/>
<path d="M732.329 360C732.329 364.309 733.178 368.576 734.827 372.558C736.476 376.539 738.893 380.156 741.94 383.203C744.987 386.25 748.604 388.667 752.586 390.316C756.567 391.966 760.834 392.814 765.143 392.814C769.452 392.814 773.719 391.966 777.7 390.316C781.682 388.667 785.299 386.25 788.346 383.203C791.393 380.156 793.81 376.539 795.459 372.558C797.108 368.576 797.957 364.309 797.957 360L765.143 360H732.329Z" fill="#9183FF"/>
<path d="M600.764 360C600.764 364.309 601.613 368.576 603.262 372.558C604.911 376.539 607.328 380.156 610.375 383.203C613.422 386.25 617.04 388.667 621.021 390.316C625.002 391.966 629.269 392.814 633.578 392.814C637.888 392.814 642.155 391.966 646.136 390.316C650.117 388.667 653.735 386.25 656.782 383.203C659.829 380.156 662.246 376.539 663.895 372.558C665.544 368.576 666.393 364.309 666.393 360L633.578 360H600.764Z" fill="#9183FF"/>
<path d="M632.734 360C632.734 355.691 633.583 351.424 635.232 347.442C636.881 343.461 639.298 339.844 642.345 336.797C645.392 333.75 649.01 331.333 652.991 329.684C656.972 328.034 661.239 327.186 665.548 327.186C669.857 327.186 674.124 328.034 678.106 329.684C682.087 331.333 685.704 333.75 688.751 336.797C691.798 339.844 694.215 343.461 695.864 347.442C697.513 351.424 698.362 355.691 698.362 360L665.548 360H632.734Z" fill="#9183FF"/>
</g>
<g opacity="0.3">
<path d="M435.541 32.8143C435.541 28.5051 436.39 24.2381 438.039 20.2569C439.688 16.2757 442.105 12.6583 445.152 9.61121C448.199 6.56414 451.816 4.14707 455.797 2.49801C459.779 0.848946 464.046 0.000183105 468.355 0.000183105C472.664 0.000183105 476.931 0.848946 480.912 2.49801C484.894 4.14708 488.511 6.56414 491.558 9.61122C494.605 12.6583 497.022 16.2757 498.671 20.2569C500.32 24.2381 501.169 28.5051 501.169 32.8143L468.355 32.8143H435.541Z" fill="white"/>
<path d="M303.977 32.8143C303.977 28.5051 304.826 24.2381 306.475 20.2569C308.124 16.2757 310.541 12.6583 313.588 9.61121C316.636 6.56414 320.253 4.14707 324.234 2.49801C328.215 0.848946 332.482 0.000183105 336.792 0.000183105C341.101 0.000183105 345.368 0.848946 349.349 2.49801C353.33 4.14708 356.948 6.56414 359.995 9.61122C363.042 12.6583 365.459 16.2757 367.108 20.2569C368.757 24.2381 369.606 28.5051 369.606 32.8143L336.792 32.8143H303.977Z" fill="white"/>
<path d="M403.572 32.8141C403.572 37.1233 404.421 41.3903 406.07 45.3715C407.719 49.3527 410.136 52.9701 413.183 56.0172C416.23 59.0643 419.848 61.4813 423.829 63.1304C427.81 64.7795 432.077 65.6282 436.386 65.6282C440.695 65.6282 444.962 64.7795 448.944 63.1304C452.925 61.4813 456.542 59.0643 459.589 56.0172C462.636 52.9701 465.053 49.3527 466.703 45.3715C468.352 41.3903 469.2 37.1233 469.2 32.8141L436.386 32.8141H403.572Z" fill="white"/>
<path d="M272.009 32.8141C272.009 37.1233 272.857 41.3903 274.506 45.3715C276.155 49.3527 278.573 52.9701 281.62 56.0172C284.667 59.0643 288.284 61.4813 292.265 63.1304C296.246 64.7795 300.513 65.6282 304.823 65.6282C309.132 65.6282 313.399 64.7795 317.38 63.1304C321.361 61.4813 324.979 59.0643 328.026 56.0172C331.073 52.9701 333.49 49.3527 335.139 45.3715C336.788 41.3903 337.637 37.1233 337.637 32.8141L304.823 32.8141H272.009Z" fill="white"/>
<path d="M469.354 32.8141C469.354 37.1233 470.203 41.3903 471.852 45.3715C473.501 49.3527 475.918 52.9701 478.965 56.0172C482.012 59.0643 485.63 61.4813 489.611 63.1304C493.592 64.7795 497.859 65.6282 502.168 65.6282C506.478 65.6282 510.745 64.7795 514.726 63.1304C518.707 61.4813 522.325 59.0643 525.372 56.0172C528.419 52.9701 530.836 49.3527 532.485 45.3715C534.134 41.3903 534.983 37.1233 534.983 32.8141L502.168 32.8141H469.354Z" fill="#9183FF"/>
<path d="M337.79 32.8141C337.79 37.1233 338.639 41.3903 340.288 45.3715C341.937 49.3527 344.354 52.9701 347.401 56.0172C350.448 59.0643 354.065 61.4813 358.047 63.1304C362.028 64.7795 366.295 65.6282 370.604 65.6282C374.913 65.6282 379.18 64.7795 383.161 63.1304C387.143 61.4813 390.76 59.0643 393.807 56.0172C396.854 52.9701 399.271 49.3527 400.92 45.3715C402.569 41.3903 403.418 37.1233 403.418 32.8141L370.604 32.8141H337.79Z" fill="#9183FF"/>
<path d="M369.76 32.8143C369.76 28.5051 370.608 24.2381 372.257 20.2569C373.906 16.2757 376.323 12.6583 379.371 9.61121C382.418 6.56414 386.035 4.14707 390.016 2.49801C393.997 0.848946 398.264 0.000183105 402.574 0.000183105C406.883 0.000183105 411.15 0.848946 415.131 2.49801C419.112 4.14708 422.73 6.56414 425.777 9.61122C428.824 12.6583 431.241 16.2757 432.89 20.2569C434.539 24.2381 435.388 28.5051 435.388 32.8143L402.574 32.8143H369.76Z" fill="#9183FF"/>
<path d="M435.541 96.2418C435.541 91.9326 436.39 87.6656 438.039 83.6844C439.688 79.7032 442.105 76.0858 445.152 73.0387C448.199 69.9916 451.816 67.5746 455.797 65.9255C459.779 64.2764 464.046 63.4277 468.355 63.4277C472.664 63.4277 476.931 64.2764 480.912 65.9255C484.893 67.5746 488.511 69.9916 491.558 73.0387C494.605 76.0858 497.022 79.7032 498.671 83.6844C500.32 87.6656 501.169 91.9326 501.169 96.2418L468.355 96.2418H435.541Z" fill="white"/>
<path d="M303.977 96.2415C303.977 91.9323 304.826 87.6653 306.475 83.6841C308.124 79.7029 310.541 76.0855 313.588 73.0385C316.635 69.9914 320.253 67.5743 324.234 65.9253C328.215 64.2762 332.482 63.4274 336.792 63.4274C341.101 63.4274 345.368 64.2762 349.349 65.9253C353.33 67.5743 356.948 69.9914 359.995 73.0385C363.042 76.0855 365.459 79.7029 367.108 83.6841C368.757 87.6653 369.606 91.9323 369.606 96.2416L336.792 96.2415H303.977Z" fill="white"/>
<path d="M403.572 96.2419C403.572 100.551 404.421 104.818 406.07 108.799C407.719 112.78 410.136 116.398 413.183 119.445C416.23 122.492 419.848 124.909 423.829 126.558C427.81 128.207 432.077 129.056 436.386 129.056C440.695 129.056 444.962 128.207 448.944 126.558C452.925 124.909 456.542 122.492 459.589 119.445C462.636 116.398 465.053 112.78 466.703 108.799C468.352 104.818 469.2 100.551 469.2 96.2418L436.386 96.2419H403.572Z" fill="white"/>
<path d="M272.009 96.2419C272.009 100.551 272.857 104.818 274.506 108.799C276.155 112.78 278.573 116.398 281.62 119.445C284.667 122.492 288.284 124.909 292.265 126.558C296.246 128.207 300.513 129.056 304.823 129.056C309.132 129.056 313.399 128.207 317.38 126.558C321.361 124.909 324.979 122.492 328.026 119.445C331.073 116.398 333.49 112.78 335.139 108.799C336.788 104.818 337.637 100.551 337.637 96.2418L304.823 96.2419H272.009Z" fill="white"/>
<path d="M469.354 96.2419C469.354 100.551 470.203 104.818 471.852 108.799C473.501 112.78 475.918 116.398 478.965 119.445C482.012 122.492 485.63 124.909 489.611 126.558C493.592 128.207 497.859 129.056 502.168 129.056C506.478 129.056 510.745 128.207 514.726 126.558C518.707 124.909 522.325 122.492 525.372 119.445C528.419 116.398 530.836 112.78 532.485 108.799C534.134 104.818 534.983 100.551 534.983 96.2418L502.168 96.2419H469.354Z" fill="#9183FF"/>
<path d="M337.79 96.2419C337.79 100.551 338.639 104.818 340.288 108.799C341.937 112.78 344.354 116.398 347.401 119.445C350.448 122.492 354.065 124.909 358.047 126.558C362.028 128.207 366.295 129.056 370.604 129.056C374.913 129.056 379.18 128.207 383.161 126.558C387.143 124.909 390.76 122.492 393.807 119.445C396.854 116.398 399.271 112.78 400.92 108.799C402.569 104.818 403.418 100.551 403.418 96.2418L370.604 96.2419H337.79Z" fill="#9183FF"/>
<path d="M369.759 96.2418C369.759 91.9326 370.608 87.6656 372.257 83.6844C373.906 79.7032 376.323 76.0858 379.371 73.0387C382.418 69.9916 386.035 67.5746 390.016 65.9255C393.997 64.2764 398.264 63.4277 402.574 63.4277C406.883 63.4277 411.15 64.2764 415.131 65.9255C419.112 67.5746 422.73 69.9916 425.777 73.0387C428.824 76.0858 431.241 79.7032 432.89 83.6844C434.539 87.6656 435.388 91.9326 435.388 96.2418L402.574 96.2418H369.759Z" fill="#9183FF"/>
<path d="M435.541 162.181C435.541 157.872 436.39 153.605 438.039 149.624C439.688 145.642 442.105 142.025 445.152 138.978C448.199 135.931 451.816 133.514 455.797 131.865C459.779 130.216 464.046 129.367 468.355 129.367C472.664 129.367 476.931 130.216 480.912 131.865C484.893 133.514 488.511 135.931 491.558 138.978C494.605 142.025 497.022 145.642 498.671 149.624C500.32 153.605 501.169 157.872 501.169 162.181L468.355 162.181H435.541Z" fill="white"/>
<path d="M303.977 162.181C303.977 157.872 304.826 153.605 306.475 149.624C308.124 145.642 310.541 142.025 313.588 138.978C316.635 135.931 320.253 133.514 324.234 131.865C328.215 130.216 332.482 129.367 336.792 129.367C341.101 129.367 345.368 130.216 349.349 131.865C353.33 133.514 356.948 135.931 359.995 138.978C363.042 142.025 365.459 145.642 367.108 149.624C368.757 153.605 369.606 157.872 369.606 162.181L336.792 162.181H303.977Z" fill="white"/>
<path d="M403.572 162.181C403.572 166.49 404.421 170.757 406.07 174.738C407.719 178.719 410.136 182.337 413.183 185.384C416.23 188.431 419.848 190.848 423.829 192.497C427.81 194.146 432.077 194.995 436.386 194.995C440.695 194.995 444.962 194.146 448.944 192.497C452.925 190.848 456.542 188.431 459.589 185.384C462.636 182.337 465.053 178.719 466.703 174.738C468.352 170.757 469.2 166.49 469.2 162.181L436.386 162.181H403.572Z" fill="white"/>
<path d="M272.009 162.181C272.009 166.49 272.857 170.757 274.506 174.738C276.155 178.72 278.573 182.337 281.62 185.384C284.667 188.431 288.284 190.848 292.265 192.497C296.246 194.146 300.513 194.995 304.823 194.995C309.132 194.995 313.399 194.146 317.38 192.497C321.361 190.848 324.979 188.431 328.026 185.384C331.073 182.337 333.49 178.72 335.139 174.738C336.788 170.757 337.637 166.49 337.637 162.181L304.823 162.181H272.009Z" fill="white"/>
<path d="M469.354 162.181C469.354 166.49 470.203 170.757 471.852 174.738C473.501 178.72 475.918 182.337 478.965 185.384C482.012 188.431 485.63 190.848 489.611 192.497C493.592 194.146 497.859 194.995 502.168 194.995C506.478 194.995 510.745 194.146 514.726 192.497C518.707 190.848 522.324 188.431 525.372 185.384C528.419 182.337 530.836 178.72 532.485 174.738C534.134 170.757 534.983 166.49 534.983 162.181L502.168 162.181H469.354Z" fill="#9183FF"/>
<path d="M337.79 162.181C337.79 166.49 338.639 170.757 340.288 174.738C341.937 178.719 344.354 182.337 347.401 185.384C350.448 188.431 354.065 190.848 358.047 192.497C362.028 194.146 366.295 194.995 370.604 194.995C374.913 194.995 379.18 194.146 383.161 192.497C387.143 190.848 390.76 188.431 393.807 185.384C396.854 182.337 399.271 178.719 400.92 174.738C402.569 170.757 403.418 166.49 403.418 162.181L370.604 162.181H337.79Z" fill="#9183FF"/>
<path d="M369.759 162.181C369.759 157.872 370.608 153.605 372.257 149.624C373.906 145.642 376.323 142.025 379.371 138.978C382.418 135.931 386.035 133.514 390.016 131.865C393.997 130.216 398.264 129.367 402.574 129.367C406.883 129.367 411.15 130.216 415.131 131.865C419.112 133.514 422.73 135.931 425.777 138.978C428.824 142.025 431.241 145.642 432.89 149.624C434.539 153.605 435.388 157.872 435.388 162.181L402.574 162.181H369.759Z" fill="#9183FF"/>
<path d="M435.541 228.121C435.541 223.811 436.39 219.544 438.039 215.563C439.688 211.582 442.105 207.965 445.152 204.918C448.199 201.871 451.816 199.453 455.797 197.804C459.779 196.155 464.046 195.307 468.355 195.307C472.664 195.307 476.931 196.155 480.912 197.804C484.894 199.453 488.511 201.871 491.558 204.918C494.605 207.965 497.022 211.582 498.671 215.563C500.32 219.544 501.169 223.811 501.169 228.121L468.355 228.121H435.541Z" fill="white"/>
<path d="M303.977 228.121C303.977 223.811 304.826 219.544 306.475 215.563C308.124 211.582 310.541 207.965 313.588 204.918C316.635 201.871 320.253 199.453 324.234 197.804C328.215 196.155 332.482 195.307 336.791 195.307C341.101 195.307 345.368 196.155 349.349 197.804C353.33 199.453 356.947 201.871 359.995 204.918C363.042 207.965 365.459 211.582 367.108 215.563C368.757 219.544 369.606 223.811 369.606 228.121L336.791 228.121H303.977Z" fill="white"/>
<path d="M403.572 228.121C403.572 232.43 404.421 236.697 406.07 240.678C407.719 244.66 410.136 248.277 413.183 251.324C416.23 254.371 419.848 256.788 423.829 258.437C427.81 260.086 432.077 260.935 436.386 260.935C440.695 260.935 444.962 260.086 448.944 258.437C452.925 256.788 456.542 254.371 459.589 251.324C462.636 248.277 465.053 244.66 466.703 240.678C468.352 236.697 469.2 232.43 469.2 228.121L436.386 228.121H403.572Z" fill="white"/>
<path d="M272.009 228.121C272.009 232.43 272.857 236.697 274.506 240.678C276.155 244.66 278.573 248.277 281.62 251.324C284.667 254.371 288.284 256.788 292.265 258.437C296.246 260.086 300.513 260.935 304.823 260.935C309.132 260.935 313.399 260.086 317.38 258.437C321.361 256.788 324.979 254.371 328.026 251.324C331.073 248.277 333.49 244.66 335.139 240.678C336.788 236.697 337.637 232.43 337.637 228.121L304.823 228.121H272.009Z" fill="white"/>
<path d="M469.354 228.121C469.354 232.43 470.203 236.697 471.852 240.678C473.501 244.66 475.918 248.277 478.965 251.324C482.012 254.371 485.63 256.788 489.611 258.437C493.592 260.086 497.859 260.935 502.168 260.935C506.478 260.935 510.745 260.086 514.726 258.437C518.707 256.788 522.324 254.371 525.372 251.324C528.419 248.277 530.836 244.66 532.485 240.678C534.134 236.697 534.983 232.43 534.983 228.121L502.168 228.121H469.354Z" fill="#9183FF"/>
<path d="M337.79 228.121C337.79 232.43 338.639 236.697 340.288 240.678C341.937 244.66 344.354 248.277 347.401 251.324C350.448 254.371 354.065 256.788 358.047 258.437C362.028 260.086 366.295 260.935 370.604 260.935C374.913 260.935 379.18 260.086 383.161 258.437C387.143 256.788 390.76 254.371 393.807 251.324C396.854 248.277 399.271 244.66 400.92 240.678C402.569 236.697 403.418 232.43 403.418 228.121L370.604 228.121H337.79Z" fill="#9183FF"/>
<path d="M369.759 228.121C369.759 223.811 370.608 219.544 372.257 215.563C373.906 211.582 376.323 207.965 379.371 204.918C382.418 201.871 386.035 199.453 390.016 197.804C393.997 196.155 398.264 195.307 402.574 195.307C406.883 195.307 411.15 196.155 415.131 197.804C419.112 199.453 422.73 201.871 425.777 204.918C428.824 207.965 431.241 211.582 432.89 215.563C434.539 219.544 435.388 223.811 435.388 228.121L402.574 228.121H369.759Z" fill="#9183FF"/>
<path d="M435.541 294.06C435.541 289.751 436.39 285.484 438.039 281.503C439.688 277.522 442.105 273.904 445.152 270.857C448.199 267.81 451.816 265.393 455.797 263.744C459.779 262.095 464.046 261.246 468.355 261.246C472.664 261.246 476.931 262.095 480.912 263.744C484.893 265.393 488.511 267.81 491.558 270.857C494.605 273.904 497.022 277.522 498.671 281.503C500.32 285.484 501.169 289.751 501.169 294.06L468.355 294.06H435.541Z" fill="white"/>
<path d="M303.977 294.06C303.977 289.751 304.826 285.484 306.475 281.503C308.124 277.522 310.541 273.904 313.588 270.857C316.635 267.81 320.253 265.393 324.234 263.744C328.215 262.095 332.482 261.246 336.792 261.246C341.101 261.246 345.368 262.095 349.349 263.744C353.33 265.393 356.948 267.81 359.995 270.857C363.042 273.904 365.459 277.522 367.108 281.503C368.757 285.484 369.606 289.751 369.606 294.06L336.792 294.06H303.977Z" fill="white"/>
<path d="M403.572 294.06C403.572 298.369 404.421 302.636 406.07 306.618C407.719 310.599 410.136 314.216 413.183 317.263C416.23 320.31 419.848 322.727 423.829 324.377C427.81 326.026 432.077 326.874 436.386 326.874C440.695 326.874 444.962 326.026 448.944 324.377C452.925 322.727 456.542 320.31 459.589 317.263C462.636 314.216 465.053 310.599 466.703 306.618C468.352 302.636 469.2 298.369 469.2 294.06L436.386 294.06H403.572Z" fill="white"/>
<path d="M272.009 294.06C272.009 298.369 272.857 302.636 274.506 306.618C276.155 310.599 278.573 314.216 281.62 317.263C284.667 320.31 288.284 322.727 292.265 324.377C296.246 326.026 300.513 326.874 304.823 326.874C309.132 326.874 313.399 326.026 317.38 324.377C321.361 322.727 324.979 320.31 328.026 317.263C331.073 314.216 333.49 310.599 335.139 306.618C336.788 302.636 337.637 298.369 337.637 294.06L304.823 294.06H272.009Z" fill="white"/>
<path d="M469.354 294.06C469.354 298.369 470.203 302.636 471.852 306.618C473.501 310.599 475.918 314.216 478.965 317.263C482.012 320.31 485.63 322.727 489.611 324.377C493.592 326.026 497.859 326.874 502.168 326.874C506.478 326.874 510.745 326.026 514.726 324.377C518.707 322.727 522.324 320.31 525.372 317.263C528.419 314.216 530.836 310.599 532.485 306.618C534.134 302.636 534.983 298.369 534.983 294.06L502.168 294.06H469.354Z" fill="#9183FF"/>
<path d="M337.79 294.06C337.79 298.369 338.639 302.636 340.288 306.617C341.937 310.599 344.354 314.216 347.401 317.263C350.448 320.31 354.065 322.727 358.047 324.376C362.028 326.025 366.295 326.874 370.604 326.874C374.913 326.874 379.18 326.025 383.161 324.376C387.143 322.727 390.76 320.31 393.807 317.263C396.854 314.216 399.271 310.599 400.92 306.617C402.569 302.636 403.418 298.369 403.418 294.06L370.604 294.06H337.79Z" fill="#9183FF"/>
<path d="M369.759 294.06C369.759 289.751 370.608 285.484 372.257 281.503C373.906 277.522 376.323 273.904 379.371 270.857C382.418 267.81 386.035 265.393 390.016 263.744C393.997 262.095 398.264 261.246 402.574 261.246C406.883 261.246 411.15 262.095 415.131 263.744C419.112 265.393 422.73 267.81 425.777 270.857C428.824 273.904 431.241 277.522 432.89 281.503C434.539 285.484 435.388 289.751 435.388 294.06L402.574 294.06H369.759Z" fill="#9183FF"/>
<path d="M435.541 360C435.541 355.691 436.39 351.424 438.039 347.442C439.688 343.461 442.105 339.844 445.152 336.797C448.199 333.75 451.816 331.333 455.797 329.684C459.779 328.034 464.046 327.186 468.355 327.186C472.664 327.186 476.931 328.034 480.912 329.684C484.893 331.333 488.511 333.75 491.558 336.797C494.605 339.844 497.022 343.461 498.671 347.442C500.32 351.424 501.169 355.691 501.169 360L468.355 360H435.541Z" fill="white"/>
<path d="M303.977 360C303.977 355.691 304.826 351.424 306.475 347.442C308.124 343.461 310.541 339.844 313.588 336.797C316.635 333.75 320.253 331.333 324.234 329.684C328.215 328.034 332.482 327.186 336.792 327.186C341.101 327.186 345.368 328.034 349.349 329.684C353.33 331.333 356.948 333.75 359.995 336.797C363.042 339.844 365.459 343.461 367.108 347.442C368.757 351.424 369.606 355.691 369.606 360L336.792 360H303.977Z" fill="white"/>
<path d="M403.572 360C403.572 364.309 404.421 368.576 406.07 372.558C407.719 376.539 410.136 380.156 413.183 383.203C416.23 386.25 419.848 388.667 423.829 390.316C427.81 391.966 432.077 392.814 436.386 392.814C440.695 392.814 444.962 391.966 448.944 390.316C452.925 388.667 456.542 386.25 459.589 383.203C462.636 380.156 465.053 376.539 466.702 372.558C468.352 368.576 469.2 364.309 469.2 360L436.386 360H403.572Z" fill="white"/>
<path d="M272.009 360C272.009 364.309 272.857 368.576 274.506 372.558C276.155 376.539 278.573 380.156 281.62 383.203C284.667 386.25 288.284 388.667 292.265 390.316C296.246 391.966 300.513 392.814 304.823 392.814C309.132 392.814 313.399 391.966 317.38 390.316C321.361 388.667 324.979 386.25 328.026 383.203C331.073 380.156 333.49 376.539 335.139 372.558C336.788 368.576 337.637 364.309 337.637 360L304.823 360H272.009Z" fill="white"/>
<path d="M469.354 360C469.354 364.309 470.203 368.576 471.852 372.558C473.501 376.539 475.918 380.156 478.965 383.203C482.012 386.25 485.63 388.667 489.611 390.316C493.592 391.966 497.859 392.814 502.168 392.814C506.478 392.814 510.745 391.966 514.726 390.316C518.707 388.667 522.324 386.25 525.372 383.203C528.419 380.156 530.836 376.539 532.485 372.558C534.134 368.576 534.983 364.309 534.983 360L502.168 360H469.354Z" fill="#9183FF"/>
<path d="M337.79 360C337.79 364.309 338.639 368.576 340.288 372.558C341.937 376.539 344.354 380.156 347.401 383.203C350.448 386.25 354.065 388.667 358.047 390.316C362.028 391.966 366.295 392.814 370.604 392.814C374.913 392.814 379.18 391.966 383.161 390.316C387.143 388.667 390.76 386.25 393.807 383.203C396.854 380.156 399.271 376.539 400.92 372.558C402.569 368.576 403.418 364.309 403.418 360L370.604 360H337.79Z" fill="#9183FF"/>
<path d="M369.759 360C369.759 355.691 370.608 351.424 372.257 347.442C373.906 343.461 376.323 339.844 379.371 336.797C382.418 333.75 386.035 331.333 390.016 329.684C393.997 328.034 398.264 327.186 402.574 327.186C406.883 327.186 411.15 328.034 415.131 329.684C419.112 331.333 422.73 333.75 425.777 336.797C428.824 339.844 431.241 343.461 432.89 347.442C434.539 351.424 435.388 355.691 435.388 360L402.574 360H369.759Z" fill="#9183FF"/>
</g>
<g opacity="0.3">
<path d="M961.489 32.8143C961.489 28.5051 962.338 24.2381 963.987 20.2569C965.636 16.2757 968.053 12.6583 971.1 9.61121C974.147 6.56414 977.764 4.14707 981.746 2.49801C985.727 0.848946 989.994 0.000183105 994.303 0.000183105C998.612 0.000183105 1002.88 0.848946 1006.86 2.49801C1010.84 4.14708 1014.46 6.56414 1017.51 9.61122C1020.55 12.6583 1022.97 16.2757 1024.62 20.2569C1026.27 24.2381 1027.12 28.5051 1027.12 32.8143L994.303 32.8143H961.489Z" fill="white"/>
<path d="M829.925 32.8143C829.925 28.5051 830.774 24.2381 832.423 20.2569C834.072 16.2757 836.489 12.6583 839.537 9.61121C842.584 6.56414 846.201 4.14707 850.182 2.49801C854.163 0.848946 858.43 0.000183105 862.74 0.000183105C867.049 0.000183105 871.316 0.848946 875.297 2.49801C879.278 4.14708 882.896 6.56414 885.943 9.61122C888.99 12.6583 891.407 16.2757 893.056 20.2569C894.705 24.2381 895.554 28.5051 895.554 32.8143L862.74 32.8143H829.925Z" fill="white"/>
<path d="M929.521 32.8141C929.521 37.1233 930.37 41.3903 932.019 45.3715C933.668 49.3527 936.085 52.9701 939.132 56.0172C942.179 59.0643 945.797 61.4813 949.778 63.1304C953.759 64.7795 958.026 65.6282 962.335 65.6282C966.645 65.6282 970.912 64.7795 974.893 63.1304C978.874 61.4813 982.491 59.0643 985.538 56.0172C988.585 52.9701 991.003 49.3527 992.652 45.3715C994.301 41.3903 995.149 37.1233 995.149 32.8141L962.335 32.8141H929.521Z" fill="white"/>
<path d="M797.957 32.8141C797.957 37.1233 798.805 41.3903 800.455 45.3715C802.104 49.3527 804.521 52.9701 807.568 56.0172C810.615 59.0643 814.232 61.4813 818.213 63.1304C822.195 64.7795 826.462 65.6282 830.771 65.6282C835.08 65.6282 839.347 64.7795 843.328 63.1304C847.309 61.4813 850.927 59.0643 853.974 56.0172C857.021 52.9701 859.438 49.3527 861.087 45.3715C862.736 41.3903 863.585 37.1233 863.585 32.8141L830.771 32.8141H797.957Z" fill="white"/>
<path d="M995.302 32.8141C995.302 37.1233 996.151 41.3903 997.8 45.3715C999.449 49.3527 1001.87 52.9701 1004.91 56.0172C1007.96 59.0643 1011.58 61.4813 1015.56 63.1304C1019.54 64.7795 1023.81 65.6282 1028.12 65.6282C1032.43 65.6282 1036.69 64.7795 1040.67 63.1304C1044.66 61.4813 1048.27 59.0643 1051.32 56.0172C1054.37 52.9701 1056.78 49.3527 1058.43 45.3715C1060.08 41.3903 1060.93 37.1233 1060.93 32.8141L1028.12 32.8141H995.302Z" fill="#9183FF"/>
<path d="M863.739 32.8141C863.739 37.1233 864.588 41.3903 866.237 45.3715C867.886 49.3527 870.303 52.9701 873.35 56.0172C876.397 59.0643 880.014 61.4813 883.996 63.1304C887.977 64.7795 892.244 65.6282 896.553 65.6282C900.862 65.6282 905.129 64.7795 909.11 63.1304C913.092 61.4813 916.709 59.0643 919.756 56.0172C922.803 52.9701 925.22 49.3527 926.869 45.3715C928.518 41.3903 929.367 37.1233 929.367 32.8141L896.553 32.8141H863.739Z" fill="#9183FF"/>
<path d="M895.708 32.8143C895.708 28.5051 896.556 24.2381 898.205 20.2569C899.855 16.2757 902.272 12.6583 905.319 9.61121C908.366 6.56414 911.983 4.14707 915.964 2.49801C919.946 0.848946 924.213 0.000183105 928.522 0.000183105C932.831 0.000183105 937.098 0.848946 941.079 2.49801C945.06 4.14708 948.678 6.56414 951.725 9.61122C954.772 12.6583 957.189 16.2757 958.838 20.2569C960.487 24.2381 961.336 28.5051 961.336 32.8143L928.522 32.8143H895.708Z" fill="#9183FF"/>
<path d="M961.489 96.2418C961.489 91.9326 962.338 87.6656 963.987 83.6844C965.636 79.7032 968.053 76.0858 971.1 73.0387C974.147 69.9916 977.764 67.5746 981.746 65.9255C985.727 64.2764 989.994 63.4277 994.303 63.4277C998.612 63.4277 1002.88 64.2764 1006.86 65.9255C1010.84 67.5746 1014.46 69.9916 1017.51 73.0387C1020.55 76.0858 1022.97 79.7032 1024.62 83.6844C1026.27 87.6656 1027.12 91.9326 1027.12 96.2418L994.303 96.2418H961.489Z" fill="white"/>
<path d="M829.926 96.2415C829.926 91.9323 830.774 87.6653 832.423 83.6841C834.072 79.7029 836.489 76.0855 839.537 73.0385C842.584 69.9914 846.201 67.5743 850.182 65.9253C854.163 64.2762 858.43 63.4274 862.74 63.4274C867.049 63.4274 871.316 64.2762 875.297 65.9253C879.278 67.5743 882.896 69.9914 885.943 73.0385C888.99 76.0855 891.407 79.7029 893.056 83.6841C894.705 87.6653 895.554 91.9323 895.554 96.2416L862.74 96.2415H829.926Z" fill="white"/>
<path d="M929.521 96.2419C929.521 100.551 930.37 104.818 932.019 108.799C933.668 112.78 936.085 116.398 939.132 119.445C942.179 122.492 945.797 124.909 949.778 126.558C953.759 128.207 958.026 129.056 962.335 129.056C966.645 129.056 970.912 128.207 974.893 126.558C978.874 124.909 982.491 122.492 985.538 119.445C988.585 116.398 991.003 112.78 992.652 108.799C994.301 104.818 995.149 100.551 995.149 96.2418L962.335 96.2419H929.521Z" fill="white"/>
<path d="M797.957 96.2419C797.957 100.551 798.805 104.818 800.455 108.799C802.104 112.78 804.521 116.398 807.568 119.445C810.615 122.492 814.232 124.909 818.213 126.558C822.195 128.207 826.462 129.056 830.771 129.056C835.08 129.056 839.347 128.207 843.328 126.558C847.309 124.909 850.927 122.492 853.974 119.445C857.021 116.398 859.438 112.78 861.087 108.799C862.736 104.818 863.585 100.551 863.585 96.2418L830.771 96.2419H797.957Z" fill="white"/>
<path d="M995.302 96.2419C995.302 100.551 996.151 104.818 997.8 108.799C999.449 112.78 1001.87 116.398 1004.91 119.445C1007.96 122.492 1011.58 124.909 1015.56 126.558C1019.54 128.207 1023.81 129.056 1028.12 129.056C1032.43 129.056 1036.69 128.207 1040.67 126.558C1044.66 124.909 1048.27 122.492 1051.32 119.445C1054.37 116.398 1056.78 112.78 1058.43 108.799C1060.08 104.818 1060.93 100.551 1060.93 96.2418L1028.12 96.2419H995.302Z" fill="#9183FF"/>
<path d="M863.739 96.2419C863.739 100.551 864.588 104.818 866.237 108.799C867.886 112.78 870.303 116.398 873.35 119.445C876.397 122.492 880.014 124.909 883.996 126.558C887.977 128.207 892.244 129.056 896.553 129.056C900.862 129.056 905.129 128.207 909.11 126.558C913.092 124.909 916.709 122.492 919.756 119.445C922.803 116.398 925.22 112.78 926.869 108.799C928.518 104.818 929.367 100.551 929.367 96.2418L896.553 96.2419H863.739Z" fill="#9183FF"/>
<path d="M895.708 96.2418C895.708 91.9326 896.556 87.6656 898.206 83.6844C899.855 79.7032 902.272 76.0858 905.319 73.0387C908.366 69.9916 911.983 67.5746 915.964 65.9255C919.946 64.2764 924.213 63.4277 928.522 63.4277C932.831 63.4277 937.098 64.2764 941.079 65.9255C945.06 67.5746 948.678 69.9916 951.725 73.0387C954.772 76.0858 957.189 79.7032 958.838 83.6844C960.487 87.6656 961.336 91.9326 961.336 96.2418L928.522 96.2418H895.708Z" fill="#9183FF"/>
<path d="M961.489 162.181C961.489 157.872 962.338 153.605 963.987 149.624C965.636 145.642 968.053 142.025 971.1 138.978C974.147 135.931 977.764 133.514 981.746 131.865C985.727 130.216 989.994 129.367 994.303 129.367C998.612 129.367 1002.88 130.216 1006.86 131.865C1010.84 133.514 1014.46 135.931 1017.51 138.978C1020.55 142.025 1022.97 145.642 1024.62 149.624C1026.27 153.605 1027.12 157.872 1027.12 162.181L994.303 162.181H961.489Z" fill="white"/>
<path d="M829.926 162.181C829.926 157.872 830.774 153.605 832.423 149.624C834.072 145.642 836.489 142.025 839.537 138.978C842.584 135.931 846.201 133.514 850.182 131.865C854.163 130.216 858.43 129.367 862.74 129.367C867.049 129.367 871.316 130.216 875.297 131.865C879.278 133.514 882.896 135.931 885.943 138.978C888.99 142.025 891.407 145.642 893.056 149.624C894.705 153.605 895.554 157.872 895.554 162.181L862.74 162.181H829.926Z" fill="white"/>
<path d="M929.521 162.181C929.521 166.49 930.37 170.757 932.019 174.738C933.668 178.719 936.085 182.337 939.132 185.384C942.179 188.431 945.797 190.848 949.778 192.497C953.759 194.146 958.026 194.995 962.335 194.995C966.645 194.995 970.912 194.146 974.893 192.497C978.874 190.848 982.491 188.431 985.538 185.384C988.586 182.337 991.003 178.719 992.652 174.738C994.301 170.757 995.149 166.49 995.149 162.181L962.335 162.181H929.521Z" fill="white"/>
<path d="M797.957 162.181C797.957 166.49 798.806 170.757 800.455 174.738C802.104 178.72 804.521 182.337 807.568 185.384C810.615 188.431 814.232 190.848 818.213 192.497C822.195 194.146 826.462 194.995 830.771 194.995C835.08 194.995 839.347 194.146 843.328 192.497C847.31 190.848 850.927 188.431 853.974 185.384C857.021 182.337 859.438 178.72 861.087 174.738C862.736 170.757 863.585 166.49 863.585 162.181L830.771 162.181H797.957Z" fill="white"/>
<path d="M995.302 162.181C995.302 166.49 996.151 170.757 997.8 174.738C999.449 178.72 1001.87 182.337 1004.91 185.384C1007.96 188.431 1011.58 190.848 1015.56 192.497C1019.54 194.146 1023.81 194.995 1028.12 194.995C1032.43 194.995 1036.69 194.146 1040.67 192.497C1044.66 190.848 1048.27 188.431 1051.32 185.384C1054.37 182.337 1056.78 178.72 1058.43 174.738C1060.08 170.757 1060.93 166.49 1060.93 162.181L1028.12 162.181H995.302Z" fill="#9183FF"/>
<path d="M863.739 162.181C863.739 166.49 864.588 170.757 866.237 174.738C867.886 178.719 870.303 182.337 873.35 185.384C876.397 188.431 880.015 190.848 883.996 192.497C887.977 194.146 892.244 194.995 896.553 194.995C900.862 194.995 905.129 194.146 909.111 192.497C913.092 190.848 916.709 188.431 919.756 185.384C922.803 182.337 925.22 178.719 926.869 174.738C928.518 170.757 929.367 166.49 929.367 162.181L896.553 162.181H863.739Z" fill="#9183FF"/>
<path d="M895.708 162.181C895.708 157.872 896.556 153.605 898.206 149.624C899.855 145.642 902.272 142.025 905.319 138.978C908.366 135.931 911.983 133.514 915.964 131.865C919.946 130.216 924.213 129.367 928.522 129.367C932.831 129.367 937.098 130.216 941.079 131.865C945.06 133.514 948.678 135.931 951.725 138.978C954.772 142.025 957.189 145.642 958.838 149.624C960.487 153.605 961.336 157.872 961.336 162.181L928.522 162.181H895.708Z" fill="#9183FF"/>
<path d="M961.489 228.121C961.489 223.811 962.338 219.544 963.987 215.563C965.636 211.582 968.053 207.965 971.1 204.918C974.147 201.871 977.764 199.453 981.746 197.804C985.727 196.155 989.994 195.307 994.303 195.307C998.612 195.307 1002.88 196.155 1006.86 197.804C1010.84 199.453 1014.46 201.871 1017.51 204.918C1020.55 207.965 1022.97 211.582 1024.62 215.563C1026.27 219.544 1027.12 223.811 1027.12 228.121L994.303 228.121H961.489Z" fill="white"/>
<path d="M829.926 228.121C829.926 223.811 830.774 219.544 832.423 215.563C834.072 211.582 836.49 207.965 839.537 204.918C842.584 201.871 846.201 199.453 850.182 197.804C854.163 196.155 858.43 195.307 862.74 195.307C867.049 195.307 871.316 196.155 875.297 197.804C879.278 199.453 882.896 201.871 885.943 204.918C888.99 207.965 891.407 211.582 893.056 215.563C894.705 219.544 895.554 223.811 895.554 228.121L862.74 228.121H829.926Z" fill="white"/>
<path d="M929.521 228.121C929.521 232.43 930.37 236.697 932.019 240.678C933.668 244.66 936.085 248.277 939.132 251.324C942.179 254.371 945.797 256.788 949.778 258.437C953.759 260.086 958.026 260.935 962.335 260.935C966.645 260.935 970.912 260.086 974.893 258.437C978.874 256.788 982.491 254.371 985.538 251.324C988.586 248.277 991.003 244.66 992.652 240.678C994.301 236.697 995.15 232.43 995.15 228.121L962.335 228.121H929.521Z" fill="white"/>
<path d="M797.957 228.121C797.957 232.43 798.806 236.697 800.455 240.678C802.104 244.66 804.521 248.277 807.568 251.324C810.615 254.371 814.232 256.788 818.214 258.437C822.195 260.086 826.462 260.935 830.771 260.935C835.08 260.935 839.347 260.086 843.328 258.437C847.31 256.788 850.927 254.371 853.974 251.324C857.021 248.277 859.438 244.66 861.087 240.678C862.736 236.697 863.585 232.43 863.585 228.121L830.771 228.121H797.957Z" fill="white"/>
<path d="M995.303 228.121C995.303 232.43 996.151 236.697 997.8 240.678C999.449 244.66 1001.87 248.277 1004.91 251.324C1007.96 254.371 1011.58 256.788 1015.56 258.437C1019.54 260.086 1023.81 260.935 1028.12 260.935C1032.43 260.935 1036.69 260.086 1040.67 258.437C1044.66 256.788 1048.27 254.371 1051.32 251.324C1054.37 248.277 1056.78 244.66 1058.43 240.678C1060.08 236.697 1060.93 232.43 1060.93 228.121L1028.12 228.121H995.303Z" fill="#9183FF"/>
<path d="M863.739 228.121C863.739 232.43 864.588 236.697 866.237 240.678C867.886 244.66 870.303 248.277 873.35 251.324C876.397 254.371 880.015 256.788 883.996 258.437C887.977 260.086 892.244 260.935 896.553 260.935C900.862 260.935 905.129 260.086 909.111 258.437C913.092 256.788 916.709 254.371 919.756 251.324C922.803 248.277 925.22 244.66 926.869 240.678C928.519 236.697 929.367 232.43 929.367 228.121L896.553 228.121H863.739Z" fill="#9183FF"/>
<path d="M895.708 228.121C895.708 223.811 896.556 219.544 898.206 215.563C899.855 211.582 902.272 207.965 905.319 204.918C908.366 201.871 911.983 199.453 915.964 197.804C919.946 196.155 924.213 195.307 928.522 195.307C932.831 195.307 937.098 196.155 941.079 197.804C945.06 199.453 948.678 201.871 951.725 204.918C954.772 207.965 957.189 211.582 958.838 215.563C960.487 219.544 961.336 223.811 961.336 228.121L928.522 228.121H895.708Z" fill="#9183FF"/>
<path d="M961.489 294.06C961.489 289.751 962.338 285.484 963.987 281.503C965.636 277.522 968.053 273.904 971.1 270.857C974.147 267.81 977.764 265.393 981.746 263.744C985.727 262.095 989.994 261.246 994.303 261.246C998.612 261.246 1002.88 262.095 1006.86 263.744C1010.84 265.393 1014.46 267.81 1017.51 270.857C1020.55 273.904 1022.97 277.522 1024.62 281.503C1026.27 285.484 1027.12 289.751 1027.12 294.06L994.303 294.06H961.489Z" fill="white"/>
<path d="M829.926 294.06C829.926 289.751 830.774 285.484 832.423 281.503C834.072 277.522 836.489 273.904 839.537 270.857C842.584 267.81 846.201 265.393 850.182 263.744C854.163 262.095 858.43 261.246 862.74 261.246C867.049 261.246 871.316 262.095 875.297 263.744C879.278 265.393 882.896 267.81 885.943 270.857C888.99 273.904 891.407 277.522 893.056 281.503C894.705 285.484 895.554 289.751 895.554 294.06L862.74 294.06H829.926Z" fill="white"/>
<path d="M929.521 294.06C929.521 298.369 930.37 302.636 932.019 306.618C933.668 310.599 936.085 314.216 939.132 317.263C942.179 320.31 945.797 322.727 949.778 324.377C953.759 326.026 958.026 326.874 962.335 326.874C966.645 326.874 970.912 326.026 974.893 324.377C978.874 322.727 982.491 320.31 985.538 317.263C988.586 314.216 991.003 310.599 992.652 306.618C994.301 302.636 995.149 298.369 995.149 294.06L962.335 294.06H929.521Z" fill="white"/>
<path d="M797.957 294.06C797.957 298.369 798.806 302.636 800.455 306.618C802.104 310.599 804.521 314.216 807.568 317.263C810.615 320.31 814.232 322.727 818.213 324.377C822.195 326.026 826.462 326.874 830.771 326.874C835.08 326.874 839.347 326.026 843.328 324.377C847.31 322.727 850.927 320.31 853.974 317.263C857.021 314.216 859.438 310.599 861.087 306.618C862.736 302.636 863.585 298.369 863.585 294.06L830.771 294.06H797.957Z" fill="white"/>
<path d="M995.302 294.06C995.302 298.369 996.151 302.636 997.8 306.618C999.449 310.599 1001.87 314.216 1004.91 317.263C1007.96 320.31 1011.58 322.727 1015.56 324.377C1019.54 326.026 1023.81 326.874 1028.12 326.874C1032.43 326.874 1036.69 326.026 1040.67 324.377C1044.66 322.727 1048.27 320.31 1051.32 317.263C1054.37 314.216 1056.78 310.599 1058.43 306.618C1060.08 302.636 1060.93 298.369 1060.93 294.06L1028.12 294.06H995.302Z" fill="#9183FF"/>
<path d="M863.739 294.06C863.739 298.369 864.588 302.636 866.237 306.617C867.886 310.599 870.303 314.216 873.35 317.263C876.397 320.31 880.015 322.727 883.996 324.376C887.977 326.025 892.244 326.874 896.553 326.874C900.862 326.874 905.129 326.025 909.111 324.376C913.092 322.727 916.709 320.31 919.756 317.263C922.803 314.216 925.22 310.599 926.869 306.617C928.518 302.636 929.367 298.369 929.367 294.06L896.553 294.06H863.739Z" fill="#9183FF"/>
<path d="M895.708 294.06C895.708 289.751 896.556 285.484 898.206 281.503C899.855 277.522 902.272 273.904 905.319 270.857C908.366 267.81 911.983 265.393 915.964 263.744C919.946 262.095 924.213 261.246 928.522 261.246C932.831 261.246 937.098 262.095 941.079 263.744C945.06 265.393 948.678 267.81 951.725 270.857C954.772 273.904 957.189 277.522 958.838 281.503C960.487 285.484 961.336 289.751 961.336 294.06L928.522 294.06H895.708Z" fill="#9183FF"/>
<path d="M961.489 360C961.489 355.691 962.338 351.424 963.987 347.442C965.636 343.461 968.053 339.844 971.1 336.797C974.147 333.75 977.764 331.333 981.746 329.684C985.727 328.034 989.994 327.186 994.303 327.186C998.612 327.186 1002.88 328.034 1006.86 329.684C1010.84 331.333 1014.46 333.75 1017.51 336.797C1020.55 339.844 1022.97 343.461 1024.62 347.442C1026.27 351.424 1027.12 355.691 1027.12 360L994.303 360H961.489Z" fill="white"/>
<path d="M829.926 360C829.926 355.691 830.774 351.424 832.423 347.442C834.072 343.461 836.489 339.844 839.537 336.797C842.584 333.75 846.201 331.333 850.182 329.684C854.163 328.034 858.43 327.186 862.74 327.186C867.049 327.186 871.316 328.034 875.297 329.684C879.278 331.333 882.896 333.75 885.943 336.797C888.99 339.844 891.407 343.461 893.056 347.442C894.705 351.424 895.554 355.691 895.554 360L862.74 360H829.926Z" fill="white"/>
<path d="M929.52 360C929.52 364.309 930.369 368.576 932.018 372.558C933.667 376.539 936.084 380.156 939.131 383.203C942.178 386.25 945.796 388.667 949.777 390.316C953.758 391.966 958.025 392.814 962.334 392.814C966.644 392.814 970.911 391.966 974.892 390.316C978.873 388.667 982.49 386.25 985.538 383.203C988.585 380.156 991.002 376.539 992.651 372.558C994.3 368.576 995.149 364.309 995.149 360L962.334 360H929.52Z" fill="white"/>
<path d="M797.957 360C797.957 364.309 798.806 368.576 800.455 372.558C802.104 376.539 804.521 380.156 807.568 383.203C810.615 386.25 814.232 388.667 818.213 390.316C822.195 391.966 826.462 392.814 830.771 392.814C835.08 392.814 839.347 391.966 843.328 390.316C847.31 388.667 850.927 386.25 853.974 383.203C857.021 380.156 859.438 376.539 861.087 372.558C862.736 368.576 863.585 364.309 863.585 360L830.771 360H797.957Z" fill="white"/>
<path d="M995.303 360C995.303 364.309 996.151 368.576 997.8 372.558C999.449 376.539 1001.87 380.156 1004.91 383.203C1007.96 386.25 1011.58 388.667 1015.56 390.316C1019.54 391.966 1023.81 392.814 1028.12 392.814C1032.43 392.814 1036.69 391.966 1040.67 390.316C1044.66 388.667 1048.27 386.25 1051.32 383.203C1054.37 380.156 1056.78 376.539 1058.43 372.558C1060.08 368.576 1060.93 364.309 1060.93 360L1028.12 360H995.303Z" fill="#9183FF"/>
<path d="M863.738 360C863.738 364.309 864.587 368.576 866.236 372.558C867.885 376.539 870.302 380.156 873.349 383.203C876.396 386.25 880.014 388.667 883.995 390.316C887.976 391.966 892.243 392.814 896.552 392.814C900.861 392.814 905.128 391.966 909.11 390.316C913.091 388.667 916.708 386.25 919.755 383.203C922.802 380.156 925.219 376.539 926.869 372.558C928.518 368.576 929.366 364.309 929.366 360L896.552 360H863.738Z" fill="#9183FF"/>
<path d="M895.708 360C895.708 355.691 896.556 351.424 898.206 347.442C899.855 343.461 902.272 339.844 905.319 336.797C908.366 333.75 911.983 331.333 915.964 329.684C919.946 328.034 924.213 327.186 928.522 327.186C932.831 327.186 937.098 328.034 941.079 329.684C945.06 331.333 948.678 333.75 951.725 336.797C954.772 339.844 957.189 343.461 958.838 347.442C960.487 351.424 961.336 355.691 961.336 360L928.522 360H895.708Z" fill="#9183FF"/>
</g>
<rect width="921" height="400" fill="url(#paint0_linear_703_661)"/>
<defs>
<linearGradient id="paint0_linear_703_661" x1="914.801" y1="200" x2="-7.1595e-08" y2="200" gradientUnits="userSpaceOnUse">
<stop stop-color="#342B77" stop-opacity="0"/>
<stop offset="1" stop-color="#342B77"/>
</linearGradient>
</defs>
</svg>
