<svg width="717" height="198" viewBox="0 0 717 198" fill="none" xmlns="http://www.w3.org/2000/svg">
<g opacity="0.1">
<path fill-rule="evenodd" clip-rule="evenodd" d="M501.277 16.1655C501.116 17.0916 500.816 18.3073 500.61 18.8674C500.404 19.4275 500.12 20.2762 499.978 20.7535C499.533 22.2484 497.264 26.7466 495.976 28.6878C490.245 37.3257 480.762 43.9183 471.682 45.5775L470 45.885L471.366 46.3075C472.117 46.5401 473.133 46.8054 473.622 46.8971C475.125 47.179 480.479 49.3528 482.043 50.3158C482.315 50.4836 483.096 50.956 483.778 51.3653C492.257 56.4552 499.254 66.226 501.274 75.7954C501.519 76.9558 501.727 77.8377 501.737 77.7559C501.817 77.0684 503.289 71.6964 503.456 71.4839C503.573 71.3334 503.749 70.8787 503.846 70.4735C503.943 70.0681 504.609 68.5614 505.325 67.1253C509.091 59.5694 515.325 53.338 522.828 49.6287C525.391 48.3617 529.537 46.8034 530.431 46.7714C530.682 46.7622 531.501 46.554 532.251 46.3085L533.615 45.8622L532.251 45.678C528.989 45.2374 522.606 42.6151 519.11 40.2792C517.143 38.9646 513.524 36.0312 512.314 34.7706C507.661 29.9245 504.015 23.4365 502.482 17.279C501.747 14.3238 501.618 14.2048 501.277 16.1655Z" fill="#9183FF"/>
<path fill-rule="evenodd" clip-rule="evenodd" d="M564.822 16.1655C564.66 17.0916 564.36 18.3073 564.155 18.8674C563.949 19.4275 563.665 20.2762 563.523 20.7535C563.078 22.2484 560.809 26.7466 559.521 28.6878C553.79 37.3257 544.306 43.9183 535.227 45.5775L533.545 45.885L534.911 46.3075C535.662 46.5401 536.678 46.8054 537.167 46.8971C538.67 47.179 544.024 49.3528 545.588 50.3158C545.86 50.4836 546.641 50.956 547.323 51.3653C555.802 56.4552 562.799 66.226 564.819 75.7954C565.064 76.9558 565.272 77.8377 565.282 77.7559C565.362 77.0684 566.834 71.6964 567.001 71.4839C567.118 71.3334 567.294 70.8787 567.391 70.4735C567.488 70.0681 568.153 68.5614 568.87 67.1253C572.636 59.5694 578.87 53.338 586.373 49.6287C588.936 48.3617 593.082 46.8034 593.976 46.7714C594.227 46.7622 595.046 46.554 595.796 46.3085L597.16 45.8622L595.796 45.678C592.534 45.2374 586.151 42.6151 582.655 40.2792C580.688 38.9646 577.069 36.0312 575.859 34.7706C571.206 29.9245 567.56 23.4365 566.027 17.279C565.292 14.3238 565.163 14.2048 564.822 16.1655Z" fill="#9183FF"/>
<path fill-rule="evenodd" clip-rule="evenodd" d="M501.277 -46.634C501.116 -45.708 500.816 -44.4923 500.61 -43.9322C500.404 -43.3721 500.12 -42.5234 499.978 -42.0461C499.533 -40.5512 497.264 -36.053 495.976 -34.1118C490.245 -25.4739 480.762 -18.8813 471.682 -17.222L470 -16.9146L471.366 -16.4921C472.117 -16.2595 473.133 -15.9942 473.622 -15.9024C475.125 -15.6205 480.479 -13.4468 482.043 -12.4838C482.315 -12.3159 483.096 -11.8436 483.778 -11.4342C492.257 -6.34439 499.254 3.42639 501.274 12.9958C501.519 14.1562 501.727 15.0382 501.737 14.9563C501.817 14.2688 503.289 8.89681 503.456 8.68432C503.573 8.53382 503.749 8.07909 503.846 7.67395C503.943 7.26855 504.609 5.76179 505.325 4.32569C509.091 -3.2302 515.325 -9.46157 522.828 -13.1708C525.391 -14.4378 529.537 -15.9962 530.431 -16.0282C530.682 -16.0373 531.501 -16.2456 532.251 -16.4911L533.615 -16.9374L532.251 -17.1216C528.989 -17.5622 522.606 -20.1845 519.11 -22.5204C517.143 -23.835 513.524 -26.7684 512.314 -28.029C507.661 -32.8751 504.015 -39.363 502.482 -45.5205C501.747 -48.4758 501.618 -48.5948 501.277 -46.634Z" fill="#9183FF"/>
<path fill-rule="evenodd" clip-rule="evenodd" d="M564.822 -46.634C564.66 -45.708 564.36 -44.4923 564.155 -43.9322C563.949 -43.3721 563.665 -42.5234 563.523 -42.0461C563.078 -40.5512 560.809 -36.053 559.521 -34.1118C553.79 -25.4739 544.306 -18.8813 535.227 -17.222L533.545 -16.9146L534.911 -16.4921C535.662 -16.2595 536.678 -15.9942 537.167 -15.9024C538.67 -15.6205 544.024 -13.4468 545.588 -12.4838C545.86 -12.3159 546.641 -11.8436 547.323 -11.4342C555.802 -6.34439 562.799 3.42639 564.819 12.9958C565.064 14.1562 565.272 15.0382 565.282 14.9563C565.362 14.2688 566.834 8.89681 567.001 8.68432C567.118 8.53382 567.294 8.07909 567.391 7.67395C567.488 7.26855 568.153 5.76179 568.87 4.32569C572.636 -3.2302 578.87 -9.46157 586.373 -13.1708C588.936 -14.4378 593.082 -15.9962 593.976 -16.0282C594.227 -16.0373 595.046 -16.2456 595.796 -16.4911L597.16 -16.9374L595.796 -17.1216C592.534 -17.5622 586.151 -20.1845 582.655 -22.5204C580.688 -23.835 577.069 -26.7684 575.859 -28.029C571.206 -32.8751 567.56 -39.363 566.027 -45.5205C565.292 -48.4758 565.163 -48.5948 564.822 -46.634Z" fill="#9183FF"/>
<path fill-rule="evenodd" clip-rule="evenodd" d="M628.118 16.1655C627.956 17.0916 627.656 18.3073 627.451 18.8674C627.245 19.4275 626.961 20.2762 626.819 20.7535C626.374 22.2484 624.105 26.7466 622.817 28.6878C617.086 37.3257 607.602 43.9183 598.523 45.5775L596.841 45.885L598.207 46.3075C598.958 46.5401 599.974 46.8054 600.463 46.8971C601.966 47.179 607.32 49.3528 608.884 50.3158C609.156 50.4836 609.937 50.956 610.619 51.3653C619.098 56.4552 626.095 66.226 628.115 75.7954C628.36 76.9558 628.568 77.8377 628.578 77.7559C628.658 77.0684 630.13 71.6964 630.297 71.4839C630.414 71.3334 630.59 70.8787 630.687 70.4735C630.784 70.0681 631.449 68.5614 632.166 67.1253C635.932 59.5694 642.166 53.338 649.669 49.6287C652.232 48.3617 656.378 46.8034 657.272 46.7714C657.523 46.7622 658.342 46.554 659.092 46.3085L660.456 45.8622L659.092 45.678C655.83 45.2374 649.447 42.6151 645.951 40.2792C643.984 38.9646 640.365 36.0312 639.155 34.7706C634.502 29.9245 630.856 23.4365 629.323 17.279C628.588 14.3238 628.459 14.2048 628.118 16.1655Z" fill="#9183FF"/>
<path fill-rule="evenodd" clip-rule="evenodd" d="M691.662 16.1655C691.5 17.0916 691.2 18.3073 690.995 18.8674C690.789 19.4275 690.505 20.2762 690.363 20.7535C689.918 22.2484 687.649 26.7466 686.361 28.6878C680.63 37.3257 671.146 43.9183 662.067 45.5775L660.385 45.885L661.751 46.3075C662.502 46.5401 663.518 46.8054 664.007 46.8971C665.51 47.179 670.864 49.3528 672.428 50.3158C672.7 50.4836 673.481 50.956 674.163 51.3653C682.642 56.4552 689.639 66.226 691.659 75.7954C691.904 76.9558 692.112 77.8377 692.122 77.7559C692.202 77.0684 693.674 71.6964 693.84 71.4839C693.958 71.3334 694.134 70.8787 694.231 70.4735C694.328 70.0681 694.993 68.5614 695.71 67.1253C699.476 59.5694 705.71 53.338 713.213 49.6287C715.776 48.3617 719.922 46.8034 720.816 46.7714C721.067 46.7622 721.886 46.554 722.636 46.3085L724 45.8622L722.636 45.678C719.374 45.2374 712.99 42.6151 709.495 40.2792C707.528 38.9646 703.909 36.0312 702.699 34.7706C698.046 29.9245 694.4 23.4365 692.867 17.279C692.132 14.3238 692.003 14.2048 691.662 16.1655Z" fill="#9183FF"/>
<path fill-rule="evenodd" clip-rule="evenodd" d="M628.117 -46.634C627.956 -45.708 627.656 -44.4923 627.451 -43.9322C627.245 -43.3721 626.961 -42.5234 626.819 -42.0461C626.374 -40.5512 624.105 -36.053 622.817 -34.1118C617.085 -25.4739 607.602 -18.8813 598.523 -17.222L596.841 -16.9146L598.207 -16.4921C598.958 -16.2595 599.974 -15.9942 600.463 -15.9024C601.966 -15.6205 607.32 -13.4468 608.883 -12.4838C609.156 -12.3159 609.937 -11.8436 610.619 -11.4342C619.098 -6.34439 626.095 3.42639 628.115 12.9958C628.36 14.1562 628.568 15.0382 628.578 14.9563C628.658 14.2688 630.13 8.89681 630.296 8.68432C630.414 8.53382 630.59 8.07909 630.687 7.67395C630.784 7.26855 631.449 5.76179 632.165 4.32569C635.932 -3.2302 642.166 -9.46157 649.669 -13.1708C652.232 -14.4378 656.378 -15.9962 657.272 -16.0282C657.523 -16.0373 658.342 -16.2456 659.092 -16.4911L660.456 -16.9374L659.092 -17.1216C655.83 -17.5622 649.446 -20.1845 645.951 -22.5204C643.984 -23.835 640.364 -26.7684 639.154 -28.029C634.502 -32.8751 630.856 -39.363 629.323 -45.5205C628.588 -48.4758 628.459 -48.5948 628.117 -46.634Z" fill="#9183FF"/>
<path fill-rule="evenodd" clip-rule="evenodd" d="M691.661 -46.634C691.5 -45.708 691.2 -44.4923 690.995 -43.9322C690.789 -43.3721 690.505 -42.5234 690.363 -42.0461C689.918 -40.5512 687.649 -36.053 686.361 -34.1118C680.629 -25.4739 671.146 -18.8813 662.067 -17.222L660.385 -16.9146L661.751 -16.4921C662.502 -16.2595 663.518 -15.9942 664.007 -15.9024C665.51 -15.6205 670.864 -13.4468 672.427 -12.4838C672.7 -12.3159 673.481 -11.8436 674.163 -11.4342C682.642 -6.34439 689.639 3.42639 691.659 12.9958C691.904 14.1562 692.112 15.0382 692.122 14.9563C692.202 14.2688 693.674 8.89681 693.84 8.68432C693.958 8.53382 694.134 8.07909 694.231 7.67395C694.328 7.26855 694.993 5.76179 695.709 4.32569C699.476 -3.2302 705.71 -9.46157 713.213 -13.1708C715.776 -14.4378 719.922 -15.9962 720.816 -16.0282C721.067 -16.0373 721.886 -16.2456 722.636 -16.4911L724 -16.9374L722.636 -17.1216C719.374 -17.5622 712.99 -20.1845 709.495 -22.5204C707.528 -23.835 703.908 -26.7684 702.698 -28.029C698.046 -32.8751 694.4 -39.363 692.867 -45.5205C692.132 -48.4758 692.003 -48.5948 691.661 -46.634Z" fill="#9183FF"/>
<path fill-rule="evenodd" clip-rule="evenodd" d="M501.277 141.765C501.116 142.691 500.816 143.907 500.61 144.467C500.404 145.027 500.12 145.876 499.978 146.353C499.533 147.848 497.264 152.346 495.976 154.287C490.245 162.925 480.762 169.518 471.682 171.177L470 171.485L471.366 171.907C472.117 172.14 473.133 172.405 473.622 172.497C475.125 172.779 480.479 174.952 482.043 175.915C482.315 176.083 483.096 176.556 483.778 176.965C492.257 182.055 499.254 191.826 501.274 201.395C501.519 202.555 501.727 203.437 501.737 203.356C501.817 202.668 503.289 197.296 503.456 197.083C503.573 196.933 503.749 196.478 503.846 196.073C503.943 195.668 504.609 194.161 505.325 192.725C509.091 185.169 515.325 178.938 522.828 175.228C525.391 173.961 529.537 172.403 530.431 172.371C530.682 172.362 531.501 172.154 532.251 171.908L533.615 171.462L532.251 171.278C528.989 170.837 522.606 168.215 519.11 165.879C517.143 164.564 513.524 161.631 512.314 160.37C507.661 155.524 504.015 149.036 502.482 142.879C501.747 139.923 501.618 139.804 501.277 141.765Z" fill="#9183FF"/>
<path fill-rule="evenodd" clip-rule="evenodd" d="M564.822 141.765C564.66 142.691 564.36 143.907 564.155 144.467C563.949 145.027 563.665 145.876 563.523 146.353C563.078 147.848 560.809 152.346 559.521 154.287C553.79 162.925 544.306 169.518 535.227 171.177L533.545 171.485L534.911 171.907C535.662 172.14 536.678 172.405 537.167 172.497C538.67 172.779 544.024 174.952 545.588 175.915C545.86 176.083 546.641 176.556 547.323 176.965C555.802 182.055 562.799 191.826 564.819 201.395C565.064 202.555 565.272 203.437 565.282 203.356C565.362 202.668 566.834 197.296 567.001 197.083C567.118 196.933 567.294 196.478 567.391 196.073C567.488 195.668 568.153 194.161 568.87 192.725C572.636 185.169 578.87 178.938 586.373 175.228C588.936 173.961 593.082 172.403 593.976 172.371C594.227 172.362 595.046 172.154 595.796 171.908L597.16 171.462L595.796 171.278C592.534 170.837 586.151 168.215 582.655 165.879C580.688 164.564 577.069 161.631 575.859 160.37C571.206 155.524 567.56 149.036 566.027 142.879C565.292 139.923 565.163 139.804 564.822 141.765Z" fill="#9183FF"/>
<path fill-rule="evenodd" clip-rule="evenodd" d="M501.277 78.9653C501.116 79.8914 500.816 81.1071 500.61 81.6672C500.404 82.2273 500.12 83.076 499.978 83.5533C499.533 85.0482 497.264 89.5464 495.976 91.4876C490.245 100.125 480.762 106.718 471.682 108.377L470 108.685L471.366 109.107C472.117 109.34 473.133 109.605 473.622 109.697C475.125 109.979 480.479 112.153 482.043 113.116C482.315 113.283 483.096 113.756 483.778 114.165C492.257 119.255 499.254 129.026 501.274 138.595C501.519 139.756 501.727 140.638 501.737 140.556C501.817 139.868 503.289 134.496 503.456 134.284C503.573 134.133 503.749 133.678 503.846 133.273C503.943 132.868 504.609 131.361 505.325 129.925C509.091 122.369 515.325 116.138 522.828 112.429C525.391 111.162 529.537 109.603 530.431 109.571C530.682 109.562 531.501 109.354 532.251 109.108L533.615 108.662L532.251 108.478C528.989 108.037 522.606 105.415 519.11 103.079C517.143 101.764 513.524 98.831 512.314 97.5704C507.661 92.7243 504.015 86.2363 502.482 80.0788C501.747 77.1236 501.618 77.0046 501.277 78.9653Z" fill="#9183FF"/>
<path fill-rule="evenodd" clip-rule="evenodd" d="M564.822 78.9653C564.66 79.8914 564.36 81.1071 564.155 81.6672C563.949 82.2273 563.665 83.076 563.523 83.5533C563.078 85.0482 560.809 89.5464 559.521 91.4876C553.79 100.125 544.306 106.718 535.227 108.377L533.545 108.685L534.911 109.107C535.662 109.34 536.678 109.605 537.167 109.697C538.67 109.979 544.024 112.153 545.588 113.116C545.86 113.283 546.641 113.756 547.323 114.165C555.802 119.255 562.799 129.026 564.819 138.595C565.064 139.756 565.272 140.638 565.282 140.556C565.362 139.868 566.834 134.496 567.001 134.284C567.118 134.133 567.294 133.678 567.391 133.273C567.488 132.868 568.153 131.361 568.87 129.925C572.636 122.369 578.87 116.138 586.373 112.429C588.936 111.162 593.082 109.603 593.976 109.571C594.227 109.562 595.046 109.354 595.796 109.108L597.16 108.662L595.796 108.478C592.534 108.037 586.151 105.415 582.655 103.079C580.688 101.764 577.069 98.831 575.859 97.5704C571.206 92.7243 567.56 86.2363 566.027 80.0788C565.292 77.1236 565.163 77.0046 564.822 78.9653Z" fill="#9183FF"/>
<path fill-rule="evenodd" clip-rule="evenodd" d="M628.118 141.765C627.956 142.691 627.656 143.907 627.451 144.467C627.245 145.027 626.961 145.876 626.819 146.353C626.374 147.848 624.105 152.346 622.817 154.287C617.086 162.925 607.602 169.518 598.523 171.177L596.841 171.485L598.207 171.907C598.958 172.14 599.974 172.405 600.463 172.497C601.966 172.779 607.32 174.952 608.884 175.915C609.156 176.083 609.937 176.556 610.619 176.965C619.098 182.055 626.095 191.826 628.115 201.395C628.36 202.555 628.568 203.437 628.578 203.356C628.658 202.668 630.13 197.296 630.297 197.083C630.414 196.933 630.59 196.478 630.687 196.073C630.784 195.668 631.449 194.161 632.166 192.725C635.932 185.169 642.166 178.938 649.669 175.228C652.232 173.961 656.378 172.403 657.272 172.371C657.523 172.362 658.342 172.154 659.092 171.908L660.456 171.462L659.092 171.278C655.83 170.837 649.447 168.215 645.951 165.879C643.984 164.564 640.365 161.631 639.155 160.37C634.502 155.524 630.856 149.036 629.323 142.879C628.588 139.923 628.459 139.804 628.118 141.765Z" fill="#9183FF"/>
<path fill-rule="evenodd" clip-rule="evenodd" d="M691.662 141.765C691.5 142.691 691.2 143.907 690.995 144.467C690.789 145.027 690.505 145.876 690.363 146.353C689.918 147.848 687.649 152.346 686.361 154.287C680.63 162.925 671.146 169.518 662.067 171.177L660.385 171.485L661.751 171.907C662.502 172.14 663.518 172.405 664.007 172.497C665.51 172.779 670.864 174.952 672.428 175.915C672.7 176.083 673.481 176.556 674.163 176.965C682.642 182.055 689.639 191.826 691.659 201.395C691.904 202.555 692.112 203.437 692.122 203.356C692.202 202.668 693.674 197.296 693.84 197.083C693.958 196.933 694.134 196.478 694.231 196.073C694.328 195.668 694.993 194.161 695.71 192.725C699.476 185.169 705.71 178.938 713.213 175.228C715.776 173.961 719.922 172.403 720.816 172.371C721.067 172.362 721.886 172.154 722.636 171.908L724 171.462L722.636 171.278C719.374 170.837 712.99 168.215 709.495 165.879C707.528 164.564 703.909 161.631 702.699 160.37C698.046 155.524 694.4 149.036 692.867 142.879C692.132 139.923 692.003 139.804 691.662 141.765Z" fill="#9183FF"/>
<path fill-rule="evenodd" clip-rule="evenodd" d="M628.117 78.9653C627.956 79.8914 627.656 81.1071 627.451 81.6672C627.245 82.2273 626.961 83.076 626.819 83.5533C626.374 85.0482 624.105 89.5464 622.817 91.4876C617.085 100.125 607.602 106.718 598.523 108.377L596.841 108.685L598.207 109.107C598.958 109.34 599.974 109.605 600.463 109.697C601.966 109.979 607.32 112.153 608.883 113.116C609.156 113.283 609.937 113.756 610.619 114.165C619.098 119.255 626.095 129.026 628.115 138.595C628.36 139.756 628.568 140.638 628.578 140.556C628.658 139.868 630.13 134.496 630.296 134.284C630.414 134.133 630.59 133.678 630.687 133.273C630.784 132.868 631.449 131.361 632.165 129.925C635.932 122.369 642.166 116.138 649.669 112.429C652.232 111.162 656.378 109.603 657.272 109.571C657.523 109.562 658.342 109.354 659.092 109.108L660.456 108.662L659.092 108.478C655.83 108.037 649.446 105.415 645.951 103.079C643.984 101.764 640.364 98.831 639.154 97.5704C634.502 92.7243 630.856 86.2363 629.323 80.0788C628.588 77.1236 628.459 77.0046 628.117 78.9653Z" fill="#9183FF"/>
<path fill-rule="evenodd" clip-rule="evenodd" d="M691.661 78.9653C691.5 79.8914 691.2 81.1071 690.995 81.6672C690.789 82.2273 690.505 83.076 690.363 83.5533C689.918 85.0482 687.649 89.5464 686.361 91.4876C680.629 100.125 671.146 106.718 662.067 108.377L660.385 108.685L661.751 109.107C662.502 109.34 663.518 109.605 664.007 109.697C665.51 109.979 670.864 112.153 672.427 113.116C672.7 113.283 673.481 113.756 674.163 114.165C682.642 119.255 689.639 129.026 691.659 138.595C691.904 139.756 692.112 140.638 692.122 140.556C692.202 139.868 693.674 134.496 693.84 134.284C693.958 134.133 694.134 133.678 694.231 133.273C694.328 132.868 694.993 131.361 695.709 129.925C699.476 122.369 705.71 116.138 713.213 112.429C715.776 111.162 719.922 109.603 720.816 109.571C721.067 109.562 721.886 109.354 722.636 109.108L724 108.662L722.636 108.478C719.374 108.037 712.99 105.415 709.495 103.079C707.528 101.764 703.908 98.831 702.698 97.5704C698.046 92.7243 694.4 86.2363 692.867 80.0788C692.132 77.1236 692.003 77.0046 691.661 78.9653Z" fill="#9183FF"/>
</g>
<g opacity="0.1">
<path fill-rule="evenodd" clip-rule="evenodd" d="M285.277 16.1655C285.116 17.0916 284.816 18.3073 284.61 18.8674C284.404 19.4275 284.12 20.2762 283.978 20.7535C283.533 22.2484 281.264 26.7466 279.976 28.6878C274.245 37.3257 264.762 43.9183 255.682 45.5775L254 45.885L255.366 46.3075C256.117 46.5401 257.133 46.8054 257.622 46.8971C259.125 47.179 264.479 49.3528 266.043 50.3158C266.315 50.4836 267.096 50.956 267.778 51.3653C276.257 56.4552 283.254 66.226 285.274 75.7954C285.519 76.9558 285.727 77.8377 285.737 77.7559C285.817 77.0684 287.289 71.6964 287.456 71.4839C287.573 71.3334 287.749 70.8787 287.846 70.4735C287.943 70.0681 288.609 68.5614 289.325 67.1253C293.091 59.5694 299.325 53.338 306.828 49.6287C309.391 48.3617 313.537 46.8034 314.431 46.7714C314.682 46.7622 315.501 46.554 316.251 46.3085L317.615 45.8622L316.251 45.678C312.989 45.2374 306.606 42.6151 303.11 40.2792C301.143 38.9646 297.524 36.0312 296.314 34.7706C291.661 29.9245 288.015 23.4365 286.482 17.279C285.747 14.3238 285.618 14.2048 285.277 16.1655Z" fill="#9183FF"/>
<path fill-rule="evenodd" clip-rule="evenodd" d="M348.822 16.1655C348.66 17.0916 348.36 18.3073 348.155 18.8674C347.949 19.4275 347.665 20.2762 347.523 20.7535C347.078 22.2484 344.809 26.7466 343.521 28.6878C337.79 37.3257 328.306 43.9183 319.227 45.5775L317.545 45.885L318.911 46.3075C319.662 46.5401 320.678 46.8054 321.167 46.8971C322.67 47.179 328.024 49.3528 329.588 50.3158C329.86 50.4836 330.641 50.956 331.323 51.3653C339.802 56.4552 346.799 66.226 348.819 75.7954C349.064 76.9558 349.272 77.8377 349.282 77.7559C349.362 77.0684 350.834 71.6964 351.001 71.4839C351.118 71.3334 351.294 70.8787 351.391 70.4735C351.488 70.0681 352.153 68.5614 352.87 67.1253C356.636 59.5694 362.87 53.338 370.373 49.6287C372.936 48.3617 377.082 46.8034 377.976 46.7714C378.227 46.7622 379.046 46.554 379.796 46.3085L381.16 45.8622L379.796 45.678C376.534 45.2374 370.151 42.6151 366.655 40.2792C364.688 38.9646 361.069 36.0312 359.859 34.7706C355.206 29.9245 351.56 23.4365 350.027 17.279C349.292 14.3238 349.163 14.2048 348.822 16.1655Z" fill="#9183FF"/>
<path fill-rule="evenodd" clip-rule="evenodd" d="M285.277 -46.634C285.116 -45.708 284.816 -44.4923 284.61 -43.9322C284.404 -43.3721 284.12 -42.5234 283.978 -42.0461C283.533 -40.5512 281.264 -36.053 279.976 -34.1118C274.245 -25.4739 264.762 -18.8813 255.682 -17.222L254 -16.9146L255.366 -16.4921C256.117 -16.2595 257.133 -15.9942 257.622 -15.9024C259.125 -15.6205 264.479 -13.4468 266.043 -12.4838C266.315 -12.3159 267.096 -11.8436 267.778 -11.4342C276.257 -6.34439 283.254 3.42639 285.274 12.9958C285.519 14.1562 285.727 15.0382 285.737 14.9563C285.817 14.2688 287.289 8.89681 287.456 8.68432C287.573 8.53382 287.749 8.07909 287.846 7.67395C287.943 7.26855 288.609 5.76179 289.325 4.32569C293.091 -3.2302 299.325 -9.46157 306.828 -13.1708C309.391 -14.4378 313.537 -15.9962 314.431 -16.0282C314.682 -16.0373 315.501 -16.2456 316.251 -16.4911L317.615 -16.9374L316.251 -17.1216C312.989 -17.5622 306.606 -20.1845 303.11 -22.5204C301.143 -23.835 297.524 -26.7684 296.314 -28.029C291.661 -32.8751 288.015 -39.363 286.482 -45.5205C285.747 -48.4758 285.618 -48.5948 285.277 -46.634Z" fill="#9183FF"/>
<path fill-rule="evenodd" clip-rule="evenodd" d="M348.822 -46.634C348.66 -45.708 348.36 -44.4923 348.155 -43.9322C347.949 -43.3721 347.665 -42.5234 347.523 -42.0461C347.078 -40.5512 344.809 -36.053 343.521 -34.1118C337.79 -25.4739 328.306 -18.8813 319.227 -17.222L317.545 -16.9146L318.911 -16.4921C319.662 -16.2595 320.678 -15.9942 321.167 -15.9024C322.67 -15.6205 328.024 -13.4468 329.588 -12.4838C329.86 -12.3159 330.641 -11.8436 331.323 -11.4342C339.802 -6.34439 346.799 3.42639 348.819 12.9958C349.064 14.1562 349.272 15.0382 349.282 14.9563C349.362 14.2688 350.834 8.89681 351.001 8.68432C351.118 8.53382 351.294 8.07909 351.391 7.67395C351.488 7.26855 352.153 5.76179 352.87 4.32569C356.636 -3.2302 362.87 -9.46157 370.373 -13.1708C372.936 -14.4378 377.082 -15.9962 377.976 -16.0282C378.227 -16.0373 379.046 -16.2456 379.796 -16.4911L381.16 -16.9374L379.796 -17.1216C376.534 -17.5622 370.151 -20.1845 366.655 -22.5204C364.688 -23.835 361.069 -26.7684 359.859 -28.029C355.206 -32.8751 351.56 -39.363 350.027 -45.5205C349.292 -48.4758 349.163 -48.5948 348.822 -46.634Z" fill="#9183FF"/>
<path fill-rule="evenodd" clip-rule="evenodd" d="M412.118 16.1655C411.956 17.0916 411.656 18.3073 411.451 18.8674C411.245 19.4275 410.961 20.2762 410.819 20.7535C410.374 22.2484 408.105 26.7466 406.817 28.6878C401.086 37.3257 391.602 43.9183 382.523 45.5775L380.841 45.885L382.207 46.3075C382.958 46.5401 383.974 46.8054 384.463 46.8971C385.966 47.179 391.32 49.3528 392.884 50.3158C393.156 50.4836 393.937 50.956 394.619 51.3653C403.098 56.4552 410.095 66.226 412.115 75.7954C412.36 76.9558 412.568 77.8377 412.578 77.7559C412.658 77.0684 414.13 71.6964 414.297 71.4839C414.414 71.3334 414.59 70.8787 414.687 70.4735C414.784 70.0681 415.449 68.5614 416.166 67.1253C419.932 59.5694 426.166 53.338 433.669 49.6287C436.232 48.3617 440.378 46.8034 441.272 46.7714C441.523 46.7622 442.342 46.554 443.092 46.3085L444.456 45.8622L443.092 45.678C439.83 45.2374 433.447 42.6151 429.951 40.2792C427.984 38.9646 424.365 36.0312 423.155 34.7706C418.502 29.9245 414.856 23.4365 413.323 17.279C412.588 14.3238 412.459 14.2048 412.118 16.1655Z" fill="#9183FF"/>
<path fill-rule="evenodd" clip-rule="evenodd" d="M475.662 16.1655C475.5 17.0916 475.2 18.3073 474.995 18.8674C474.789 19.4275 474.505 20.2762 474.363 20.7535C473.918 22.2484 471.649 26.7466 470.361 28.6878C464.63 37.3257 455.146 43.9183 446.067 45.5775L444.385 45.885L445.751 46.3075C446.502 46.5401 447.518 46.8054 448.007 46.8971C449.51 47.179 454.864 49.3528 456.428 50.3158C456.7 50.4836 457.481 50.956 458.163 51.3653C466.642 56.4552 473.639 66.226 475.659 75.7954C475.904 76.9558 476.112 77.8377 476.122 77.7559C476.202 77.0684 477.674 71.6964 477.84 71.4839C477.958 71.3334 478.134 70.8787 478.231 70.4735C478.328 70.0681 478.993 68.5614 479.71 67.1253C483.476 59.5694 489.71 53.338 497.213 49.6287C499.776 48.3617 503.922 46.8034 504.816 46.7714C505.067 46.7622 505.886 46.554 506.636 46.3085L508 45.8622L506.636 45.678C503.374 45.2374 496.99 42.6151 493.495 40.2792C491.528 38.9646 487.909 36.0312 486.699 34.7706C482.046 29.9245 478.4 23.4365 476.867 17.279C476.132 14.3238 476.003 14.2048 475.662 16.1655Z" fill="#9183FF"/>
<path fill-rule="evenodd" clip-rule="evenodd" d="M412.117 -46.634C411.956 -45.708 411.656 -44.4923 411.451 -43.9322C411.245 -43.3721 410.961 -42.5234 410.819 -42.0461C410.374 -40.5512 408.105 -36.053 406.817 -34.1118C401.085 -25.4739 391.602 -18.8813 382.523 -17.222L380.841 -16.9146L382.207 -16.4921C382.958 -16.2595 383.974 -15.9942 384.463 -15.9024C385.966 -15.6205 391.32 -13.4468 392.883 -12.4838C393.156 -12.3159 393.937 -11.8436 394.619 -11.4342C403.098 -6.34439 410.095 3.42639 412.115 12.9958C412.36 14.1562 412.568 15.0382 412.578 14.9563C412.658 14.2688 414.13 8.89681 414.296 8.68432C414.414 8.53382 414.59 8.07909 414.687 7.67395C414.784 7.26855 415.449 5.76179 416.165 4.32569C419.932 -3.2302 426.166 -9.46157 433.669 -13.1708C436.232 -14.4378 440.378 -15.9962 441.272 -16.0282C441.523 -16.0373 442.342 -16.2456 443.092 -16.4911L444.456 -16.9374L443.092 -17.1216C439.83 -17.5622 433.446 -20.1845 429.951 -22.5204C427.984 -23.835 424.364 -26.7684 423.154 -28.029C418.502 -32.8751 414.856 -39.363 413.323 -45.5205C412.588 -48.4758 412.459 -48.5948 412.117 -46.634Z" fill="#9183FF"/>
<path fill-rule="evenodd" clip-rule="evenodd" d="M475.661 -46.634C475.5 -45.708 475.2 -44.4923 474.995 -43.9322C474.789 -43.3721 474.505 -42.5234 474.363 -42.0461C473.918 -40.5512 471.649 -36.053 470.361 -34.1118C464.629 -25.4739 455.146 -18.8813 446.067 -17.222L444.385 -16.9146L445.751 -16.4921C446.502 -16.2595 447.518 -15.9942 448.007 -15.9024C449.51 -15.6205 454.864 -13.4468 456.427 -12.4838C456.7 -12.3159 457.481 -11.8436 458.163 -11.4342C466.642 -6.34439 473.639 3.42639 475.659 12.9958C475.904 14.1562 476.112 15.0382 476.122 14.9563C476.202 14.2688 477.674 8.89681 477.84 8.68432C477.958 8.53382 478.134 8.07909 478.231 7.67395C478.328 7.26855 478.993 5.76179 479.709 4.32569C483.476 -3.2302 489.71 -9.46157 497.213 -13.1708C499.776 -14.4378 503.922 -15.9962 504.816 -16.0282C505.067 -16.0373 505.886 -16.2456 506.636 -16.4911L508 -16.9374L506.636 -17.1216C503.374 -17.5622 496.99 -20.1845 493.495 -22.5204C491.528 -23.835 487.908 -26.7684 486.698 -28.029C482.046 -32.8751 478.4 -39.363 476.867 -45.5205C476.132 -48.4758 476.003 -48.5948 475.661 -46.634Z" fill="#9183FF"/>
<path fill-rule="evenodd" clip-rule="evenodd" d="M285.277 141.765C285.116 142.691 284.816 143.907 284.61 144.467C284.404 145.027 284.12 145.876 283.978 146.353C283.533 147.848 281.264 152.346 279.976 154.287C274.245 162.925 264.762 169.518 255.682 171.177L254 171.485L255.366 171.907C256.117 172.14 257.133 172.405 257.622 172.497C259.125 172.779 264.479 174.952 266.043 175.915C266.315 176.083 267.096 176.556 267.778 176.965C276.257 182.055 283.254 191.826 285.274 201.395C285.519 202.555 285.727 203.437 285.737 203.356C285.817 202.668 287.289 197.296 287.456 197.083C287.573 196.933 287.749 196.478 287.846 196.073C287.943 195.668 288.609 194.161 289.325 192.725C293.091 185.169 299.325 178.938 306.828 175.228C309.391 173.961 313.537 172.403 314.431 172.371C314.682 172.362 315.501 172.154 316.251 171.908L317.615 171.462L316.251 171.278C312.989 170.837 306.606 168.215 303.11 165.879C301.143 164.564 297.524 161.631 296.314 160.37C291.661 155.524 288.015 149.036 286.482 142.879C285.747 139.923 285.618 139.804 285.277 141.765Z" fill="#9183FF"/>
<path fill-rule="evenodd" clip-rule="evenodd" d="M348.822 141.765C348.66 142.691 348.36 143.907 348.155 144.467C347.949 145.027 347.665 145.876 347.523 146.353C347.078 147.848 344.809 152.346 343.521 154.287C337.79 162.925 328.306 169.518 319.227 171.177L317.545 171.485L318.911 171.907C319.662 172.14 320.678 172.405 321.167 172.497C322.67 172.779 328.024 174.952 329.588 175.915C329.86 176.083 330.641 176.556 331.323 176.965C339.802 182.055 346.799 191.826 348.819 201.395C349.064 202.555 349.272 203.437 349.282 203.356C349.362 202.668 350.834 197.296 351.001 197.083C351.118 196.933 351.294 196.478 351.391 196.073C351.488 195.668 352.153 194.161 352.87 192.725C356.636 185.169 362.87 178.938 370.373 175.228C372.936 173.961 377.082 172.403 377.976 172.371C378.227 172.362 379.046 172.154 379.796 171.908L381.16 171.462L379.796 171.278C376.534 170.837 370.151 168.215 366.655 165.879C364.688 164.564 361.069 161.631 359.859 160.37C355.206 155.524 351.56 149.036 350.027 142.879C349.292 139.923 349.163 139.804 348.822 141.765Z" fill="#9183FF"/>
<path fill-rule="evenodd" clip-rule="evenodd" d="M285.277 78.9653C285.116 79.8914 284.816 81.1071 284.61 81.6672C284.404 82.2273 284.12 83.076 283.978 83.5533C283.533 85.0482 281.264 89.5464 279.976 91.4876C274.245 100.125 264.762 106.718 255.682 108.377L254 108.685L255.366 109.107C256.117 109.34 257.133 109.605 257.622 109.697C259.125 109.979 264.479 112.153 266.043 113.116C266.315 113.283 267.096 113.756 267.778 114.165C276.257 119.255 283.254 129.026 285.274 138.595C285.519 139.756 285.727 140.638 285.737 140.556C285.817 139.868 287.289 134.496 287.456 134.284C287.573 134.133 287.749 133.678 287.846 133.273C287.943 132.868 288.609 131.361 289.325 129.925C293.091 122.369 299.325 116.138 306.828 112.429C309.391 111.162 313.537 109.603 314.431 109.571C314.682 109.562 315.501 109.354 316.251 109.108L317.615 108.662L316.251 108.478C312.989 108.037 306.606 105.415 303.11 103.079C301.143 101.764 297.524 98.831 296.314 97.5704C291.661 92.7243 288.015 86.2363 286.482 80.0788C285.747 77.1236 285.618 77.0046 285.277 78.9653Z" fill="#9183FF"/>
<path fill-rule="evenodd" clip-rule="evenodd" d="M348.822 78.9653C348.66 79.8914 348.36 81.1071 348.155 81.6672C347.949 82.2273 347.665 83.076 347.523 83.5533C347.078 85.0482 344.809 89.5464 343.521 91.4876C337.79 100.125 328.306 106.718 319.227 108.377L317.545 108.685L318.911 109.107C319.662 109.34 320.678 109.605 321.167 109.697C322.67 109.979 328.024 112.153 329.588 113.116C329.86 113.283 330.641 113.756 331.323 114.165C339.802 119.255 346.799 129.026 348.819 138.595C349.064 139.756 349.272 140.638 349.282 140.556C349.362 139.868 350.834 134.496 351.001 134.284C351.118 134.133 351.294 133.678 351.391 133.273C351.488 132.868 352.153 131.361 352.87 129.925C356.636 122.369 362.87 116.138 370.373 112.429C372.936 111.162 377.082 109.603 377.976 109.571C378.227 109.562 379.046 109.354 379.796 109.108L381.16 108.662L379.796 108.478C376.534 108.037 370.151 105.415 366.655 103.079C364.688 101.764 361.069 98.831 359.859 97.5704C355.206 92.7243 351.56 86.2363 350.027 80.0788C349.292 77.1236 349.163 77.0046 348.822 78.9653Z" fill="#9183FF"/>
<path fill-rule="evenodd" clip-rule="evenodd" d="M412.118 141.765C411.956 142.691 411.656 143.907 411.451 144.467C411.245 145.027 410.961 145.876 410.819 146.353C410.374 147.848 408.105 152.346 406.817 154.287C401.086 162.925 391.602 169.518 382.523 171.177L380.841 171.485L382.207 171.907C382.958 172.14 383.974 172.405 384.463 172.497C385.966 172.779 391.32 174.952 392.884 175.915C393.156 176.083 393.937 176.556 394.619 176.965C403.098 182.055 410.095 191.826 412.115 201.395C412.36 202.555 412.568 203.437 412.578 203.356C412.658 202.668 414.13 197.296 414.297 197.083C414.414 196.933 414.59 196.478 414.687 196.073C414.784 195.668 415.449 194.161 416.166 192.725C419.932 185.169 426.166 178.938 433.669 175.228C436.232 173.961 440.378 172.403 441.272 172.371C441.523 172.362 442.342 172.154 443.092 171.908L444.456 171.462L443.092 171.278C439.83 170.837 433.447 168.215 429.951 165.879C427.984 164.564 424.365 161.631 423.155 160.37C418.502 155.524 414.856 149.036 413.323 142.879C412.588 139.923 412.459 139.804 412.118 141.765Z" fill="#9183FF"/>
<path fill-rule="evenodd" clip-rule="evenodd" d="M475.662 141.765C475.5 142.691 475.2 143.907 474.995 144.467C474.789 145.027 474.505 145.876 474.363 146.353C473.918 147.848 471.649 152.346 470.361 154.287C464.63 162.925 455.146 169.518 446.067 171.177L444.385 171.485L445.751 171.907C446.502 172.14 447.518 172.405 448.007 172.497C449.51 172.779 454.864 174.952 456.428 175.915C456.7 176.083 457.481 176.556 458.163 176.965C466.642 182.055 473.639 191.826 475.659 201.395C475.904 202.555 476.112 203.437 476.122 203.356C476.202 202.668 477.674 197.296 477.84 197.083C477.958 196.933 478.134 196.478 478.231 196.073C478.328 195.668 478.993 194.161 479.71 192.725C483.476 185.169 489.71 178.938 497.213 175.228C499.776 173.961 503.922 172.403 504.816 172.371C505.067 172.362 505.886 172.154 506.636 171.908L508 171.462L506.636 171.278C503.374 170.837 496.99 168.215 493.495 165.879C491.528 164.564 487.909 161.631 486.699 160.37C482.046 155.524 478.4 149.036 476.867 142.879C476.132 139.923 476.003 139.804 475.662 141.765Z" fill="#9183FF"/>
<path fill-rule="evenodd" clip-rule="evenodd" d="M412.117 78.9653C411.956 79.8914 411.656 81.1071 411.451 81.6672C411.245 82.2273 410.961 83.076 410.819 83.5533C410.374 85.0482 408.105 89.5464 406.817 91.4876C401.085 100.125 391.602 106.718 382.523 108.377L380.841 108.685L382.207 109.107C382.958 109.34 383.974 109.605 384.463 109.697C385.966 109.979 391.32 112.153 392.883 113.116C393.156 113.283 393.937 113.756 394.619 114.165C403.098 119.255 410.095 129.026 412.115 138.595C412.36 139.756 412.568 140.638 412.578 140.556C412.658 139.868 414.13 134.496 414.296 134.284C414.414 134.133 414.59 133.678 414.687 133.273C414.784 132.868 415.449 131.361 416.165 129.925C419.932 122.369 426.166 116.138 433.669 112.429C436.232 111.162 440.378 109.603 441.272 109.571C441.523 109.562 442.342 109.354 443.092 109.108L444.456 108.662L443.092 108.478C439.83 108.037 433.446 105.415 429.951 103.079C427.984 101.764 424.364 98.831 423.154 97.5704C418.502 92.7243 414.856 86.2363 413.323 80.0788C412.588 77.1236 412.459 77.0046 412.117 78.9653Z" fill="#9183FF"/>
<path fill-rule="evenodd" clip-rule="evenodd" d="M475.661 78.9653C475.5 79.8914 475.2 81.1071 474.995 81.6672C474.789 82.2273 474.505 83.076 474.363 83.5533C473.918 85.0482 471.649 89.5464 470.361 91.4876C464.629 100.125 455.146 106.718 446.067 108.377L444.385 108.685L445.751 109.107C446.502 109.34 447.518 109.605 448.007 109.697C449.51 109.979 454.864 112.153 456.427 113.116C456.7 113.283 457.481 113.756 458.163 114.165C466.642 119.255 473.639 129.026 475.659 138.595C475.904 139.756 476.112 140.638 476.122 140.556C476.202 139.868 477.674 134.496 477.84 134.284C477.958 134.133 478.134 133.678 478.231 133.273C478.328 132.868 478.993 131.361 479.709 129.925C483.476 122.369 489.71 116.138 497.213 112.429C499.776 111.162 503.922 109.603 504.816 109.571C505.067 109.562 505.886 109.354 506.636 109.108L508 108.662L506.636 108.478C503.374 108.037 496.99 105.415 493.495 103.079C491.528 101.764 487.908 98.831 486.698 97.5704C482.046 92.7243 478.4 86.2363 476.867 80.0788C476.132 77.1236 476.003 77.0046 475.661 78.9653Z" fill="#9183FF"/>
</g>
<g opacity="0.1">
<path fill-rule="evenodd" clip-rule="evenodd" d="M31.2767 16.1655C31.1155 17.0916 30.8155 18.3073 30.61 18.8674C30.4044 19.4275 30.12 20.2762 29.9779 20.7535C29.5331 22.2484 27.2644 26.7466 25.9764 28.6878C20.2446 37.3257 10.7615 43.9183 1.6823 45.5775L0 45.885L1.36617 46.3075C2.11744 46.5401 3.13278 46.8054 3.62247 46.8971C5.12476 47.179 10.4789 49.3528 12.0427 50.3158C12.3154 50.4836 13.0964 50.956 13.7783 51.3653C22.257 56.4552 29.2542 66.226 31.2742 75.7954C31.5189 76.9558 31.7272 77.8377 31.7369 77.7559C31.8172 77.0684 33.2892 71.6964 33.4556 71.4839C33.5731 71.3334 33.7489 70.8787 33.8461 70.4735C33.9433 70.0681 34.6086 68.5614 35.3246 67.1253C39.0914 59.5694 45.3254 53.338 52.8285 49.6287C55.391 48.3617 59.5374 46.8034 60.4314 46.7714C60.6824 46.7622 61.5013 46.554 62.2514 46.3085L63.6151 45.8622L62.2514 45.678C58.9889 45.2374 52.6056 42.6151 49.1103 40.2792C47.1431 38.9646 43.5236 36.0312 42.3137 34.7706C37.6615 29.9245 34.015 23.4365 32.4824 17.279C31.747 14.3238 31.6181 14.2048 31.2767 16.1655Z" fill="#9183FF"/>
<path fill-rule="evenodd" clip-rule="evenodd" d="M94.8216 16.1655C94.6604 17.0916 94.3604 18.3073 94.1549 18.8674C93.9493 19.4275 93.6649 20.2762 93.5229 20.7535C93.0781 22.2484 90.8094 26.7466 89.5213 28.6878C83.7896 37.3257 74.3064 43.9183 65.2272 45.5775L63.5449 45.885L64.9111 46.3075C65.6624 46.5401 66.6777 46.8054 67.1674 46.8971C68.6697 47.179 74.0238 49.3528 75.5876 50.3158C75.8603 50.4836 76.6413 50.956 77.3232 51.3653C85.8019 56.4552 92.7991 66.226 94.8191 75.7954C95.0638 76.9558 95.2721 77.8377 95.2818 77.7559C95.3621 77.0684 96.8342 71.6964 97.0005 71.4839C97.1181 71.3334 97.2939 70.8787 97.391 70.4735C97.4882 70.0681 98.1535 68.5614 98.8695 67.1253C102.636 59.5694 108.87 53.338 116.373 49.6287C118.936 48.3617 123.082 46.8034 123.976 46.7714C124.227 46.7622 125.046 46.554 125.796 46.3085L127.16 45.8622L125.796 45.678C122.534 45.2374 116.151 42.6151 112.655 40.2792C110.688 38.9646 107.069 36.0312 105.859 34.7706C101.206 29.9245 97.5599 23.4365 96.0274 17.279C95.292 14.3238 95.163 14.2048 94.8216 16.1655Z" fill="#9183FF"/>
<path fill-rule="evenodd" clip-rule="evenodd" d="M31.2767 -46.634C31.1155 -45.708 30.8155 -44.4923 30.61 -43.9322C30.4044 -43.3721 30.12 -42.5234 29.9779 -42.0461C29.5331 -40.5512 27.2644 -36.053 25.9764 -34.1118C20.2446 -25.4739 10.7615 -18.8813 1.6823 -17.222L0 -16.9146L1.36617 -16.4921C2.11744 -16.2595 3.13278 -15.9942 3.62247 -15.9024C5.12476 -15.6205 10.4789 -13.4468 12.0427 -12.4838C12.3154 -12.3159 13.0964 -11.8436 13.7783 -11.4342C22.257 -6.34439 29.2542 3.42639 31.2742 12.9958C31.5189 14.1562 31.7272 15.0382 31.7369 14.9563C31.8172 14.2688 33.2892 8.89681 33.4556 8.68432C33.5731 8.53382 33.7489 8.07909 33.8461 7.67395C33.9433 7.26855 34.6086 5.76179 35.3246 4.32569C39.0914 -3.2302 45.3254 -9.46157 52.8285 -13.1708C55.391 -14.4378 59.5374 -15.9962 60.4314 -16.0282C60.6824 -16.0373 61.5013 -16.2456 62.2514 -16.4911L63.6151 -16.9374L62.2514 -17.1216C58.9889 -17.5622 52.6056 -20.1845 49.1103 -22.5204C47.1431 -23.835 43.5236 -26.7684 42.3137 -28.029C37.6615 -32.8751 34.015 -39.363 32.4824 -45.5205C31.747 -48.4758 31.6181 -48.5948 31.2767 -46.634Z" fill="#9183FF"/>
<path fill-rule="evenodd" clip-rule="evenodd" d="M94.8216 -46.634C94.6604 -45.708 94.3604 -44.4923 94.1549 -43.9322C93.9493 -43.3721 93.6649 -42.5234 93.5229 -42.0461C93.0781 -40.5512 90.8094 -36.053 89.5213 -34.1118C83.7896 -25.4739 74.3064 -18.8813 65.2272 -17.222L63.5449 -16.9146L64.9111 -16.4921C65.6624 -16.2595 66.6777 -15.9942 67.1674 -15.9024C68.6697 -15.6205 74.0238 -13.4468 75.5876 -12.4838C75.8603 -12.3159 76.6413 -11.8436 77.3232 -11.4342C85.8019 -6.34439 92.7991 3.42639 94.8191 12.9958C95.0638 14.1562 95.2721 15.0382 95.2818 14.9563C95.3621 14.2688 96.8342 8.89681 97.0005 8.68432C97.1181 8.53382 97.2939 8.07909 97.391 7.67395C97.4882 7.26855 98.1535 5.76179 98.8695 4.32569C102.636 -3.2302 108.87 -9.46157 116.373 -13.1708C118.936 -14.4378 123.082 -15.9962 123.976 -16.0282C124.227 -16.0373 125.046 -16.2456 125.796 -16.4911L127.16 -16.9374L125.796 -17.1216C122.534 -17.5622 116.151 -20.1845 112.655 -22.5204C110.688 -23.835 107.069 -26.7684 105.859 -28.029C101.206 -32.8751 97.5599 -39.363 96.0274 -45.5205C95.292 -48.4758 95.163 -48.5948 94.8216 -46.634Z" fill="#9183FF"/>
<path fill-rule="evenodd" clip-rule="evenodd" d="M158.118 16.1655C157.956 17.0916 157.656 18.3073 157.451 18.8674C157.245 19.4275 156.961 20.2762 156.819 20.7535C156.374 22.2484 154.105 26.7466 152.817 28.6878C147.086 37.3257 137.602 43.9183 128.523 45.5775L126.841 45.885L128.207 46.3075C128.958 46.5401 129.974 46.8054 130.463 46.8971C131.966 47.179 137.32 49.3528 138.884 50.3158C139.156 50.4836 139.937 50.956 140.619 51.3653C149.098 56.4552 156.095 66.226 158.115 75.7954C158.36 76.9558 158.568 77.8377 158.578 77.7559C158.658 77.0684 160.13 71.6964 160.297 71.4839C160.414 71.3334 160.59 70.8787 160.687 70.4735C160.784 70.0681 161.449 68.5614 162.166 67.1253C165.932 59.5694 172.166 53.338 179.669 49.6287C182.232 48.3617 186.378 46.8034 187.272 46.7714C187.523 46.7622 188.342 46.554 189.092 46.3085L190.456 45.8622L189.092 45.678C185.83 45.2374 179.447 42.6151 175.951 40.2792C173.984 38.9646 170.365 36.0312 169.155 34.7706C164.502 29.9245 160.856 23.4365 159.323 17.279C158.588 14.3238 158.459 14.2048 158.118 16.1655Z" fill="#9183FF"/>
<path fill-rule="evenodd" clip-rule="evenodd" d="M221.662 16.1655C221.5 17.0916 221.2 18.3073 220.995 18.8674C220.789 19.4275 220.505 20.2762 220.363 20.7535C219.918 22.2484 217.649 26.7466 216.361 28.6878C210.63 37.3257 201.146 43.9183 192.067 45.5775L190.385 45.885L191.751 46.3075C192.502 46.5401 193.518 46.8054 194.007 46.8971C195.51 47.179 200.864 49.3528 202.428 50.3158C202.7 50.4836 203.481 50.956 204.163 51.3653C212.642 56.4552 219.639 66.226 221.659 75.7954C221.904 76.9558 222.112 77.8377 222.122 77.7559C222.202 77.0684 223.674 71.6964 223.84 71.4839C223.958 71.3334 224.134 70.8787 224.231 70.4735C224.328 70.0681 224.993 68.5614 225.71 67.1253C229.476 59.5694 235.71 53.338 243.213 49.6287C245.776 48.3617 249.922 46.8034 250.816 46.7714C251.067 46.7622 251.886 46.554 252.636 46.3085L254 45.8622L252.636 45.678C249.374 45.2374 242.99 42.6151 239.495 40.2792C237.528 38.9646 233.909 36.0312 232.699 34.7706C228.046 29.9245 224.4 23.4365 222.867 17.279C222.132 14.3238 222.003 14.2048 221.662 16.1655Z" fill="#9183FF"/>
<path fill-rule="evenodd" clip-rule="evenodd" d="M158.117 -46.634C157.956 -45.708 157.656 -44.4923 157.451 -43.9322C157.245 -43.3721 156.961 -42.5234 156.819 -42.0461C156.374 -40.5512 154.105 -36.053 152.817 -34.1118C147.085 -25.4739 137.602 -18.8813 128.523 -17.222L126.841 -16.9146L128.207 -16.4921C128.958 -16.2595 129.974 -15.9942 130.463 -15.9024C131.966 -15.6205 137.32 -13.4468 138.883 -12.4838C139.156 -12.3159 139.937 -11.8436 140.619 -11.4342C149.098 -6.34439 156.095 3.42639 158.115 12.9958C158.36 14.1562 158.568 15.0382 158.578 14.9563C158.658 14.2688 160.13 8.89681 160.296 8.68432C160.414 8.53382 160.59 8.07909 160.687 7.67395C160.784 7.26855 161.449 5.76179 162.165 4.32569C165.932 -3.2302 172.166 -9.46157 179.669 -13.1708C182.232 -14.4378 186.378 -15.9962 187.272 -16.0282C187.523 -16.0373 188.342 -16.2456 189.092 -16.4911L190.456 -16.9374L189.092 -17.1216C185.83 -17.5622 179.446 -20.1845 175.951 -22.5204C173.984 -23.835 170.364 -26.7684 169.154 -28.029C164.502 -32.8751 160.856 -39.363 159.323 -45.5205C158.588 -48.4758 158.459 -48.5948 158.117 -46.634Z" fill="#9183FF"/>
<path fill-rule="evenodd" clip-rule="evenodd" d="M221.661 -46.634C221.5 -45.708 221.2 -44.4923 220.995 -43.9322C220.789 -43.3721 220.505 -42.5234 220.363 -42.0461C219.918 -40.5512 217.649 -36.053 216.361 -34.1118C210.629 -25.4739 201.146 -18.8813 192.067 -17.222L190.385 -16.9146L191.751 -16.4921C192.502 -16.2595 193.518 -15.9942 194.007 -15.9024C195.51 -15.6205 200.864 -13.4468 202.427 -12.4838C202.7 -12.3159 203.481 -11.8436 204.163 -11.4342C212.642 -6.34439 219.639 3.42639 221.659 12.9958C221.904 14.1562 222.112 15.0382 222.122 14.9563C222.202 14.2688 223.674 8.89681 223.84 8.68432C223.958 8.53382 224.134 8.07909 224.231 7.67395C224.328 7.26855 224.993 5.76179 225.709 4.32569C229.476 -3.2302 235.71 -9.46157 243.213 -13.1708C245.776 -14.4378 249.922 -15.9962 250.816 -16.0282C251.067 -16.0373 251.886 -16.2456 252.636 -16.4911L254 -16.9374L252.636 -17.1216C249.374 -17.5622 242.99 -20.1845 239.495 -22.5204C237.528 -23.835 233.908 -26.7684 232.698 -28.029C228.046 -32.8751 224.4 -39.363 222.867 -45.5205C222.132 -48.4758 222.003 -48.5948 221.661 -46.634Z" fill="#9183FF"/>
<path fill-rule="evenodd" clip-rule="evenodd" d="M31.2767 141.765C31.1155 142.691 30.8155 143.907 30.61 144.467C30.4044 145.027 30.12 145.876 29.9779 146.353C29.5331 147.848 27.2644 152.346 25.9764 154.287C20.2446 162.925 10.7615 169.518 1.6823 171.177L0 171.485L1.36617 171.907C2.11744 172.14 3.13278 172.405 3.62247 172.497C5.12476 172.779 10.4789 174.952 12.0427 175.915C12.3154 176.083 13.0964 176.556 13.7783 176.965C22.257 182.055 29.2542 191.826 31.2742 201.395C31.5189 202.555 31.7272 203.437 31.7369 203.356C31.8172 202.668 33.2892 197.296 33.4556 197.083C33.5731 196.933 33.7489 196.478 33.8461 196.073C33.9433 195.668 34.6086 194.161 35.3246 192.725C39.0914 185.169 45.3254 178.938 52.8285 175.228C55.391 173.961 59.5374 172.403 60.4314 172.371C60.6824 172.362 61.5013 172.154 62.2514 171.908L63.6151 171.462L62.2514 171.278C58.9889 170.837 52.6056 168.215 49.1103 165.879C47.1431 164.564 43.5236 161.631 42.3137 160.37C37.6615 155.524 34.015 149.036 32.4824 142.879C31.747 139.923 31.6181 139.804 31.2767 141.765Z" fill="#9183FF"/>
<path fill-rule="evenodd" clip-rule="evenodd" d="M94.8216 141.765C94.6604 142.691 94.3604 143.907 94.1549 144.467C93.9493 145.027 93.6649 145.876 93.5229 146.353C93.0781 147.848 90.8094 152.346 89.5213 154.287C83.7896 162.925 74.3064 169.518 65.2272 171.177L63.5449 171.485L64.9111 171.907C65.6624 172.14 66.6777 172.405 67.1674 172.497C68.6697 172.779 74.0238 174.952 75.5876 175.915C75.8603 176.083 76.6413 176.556 77.3232 176.965C85.8019 182.055 92.7991 191.826 94.8191 201.395C95.0638 202.555 95.2721 203.437 95.2818 203.356C95.3621 202.668 96.8342 197.296 97.0005 197.083C97.1181 196.933 97.2939 196.478 97.391 196.073C97.4882 195.668 98.1535 194.161 98.8695 192.725C102.636 185.169 108.87 178.938 116.373 175.228C118.936 173.961 123.082 172.403 123.976 172.371C124.227 172.362 125.046 172.154 125.796 171.908L127.16 171.462L125.796 171.278C122.534 170.837 116.151 168.215 112.655 165.879C110.688 164.564 107.069 161.631 105.859 160.37C101.206 155.524 97.5599 149.036 96.0274 142.879C95.292 139.923 95.163 139.804 94.8216 141.765Z" fill="#9183FF"/>
<path fill-rule="evenodd" clip-rule="evenodd" d="M31.2767 78.9653C31.1155 79.8914 30.8155 81.1071 30.61 81.6672C30.4044 82.2273 30.12 83.076 29.9779 83.5533C29.5331 85.0482 27.2644 89.5464 25.9764 91.4876C20.2446 100.125 10.7615 106.718 1.6823 108.377L0 108.685L1.36617 109.107C2.11744 109.34 3.13278 109.605 3.62247 109.697C5.12476 109.979 10.4789 112.153 12.0427 113.116C12.3154 113.283 13.0964 113.756 13.7783 114.165C22.257 119.255 29.2542 129.026 31.2742 138.595C31.5189 139.756 31.7272 140.638 31.7369 140.556C31.8172 139.868 33.2892 134.496 33.4556 134.284C33.5731 134.133 33.7489 133.678 33.8461 133.273C33.9433 132.868 34.6086 131.361 35.3246 129.925C39.0914 122.369 45.3254 116.138 52.8285 112.429C55.391 111.162 59.5374 109.603 60.4314 109.571C60.6824 109.562 61.5013 109.354 62.2514 109.108L63.6151 108.662L62.2514 108.478C58.9889 108.037 52.6056 105.415 49.1103 103.079C47.1431 101.764 43.5236 98.831 42.3137 97.5704C37.6615 92.7243 34.015 86.2363 32.4824 80.0788C31.747 77.1236 31.6181 77.0046 31.2767 78.9653Z" fill="#9183FF"/>
<path fill-rule="evenodd" clip-rule="evenodd" d="M94.8216 78.9653C94.6604 79.8914 94.3604 81.1071 94.1549 81.6672C93.9493 82.2273 93.6649 83.076 93.5229 83.5533C93.0781 85.0482 90.8094 89.5464 89.5213 91.4876C83.7896 100.125 74.3064 106.718 65.2272 108.377L63.5449 108.685L64.9111 109.107C65.6624 109.34 66.6777 109.605 67.1674 109.697C68.6697 109.979 74.0238 112.153 75.5876 113.116C75.8603 113.283 76.6413 113.756 77.3232 114.165C85.8019 119.255 92.7991 129.026 94.8191 138.595C95.0638 139.756 95.2721 140.638 95.2818 140.556C95.3621 139.868 96.8342 134.496 97.0005 134.284C97.1181 134.133 97.2939 133.678 97.391 133.273C97.4882 132.868 98.1535 131.361 98.8695 129.925C102.636 122.369 108.87 116.138 116.373 112.429C118.936 111.162 123.082 109.603 123.976 109.571C124.227 109.562 125.046 109.354 125.796 109.108L127.16 108.662L125.796 108.478C122.534 108.037 116.151 105.415 112.655 103.079C110.688 101.764 107.069 98.831 105.859 97.5704C101.206 92.7243 97.5599 86.2363 96.0274 80.0788C95.292 77.1236 95.163 77.0046 94.8216 78.9653Z" fill="#9183FF"/>
<path fill-rule="evenodd" clip-rule="evenodd" d="M158.118 141.765C157.956 142.691 157.656 143.907 157.451 144.467C157.245 145.027 156.961 145.876 156.819 146.353C156.374 147.848 154.105 152.346 152.817 154.287C147.086 162.925 137.602 169.518 128.523 171.177L126.841 171.485L128.207 171.907C128.958 172.14 129.974 172.405 130.463 172.497C131.966 172.779 137.32 174.952 138.884 175.915C139.156 176.083 139.937 176.556 140.619 176.965C149.098 182.055 156.095 191.826 158.115 201.395C158.36 202.555 158.568 203.437 158.578 203.356C158.658 202.668 160.13 197.296 160.297 197.083C160.414 196.933 160.59 196.478 160.687 196.073C160.784 195.668 161.449 194.161 162.166 192.725C165.932 185.169 172.166 178.938 179.669 175.228C182.232 173.961 186.378 172.403 187.272 172.371C187.523 172.362 188.342 172.154 189.092 171.908L190.456 171.462L189.092 171.278C185.83 170.837 179.447 168.215 175.951 165.879C173.984 164.564 170.365 161.631 169.155 160.37C164.502 155.524 160.856 149.036 159.323 142.879C158.588 139.923 158.459 139.804 158.118 141.765Z" fill="#9183FF"/>
<path fill-rule="evenodd" clip-rule="evenodd" d="M221.662 141.765C221.5 142.691 221.2 143.907 220.995 144.467C220.789 145.027 220.505 145.876 220.363 146.353C219.918 147.848 217.649 152.346 216.361 154.287C210.63 162.925 201.146 169.518 192.067 171.177L190.385 171.485L191.751 171.907C192.502 172.14 193.518 172.405 194.007 172.497C195.51 172.779 200.864 174.952 202.428 175.915C202.7 176.083 203.481 176.556 204.163 176.965C212.642 182.055 219.639 191.826 221.659 201.395C221.904 202.555 222.112 203.437 222.122 203.356C222.202 202.668 223.674 197.296 223.84 197.083C223.958 196.933 224.134 196.478 224.231 196.073C224.328 195.668 224.993 194.161 225.71 192.725C229.476 185.169 235.71 178.938 243.213 175.228C245.776 173.961 249.922 172.403 250.816 172.371C251.067 172.362 251.886 172.154 252.636 171.908L254 171.462L252.636 171.278C249.374 170.837 242.99 168.215 239.495 165.879C237.528 164.564 233.909 161.631 232.699 160.37C228.046 155.524 224.4 149.036 222.867 142.879C222.132 139.923 222.003 139.804 221.662 141.765Z" fill="#9183FF"/>
<path fill-rule="evenodd" clip-rule="evenodd" d="M158.117 78.9653C157.956 79.8914 157.656 81.1071 157.451 81.6672C157.245 82.2273 156.961 83.076 156.819 83.5533C156.374 85.0482 154.105 89.5464 152.817 91.4876C147.085 100.125 137.602 106.718 128.523 108.377L126.841 108.685L128.207 109.107C128.958 109.34 129.974 109.605 130.463 109.697C131.966 109.979 137.32 112.153 138.883 113.116C139.156 113.283 139.937 113.756 140.619 114.165C149.098 119.255 156.095 129.026 158.115 138.595C158.36 139.756 158.568 140.638 158.578 140.556C158.658 139.868 160.13 134.496 160.296 134.284C160.414 134.133 160.59 133.678 160.687 133.273C160.784 132.868 161.449 131.361 162.165 129.925C165.932 122.369 172.166 116.138 179.669 112.429C182.232 111.162 186.378 109.603 187.272 109.571C187.523 109.562 188.342 109.354 189.092 109.108L190.456 108.662L189.092 108.478C185.83 108.037 179.446 105.415 175.951 103.079C173.984 101.764 170.364 98.831 169.154 97.5704C164.502 92.7243 160.856 86.2363 159.323 80.0788C158.588 77.1236 158.459 77.0046 158.117 78.9653Z" fill="#9183FF"/>
<path fill-rule="evenodd" clip-rule="evenodd" d="M221.661 78.9653C221.5 79.8914 221.2 81.1071 220.995 81.6672C220.789 82.2273 220.505 83.076 220.363 83.5533C219.918 85.0482 217.649 89.5464 216.361 91.4876C210.629 100.125 201.146 106.718 192.067 108.377L190.385 108.685L191.751 109.107C192.502 109.34 193.518 109.605 194.007 109.697C195.51 109.979 200.864 112.153 202.427 113.116C202.7 113.283 203.481 113.756 204.163 114.165C212.642 119.255 219.639 129.026 221.659 138.595C221.904 139.756 222.112 140.638 222.122 140.556C222.202 139.868 223.674 134.496 223.84 134.284C223.958 134.133 224.134 133.678 224.231 133.273C224.328 132.868 224.993 131.361 225.709 129.925C229.476 122.369 235.71 116.138 243.213 112.429C245.776 111.162 249.922 109.603 250.816 109.571C251.067 109.562 251.886 109.354 252.636 109.108L254 108.662L252.636 108.478C249.374 108.037 242.99 105.415 239.495 103.079C237.528 101.764 233.908 98.831 232.698 97.5704C228.046 92.7243 224.4 86.2363 222.867 80.0788C222.132 77.1236 222.003 77.0046 221.661 78.9653Z" fill="#9183FF"/>
</g>
</svg>
