<svg width="522" height="178" viewBox="0 0 522 178" fill="none" xmlns="http://www.w3.org/2000/svg">
<g clip-path="url(#clip0_391_2583)">
<rect width="522" height="178" fill="#5A46E3"/>
<path d="M122.282 22.8851H118.709C118.462 22.8851 118.262 23.0851 118.262 23.3317C118.262 23.5782 118.462 23.7783 118.709 23.7783H122.282C122.529 23.7783 122.729 23.5782 122.729 23.3317C122.729 23.0851 122.529 22.8851 122.282 22.8851ZM115.079 23.1012C113.856 23.2906 112.672 23.6032 111.542 24.024C111.31 24.1097 111.193 24.367 111.279 24.5983C111.365 24.8297 111.622 24.9467 111.853 24.8609C112.928 24.4608 114.053 24.1642 115.217 23.9838C115.46 23.9463 115.627 23.7176 115.59 23.4737C115.551 23.2298 115.323 23.0628 115.079 23.1012ZM108.261 25.639C107.222 26.2875 106.254 27.0387 105.37 27.8766C105.191 28.0463 105.183 28.3286 105.353 28.5082C105.523 28.6868 105.806 28.6948 105.985 28.5251C106.826 27.7274 107.747 27.0137 108.734 26.3965C108.943 26.2661 109.007 25.99 108.876 25.781C108.746 25.572 108.47 25.5086 108.261 25.639H108.261ZM102.982 30.6439C102.284 31.6382 101.683 32.7056 101.193 33.832C101.094 34.058 101.198 34.3215 101.424 34.4198C101.65 34.518 101.913 34.4144 102.012 34.1884C102.478 33.1174 103.049 32.1027 103.713 31.1567C103.854 30.9548 103.805 30.677 103.603 30.535C103.402 30.3929 103.123 30.4421 102.982 30.6439ZM100.08 37.3149C99.8322 38.4886 99.6978 39.7044 99.688 40.9487C99.6863 41.1952 99.8845 41.3971 100.131 41.3989C100.378 41.4007 100.58 41.2024 100.581 40.9558C100.59 39.7705 100.718 38.6155 100.954 37.4989C101.005 37.2577 100.85 37.021 100.609 36.9701C100.368 36.9192 100.131 37.0737 100.08 37.3149ZM99.6876 44.5253V48.0984C99.6876 48.3449 99.8876 48.545 100.134 48.545C100.381 48.545 100.581 48.3449 100.581 48.0984V44.5253C100.581 44.2788 100.381 44.0787 100.134 44.0787C99.8876 44.0787 99.6876 44.2788 99.6876 44.5253ZM99.6876 51.6714V55.2445C99.6876 55.491 99.8876 55.6911 100.134 55.6911C100.381 55.6911 100.581 55.491 100.581 55.2445V51.6714C100.581 51.4249 100.381 51.2248 100.134 51.2248C99.8876 51.2248 99.6876 51.4249 99.6876 51.6714ZM99.6876 58.8176V62.3906C99.6876 62.6372 99.8876 62.8373 100.134 62.8373C100.381 62.8373 100.581 62.6372 100.581 62.3906V58.8176C100.581 58.571 100.381 58.3709 100.134 58.3709C99.8876 58.3709 99.6876 58.571 99.6876 58.8176ZM99.6876 65.9637V69.5368C99.6876 69.7833 99.8876 69.9834 100.134 69.9834C100.381 69.9834 100.581 69.7833 100.581 69.5368V65.9637C100.581 65.7171 100.381 65.5171 100.134 65.5171C99.8876 65.5171 99.6876 65.7171 99.6876 65.9637ZM99.6876 73.1098V76.6829C99.6876 76.9294 99.8876 77.1295 100.134 77.1295C100.381 77.1295 100.581 76.9294 100.581 76.6829V73.1098C100.581 72.8633 100.381 72.6632 100.134 72.6632C99.8876 72.6632 99.6876 72.8633 99.6876 73.1098ZM99.6876 80.256V83.829C99.6876 84.0756 99.8876 84.2757 100.134 84.2757C100.381 84.2757 100.581 84.0756 100.581 83.829V80.256C100.581 80.0094 100.381 79.8093 100.134 79.8093C99.8876 79.8093 99.6876 80.0094 99.6876 80.256ZM99.6876 87.4021V90.9751C99.6876 91.2217 99.8876 91.4218 100.134 91.4218C100.381 91.4218 100.581 91.2217 100.581 90.9751V87.4021C100.581 87.1555 100.381 86.9554 100.134 86.9554C99.8876 86.9554 99.6876 87.1555 99.6876 87.4021ZM99.6876 94.5482V98.1213C99.6876 98.3678 99.8876 98.5679 100.134 98.5679C100.381 98.5679 100.581 98.3678 100.581 98.1213V94.5482C100.581 94.3017 100.381 94.1016 100.134 94.1016C99.8876 94.1016 99.6876 94.3017 99.6876 94.5482ZM99.6876 101.694V105.267C99.6876 105.514 99.8876 105.714 100.134 105.714C100.381 105.714 100.581 105.514 100.581 105.267V101.694C100.581 101.448 100.381 101.248 100.134 101.248C99.8876 101.248 99.6876 101.448 99.6876 101.694ZM99.6876 108.84V112.414C99.6876 112.66 99.8876 112.86 100.134 112.86C100.381 112.86 100.581 112.66 100.581 112.414V108.84C100.581 108.594 100.381 108.394 100.134 108.394C99.8876 108.394 99.6876 108.594 99.6876 108.84ZM99.6876 115.987V119.56C99.6876 119.806 99.8876 120.006 100.134 120.006C100.381 120.006 100.581 119.806 100.581 119.56V115.987C100.581 115.739 100.381 115.54 100.134 115.54C99.8876 115.54 99.6876 115.739 99.6876 115.987ZM99.6876 123.133V126.706C99.6876 126.952 99.8876 127.152 100.134 127.152C100.381 127.152 100.581 126.952 100.581 126.706V123.133C100.581 122.885 100.381 122.686 100.134 122.686C99.8876 122.686 99.6876 122.885 99.6876 123.133ZM99.6876 130.279V133.852C99.6876 134.098 99.8876 134.299 100.134 134.299C100.381 134.299 100.581 134.098 100.581 133.852V130.279C100.581 130.031 100.381 129.832 100.134 129.832C99.8876 129.832 99.6876 130.031 99.6876 130.279ZM99.6876 137.425V138.542C99.6876 139.392 99.746 140.23 99.859 141.05C99.8928 141.294 100.118 141.465 100.362 141.431C100.607 141.398 100.778 141.172 100.744 140.928C100.636 140.148 100.581 139.351 100.581 138.542V137.425C100.581 137.178 100.381 136.978 100.134 136.978C99.8876 136.978 99.6876 137.178 99.6876 137.425ZM100.721 144.603C101.131 145.765 101.656 146.871 102.281 147.911C102.408 148.122 102.682 148.191 102.894 148.063C103.105 147.936 103.173 147.662 103.046 147.45C102.452 146.462 101.953 145.41 101.563 144.306C101.481 144.074 101.226 143.951 100.994 144.033C100.761 144.116 100.639 144.371 100.721 144.603ZM104.469 150.839C105.294 151.739 106.207 152.554 107.196 153.274C107.396 153.419 107.675 153.375 107.82 153.175C107.965 152.976 107.921 152.696 107.721 152.552C106.781 151.867 105.912 151.091 105.128 150.235C104.961 150.054 104.678 150.041 104.497 150.208C104.315 150.375 104.303 150.657 104.469 150.839ZM110.353 155.117C111.453 155.618 112.612 156.013 113.817 156.288C114.057 156.344 114.296 156.193 114.352 155.953C114.407 155.712 114.256 155.473 114.016 155.418C112.871 155.155 111.769 154.78 110.723 154.304C110.499 154.202 110.234 154.301 110.132 154.525C110.03 154.749 110.129 155.014 110.353 155.117ZM117.443 156.741C117.593 156.746 117.743 156.747 117.894 156.747H121.027C121.274 156.747 121.474 156.547 121.474 156.301C121.474 156.053 121.274 155.854 121.027 155.854H117.894C117.75 155.854 117.608 155.852 117.465 155.848C117.219 155.843 117.014 156.037 117.008 156.284C117.002 156.531 117.197 156.736 117.443 156.741ZM124.6 156.747H128.173C128.42 156.747 128.62 156.547 128.62 156.301C128.62 156.053 128.42 155.854 128.173 155.854H124.6C124.354 155.854 124.154 156.053 124.154 156.301C124.154 156.547 124.354 156.747 124.6 156.747ZM131.746 156.747H135.32C135.566 156.747 135.766 156.547 135.766 156.301C135.766 156.053 135.566 155.854 135.32 155.854H131.746C131.5 155.854 131.3 156.053 131.3 156.301C131.3 156.547 131.5 156.747 131.746 156.747ZM138.893 156.747H142.466C142.712 156.747 142.912 156.547 142.912 156.301C142.912 156.053 142.712 155.854 142.466 155.854H138.893C138.646 155.854 138.446 156.053 138.446 156.301C138.446 156.547 138.646 156.747 138.893 156.747ZM146.039 156.747H149.612C149.859 156.747 150.058 156.547 150.058 156.301C150.058 156.053 149.859 155.854 149.612 155.854H146.039C145.792 155.854 145.592 156.053 145.592 156.301C145.592 156.547 145.792 156.747 146.039 156.747ZM153.185 156.747H156.758C157.005 156.747 157.205 156.547 157.205 156.301C157.205 156.053 157.005 155.854 156.758 155.854H153.185C152.938 155.854 152.738 156.053 152.738 156.301C152.738 156.547 152.938 156.747 153.185 156.747ZM160.331 156.747H163.904C164.151 156.747 164.351 156.547 164.351 156.301C164.351 156.053 164.151 155.854 163.904 155.854H160.331C160.084 155.854 159.884 156.053 159.884 156.301C159.884 156.547 160.084 156.747 160.331 156.747ZM167.477 156.747H171.05C171.297 156.747 171.497 156.547 171.497 156.301C171.497 156.053 171.297 155.854 171.05 155.854H167.477C167.231 155.854 167.03 156.053 167.03 156.301C167.03 156.547 167.231 156.747 167.477 156.747ZM174.623 156.747H178.109L178.199 156.746C178.445 156.746 178.644 156.545 178.643 156.298C178.642 156.052 178.441 155.852 178.194 155.853L178.11 155.854H174.623C174.377 155.854 174.177 156.053 174.177 156.301C174.177 156.547 174.377 156.747 174.623 156.747ZM181.834 156.366C183.044 156.114 184.211 155.742 185.32 155.263C185.546 155.165 185.651 154.902 185.553 154.676C185.455 154.45 185.192 154.345 184.965 154.443C183.911 154.898 182.803 155.252 181.651 155.491C181.41 155.541 181.255 155.778 181.306 156.019C181.356 156.26 181.592 156.416 181.834 156.366ZM188.513 153.482C189.517 152.783 190.447 151.984 191.288 151.102C191.458 150.923 191.451 150.641 191.273 150.47C191.094 150.3 190.812 150.307 190.641 150.485C189.841 151.325 188.957 152.084 188.003 152.75C187.801 152.891 187.751 153.17 187.892 153.372C188.033 153.574 188.312 153.624 188.513 153.482ZM193.534 148.217C194.179 147.19 194.725 146.094 195.158 144.942C195.244 144.711 195.128 144.453 194.897 144.366C194.666 144.28 194.408 144.397 194.321 144.627C193.911 145.722 193.392 146.765 192.777 147.742C192.646 147.95 192.708 148.226 192.917 148.358C193.126 148.489 193.402 148.426 193.534 148.217ZM196.091 141.406C196.238 140.473 196.315 139.516 196.315 138.542C196.315 138.295 196.115 138.095 195.869 138.095C195.622 138.095 195.422 138.295 195.422 138.542C195.422 139.469 195.349 140.379 195.209 141.267C195.17 141.511 195.336 141.739 195.58 141.778C195.824 141.816 196.053 141.65 196.091 141.406Z" fill="#17282F"/>
<path d="M407.607 -42.7906V103.017C407.607 112.941 399.558 120.99 389.634 120.99H133.186C123.262 120.99 115.214 112.941 115.214 103.017V-42.7906C115.214 -43.2194 115.232 -43.6392 115.267 -44.059C115.911 -53.3937 123.691 -60.772 133.186 -60.772H389.634C399.13 -60.772 406.91 -53.3937 407.553 -44.059C407.588 -43.6392 407.607 -43.2194 407.607 -42.7906Z" fill="white"/>
<path d="M407.607 -42.7907H407.16V103.017C407.16 107.857 405.198 112.236 402.027 115.409C398.853 118.581 394.474 120.543 389.634 120.543H133.186C128.346 120.543 123.968 118.581 120.794 115.409C117.622 112.236 115.661 107.857 115.66 103.017V-42.7907C115.66 -43.207 115.678 -43.6143 115.712 -44.0216L115.713 -44.0288C116.34 -53.1294 123.928 -60.3264 133.186 -60.3255H389.634C398.893 -60.3264 406.48 -53.1294 407.107 -44.0288L407.108 -44.0225C407.142 -43.6143 407.16 -43.207 407.16 -42.7907H407.607H408.053C408.053 -43.2329 408.035 -43.6652 407.999 -44.0958L407.553 -44.0592L407.999 -44.0904C407.339 -53.6582 399.366 -61.2179 389.634 -61.2188H133.186C123.455 -61.2179 115.482 -53.6582 114.822 -44.0904L115.268 -44.0592L114.822 -44.0976C114.786 -43.6652 114.767 -43.232 114.767 -42.7907V103.017C114.768 113.188 123.016 121.436 133.186 121.436H389.634C399.806 121.436 408.053 113.188 408.053 103.017V-42.7907H407.607Z" fill="#17282F"/>
<path d="M382.934 114.211H140.803C131.5 114.211 123.959 106.67 123.959 97.3675V-37.3227H399.777V97.3675C399.777 106.67 392.236 114.211 382.934 114.211Z" fill="#9183FF"/>
<path d="M399.777 -37.3185H399.331V97.3682C399.331 101.896 397.497 105.993 394.528 108.963C391.559 111.932 387.462 113.768 382.93 113.768H140.801C132.836 113.769 126.201 108.081 124.723 100.552L124.698 100.424L124.599 100.319L124.276 100.628H124.723V100.592V100.549L124.714 100.506C124.514 99.4897 124.41 98.4374 124.41 97.3682V-36.8719H399.777V-37.3185V-37.7651H123.517V97.3682C123.517 98.4955 123.627 99.6049 123.838 100.679L124.276 100.592H123.829V100.628V100.807L123.962 100.946L124.285 100.638L123.847 100.723C125.406 108.666 132.401 114.66 140.801 114.661H382.93C392.485 114.661 400.224 106.914 400.224 97.3682V-37.7651H399.777V-37.3185Z" fill="#17282F"/>
<path d="M165.134 66.3363C159.989 60.6186 151.181 60.155 145.464 65.3002C139.747 70.4445 139.282 79.253 144.428 84.9699C149.573 90.6868 158.381 91.1424 164.098 85.9962C169.815 80.8519 170.279 72.0533 165.134 66.3363ZM193.701 83.1387L194.272 72.3838L183.124 69.2395C182.606 67.0331 181.838 64.8803 180.838 62.8437L187.573 53.384L180.355 45.3714L170.261 51.0794C168.332 49.8735 166.277 48.8819 164.116 48.1405L162.186 36.7067L151.431 36.135L148.323 47.3187C146.107 47.81 143.964 48.5782 141.927 49.5876L132.476 42.8524L124.455 50.07L130.171 60.1719C128.939 62.0933 127.956 64.1478 127.224 66.3095L123.963 66.8455V81.4147L126.33 82.0846C126.831 84.3089 127.599 86.4616 128.617 88.4983L123.963 95.0093L124.276 100.592V100.628L124.285 100.638L129.082 105.962L139.194 100.254C141.123 101.495 143.196 102.496 145.357 103.228L147.197 114.206V114.215L147.287 114.671L158.041 115.243L158.327 114.215V114.206L161.15 104.059C163.383 103.559 165.527 102.799 167.582 101.79L177.015 108.515L185.036 101.308L179.337 91.196C180.552 89.2754 181.534 87.2209 182.249 85.0672L193.701 83.1387Z" fill="#17282F"/>
<path d="M223.412 139.619H138.729C132.865 139.619 128.112 134.867 128.112 129.003V11.7523C128.112 5.8898 132.865 1.13585 138.729 1.13585H223.412C229.275 1.13585 234.028 5.8898 234.028 11.7523V129.003C234.028 134.867 229.275 139.619 223.412 139.619Z" fill="#6CCB94"/>
<path d="M223.413 139.619V139.172H138.729C135.919 139.171 133.379 138.034 131.538 136.194C129.697 134.352 128.559 131.813 128.559 129.003V11.7524C128.559 8.94304 129.697 6.40349 131.538 4.56157C133.379 2.72055 135.919 1.58344 138.729 1.58255H223.413C226.222 1.58344 228.761 2.72055 230.603 4.56157C232.444 6.40349 233.582 8.94304 233.582 11.7524V129.003C233.582 131.813 232.444 134.352 230.603 136.194C228.761 138.034 226.222 139.171 223.413 139.172V139.619V140.066C229.522 140.065 234.475 135.113 234.475 129.003V11.7524C234.475 5.64333 229.523 0.69017 223.413 0.69017H138.729C132.619 0.69017 127.666 5.64333 127.666 11.7524V129.003C127.666 135.113 132.619 140.065 138.729 140.066H223.413V139.619Z" fill="#17282F"/>
<path d="M223.413 139.172H138.729C135.919 139.171 133.379 138.034 131.538 136.194C129.697 134.352 128.559 131.813 128.559 129.003V11.7523C128.559 8.94298 129.697 6.40343 131.538 4.56151C133.379 2.72049 135.919 1.58337 138.729 1.58247H223.413C226.222 1.58337 228.761 2.72049 230.603 4.56151C232.444 6.40343 233.582 8.94298 233.582 11.7523V129.003C233.582 131.813 232.444 134.352 230.603 136.194C228.761 138.034 226.222 139.171 223.413 139.172Z" fill="#7663F8"/>
<path d="M223.412 139.619V139.172C226.222 139.171 228.761 138.034 230.603 136.194C232.444 134.352 233.581 131.813 233.581 129.003V11.7523C233.581 8.94298 232.444 6.40343 230.603 4.56151C228.761 2.72049 226.222 1.58337 223.412 1.58247H138.729C135.919 1.58337 133.379 2.72049 131.537 4.56151C129.697 6.40343 128.559 8.94298 128.559 11.7523V129.003C128.559 131.813 129.697 134.352 131.537 136.194C133.379 138.034 135.919 139.171 138.729 139.172H223.412V139.619H138.729C132.865 139.619 128.112 134.867 128.112 129.003V11.7523C128.112 5.8898 132.865 1.13585 138.729 1.13585H223.412C229.275 1.13585 234.028 5.8898 234.028 11.7523V129.003C234.028 134.867 229.275 139.619 223.412 139.619Z" fill="#111D23"/>
<path d="M243.888 22.2116V139.462C243.888 145.33 239.136 150.083 233.267 150.083H148.586C142.726 150.083 137.974 145.33 137.974 139.462V22.2116C137.974 16.3518 142.726 11.5996 148.586 11.5996H233.267C239.136 11.5996 243.888 16.3518 243.888 22.2116Z" fill="white"/>
<path d="M243.888 22.2115H243.441V139.462C243.441 142.275 242.304 144.815 240.462 146.658C238.62 148.499 236.08 149.636 233.267 149.637H148.586C145.777 149.636 143.239 148.499 141.398 146.658C139.558 144.815 138.421 142.275 138.42 139.462V22.2115C138.421 19.404 139.558 16.8653 141.398 15.0243C143.239 13.1842 145.777 12.0471 148.586 12.0462H233.267C236.08 12.0471 238.62 13.1842 240.462 15.0243C242.304 16.8653 243.441 19.404 243.441 22.2115H243.888H244.335C244.335 16.1052 239.382 11.1538 233.267 11.1529H148.586C142.479 11.1538 137.527 16.1052 137.527 22.2115V139.462C137.527 145.577 142.479 150.529 148.586 150.53H233.267C239.382 150.529 244.335 145.577 244.335 139.462V22.2115H243.888Z" fill="#17282F"/>
<path d="M243.888 22.2116V28.4922H137.974V22.2116C137.974 16.3518 142.726 11.5996 148.586 11.5996H233.267C239.136 11.5996 243.888 16.3518 243.888 22.2116Z" fill="#5A46E3"/>
<path d="M243.888 22.2115H243.441V28.0455H138.42V22.2115C138.421 19.404 139.558 16.8653 141.398 15.0243C143.239 13.1842 145.777 12.047 148.586 12.0462H233.267C236.08 12.047 238.62 13.1842 240.462 15.0243C242.304 16.8653 243.441 19.404 243.441 22.2115H243.888H244.335C244.335 16.1052 239.382 11.1538 233.267 11.1529H148.586C142.479 11.1538 137.527 16.1052 137.527 22.2115V28.9387H244.335V22.2115H243.888Z" fill="#17282F"/>
<path d="M173.991 40.1357H147.934V35.765H173.991V40.1357Z" fill="#9083FF"/>
<path d="M173.991 79.3198H147.934V74.9482H173.991V79.3198Z" fill="#9083FF"/>
<path d="M173.991 114.852H147.934V110.482H173.991V114.852Z" fill="#9083FF"/>
<path d="M221.94 49.7913H147.934V46.5853H221.94V49.7913Z" fill="#17282F"/>
<path d="M208.596 55.8457H147.934V52.7219H208.596V55.8457Z" fill="#17282F"/>
<path d="M216.54 61.877H147.934V58.7532H216.54V61.877Z" fill="#17282F"/>
<path d="M216.54 67.9031H147.934V64.7793H216.54V67.9031Z" fill="#17282F"/>
<path d="M221.94 85.3242H147.934V82.1183H221.94V85.3242Z" fill="#17282F"/>
<path d="M208.596 91.3779H147.934V88.2542H208.596V91.3779Z" fill="#17282F"/>
<path d="M216.54 97.4094H147.934V94.2857H216.54V97.4094Z" fill="#17282F"/>
<path d="M221.94 124.344H147.934V121.138H221.94V124.344Z" fill="#17282F"/>
<path d="M208.596 130.399H147.934V127.274H208.596V130.399Z" fill="#17282F"/>
<path d="M216.54 136.43H147.934V133.305H216.54V136.43Z" fill="#17282F"/>
<path d="M336.903 145.671C336.054 146.109 339.342 136.998 337.778 134.935C336.215 132.862 331.534 133.069 331.534 133.069L331.936 130.576C331.99 130.299 334.714 116.329 334.714 116.329L335.635 115.23C335.635 115.23 345.175 131.586 346.88 137.347C346.88 137.347 336.483 145.671 336.903 145.671ZM275.232 133.631C273.427 134.908 274.392 139.865 274.392 139.865L271.319 137.16L279.027 118.204L282.315 132.755C282.315 132.755 277.036 132.363 275.232 133.631ZM341.503 88.1819L316.974 78.8473L316.67 78.7312C316.67 78.7312 316.76 78.0782 316.831 77.1322C316.983 75.1751 317.064 71.987 316.143 70.9061C314.777 69.3072 310.9 70.6471 307.121 68.9133C303.343 67.1812 296.349 70.2809 296.349 70.2809C296.349 70.2809 291.302 69.3519 289.077 72.9964C287.943 75.9352 288.335 80.3113 288.335 80.3113C288.335 80.3113 288.175 80.3748 287.872 80.482C284.95 81.5708 269.05 87.5566 265.683 89.9595C261.967 92.5938 257.858 119.615 256.536 127.547C255.214 135.489 252.864 142.635 254.061 145.368C255.25 148.092 272.338 161.251 282.164 164.645C291.99 168.049 326.854 167.048 326.854 167.048C326.854 167.048 327.425 166.897 328.435 166.575C334.33 164.68 355.251 156.883 366.345 138.49C366.345 138.49 355.599 103.241 341.503 88.1819Z" fill="#9083FF"/>
<path d="M295.19 29.06L282.53 42.5019C282.53 42.5019 280.784 44.0446 281.478 47.9437C282.172 51.8428 283.788 55.1926 285.009 55.4516C286.229 55.7115 287.94 55.7142 287.94 55.7142C287.94 55.7142 290.653 61.5937 292.575 63.9046C292.575 63.9046 293.245 72.9793 292.887 75.4992C292.887 75.4992 297.436 79.4724 301.72 79.9771C306.004 80.4827 312.623 73.9181 312.623 73.9181L314.264 65.8832C314.264 65.8832 318.147 59.9876 318.412 58.4181C318.677 56.8487 320.453 57.2515 321.325 56.4771C322.198 55.7026 324.217 52.2403 324.55 48.9683C324.884 45.6971 324.907 41.9392 321.106 43.0423C317.813 42.158 319.875 35.1959 319.875 35.1959L314.088 30.09L295.19 29.06Z" fill="white"/>
<path d="M316.781 77.7227C316.798 77.5431 316.815 77.3448 316.831 77.1322C316.983 75.1751 317.063 71.987 316.143 70.9061C317.166 72.1031 316.953 75.8924 316.781 77.7227Z" fill="#849193"/>
<path d="M305.129 91.7549L302.378 83.2956L300.868 91.7549C297.831 90.432 288.568 82.4024 288.568 82.4024C288.568 82.4024 288.256 81.6511 287.871 80.4819C288.175 80.3747 288.335 80.3112 288.335 80.3112C288.335 80.3112 288.27 79.5788 288.27 78.5113C288.27 76.9704 288.407 74.7328 289.077 72.9963C289.085 72.9838 289.092 72.9722 289.1 72.9597C289.101 72.957 289.103 72.9534 289.105 72.9507C289.11 72.9427 289.115 72.9347 289.12 72.9266C290.089 71.3902 291.566 70.6863 292.933 70.3835C293.009 72.4693 293.029 74.4997 292.887 75.4992C292.887 75.4992 297.436 79.4725 301.72 79.9772C301.878 79.9959 302.04 80.0049 302.205 80.0049C306.485 80.0049 312.623 73.9181 312.623 73.9181L313.421 70.0101C314.625 70.0932 315.59 70.2584 316.143 70.906C317.063 71.9869 316.983 75.175 316.831 77.1321L316.322 80.3112L314.218 83.1715C310.801 87.0786 305.129 91.7549 305.129 91.7549Z" fill="#5A46E3"/>
<path d="M302.205 80.0049C302.041 80.0049 301.878 79.9959 301.72 79.9772C297.436 79.4725 292.887 75.4992 292.887 75.4992C293.029 74.4997 293.009 72.4693 292.933 70.3835C293.659 70.2227 294.354 70.1745 294.925 70.1745C295.773 70.1745 296.349 70.2808 296.349 70.2808C296.349 70.2808 300.621 68.3871 304.292 68.3871C305.317 68.3871 306.296 68.5353 307.121 68.9132C309.37 69.9449 311.653 69.8886 313.421 70.0101L312.623 73.9182C312.623 73.9182 306.485 80.0049 302.205 80.0049Z" fill="white"/>
<path d="M328.435 166.575L322.843 160.769L324.692 138.812L329.214 100.146C329.688 96.0855 327.618 92.1614 324.014 90.232C318.829 87.4557 312.695 85.2431 312.695 85.2431L314.218 83.1716C315.13 82.1291 315.882 81.1412 316.322 80.3113C316.563 79.8558 316.778 79.3654 316.974 78.8473L341.503 88.1819C355.599 103.241 366.345 138.49 366.345 138.49C355.251 156.883 334.33 164.68 328.435 166.575ZM336.76 145.456C336.76 145.606 336.788 145.687 336.849 145.687C336.865 145.687 336.882 145.682 336.903 145.671C336.894 145.671 336.89 145.669 336.89 145.663C336.885 145.35 346.88 137.347 346.88 137.347C345.175 131.586 335.635 115.23 335.635 115.23L334.714 116.329C334.714 116.329 334.354 118.177 333.893 120.543C333.835 120.834 333.777 121.133 333.718 121.436C332.934 125.457 331.968 130.412 331.936 130.576L331.534 133.069C331.534 133.069 331.663 133.062 331.885 133.062C333 133.062 336.474 133.206 337.778 134.935C338.087 135.343 338.206 136.024 338.206 136.853C338.205 139.729 336.761 144.373 336.76 145.456Z" fill="#5A46E3"/>
<path d="M316.67 78.7312C316.671 78.7267 316.724 78.3337 316.781 77.7227C316.724 78.3355 316.671 78.7267 316.67 78.7312Z" fill="#50C183"/>
<path d="M314.218 83.1716L316.322 80.3114C315.882 81.1412 315.13 82.1292 314.218 83.1716Z" fill="#86C7A0"/>
<path d="M316.322 80.3113L316.831 77.1321C316.815 77.3447 316.798 77.543 316.781 77.7226C316.724 78.3336 316.671 78.7266 316.67 78.7311L316.974 78.8472C316.778 79.3653 316.563 79.8557 316.322 80.3113Z" fill="#86C7A0"/>
<path d="M277.662 150.986C277.662 150.986 266.657 142.206 262.119 142.206C257.59 142.206 258.394 140.75 262.119 134.935C265.844 129.11 269.868 109.515 269.868 109.515L268.634 93.1109C272.129 97.3977 276.817 111.443 278.98 118.322L278.076 120.543L277.713 121.436L271.319 137.16L274.392 139.865C274.392 139.865 274.135 138.542 274.135 137.087C274.134 135.726 274.359 134.248 275.232 133.631C276.347 132.848 278.786 132.698 280.49 132.698C281.544 132.698 282.315 132.755 282.315 132.755L279.25 119.187C279.826 121.038 280.163 122.188 280.163 122.188L283.977 134.935L276.813 143.662L277.662 150.986Z" fill="#5A46E3"/>
<path d="M279.25 119.187C279.165 118.914 279.075 118.624 278.98 118.323L279.027 118.204L279.25 119.187Z" fill="#C3C5C2"/>
<path d="M292.13 63.9503C292.13 63.9512 292.149 64.137 292.178 64.4675C292.265 65.4581 292.441 67.7244 292.441 69.9263C292.441 71.3921 292.36 72.8365 292.139 73.8209C292.084 74.0612 292.236 74.3006 292.476 74.3542C292.717 74.4078 292.956 74.2568 293.01 74.0156C293.257 72.9062 293.333 71.4269 293.334 69.9263C293.333 66.9294 293.019 63.8672 293.018 63.8592C292.993 63.6136 292.774 63.4358 292.529 63.4608C292.283 63.4858 292.105 63.7047 292.13 63.9503Z" fill="#17282F"/>
<path d="M313.77 72.9921V72.917C313.769 72.4115 313.805 69.4003 314.522 66.54C314.582 66.3006 314.436 66.0576 314.197 65.9978C313.958 65.938 313.715 66.0836 313.655 66.3229C312.908 69.3145 312.878 72.3713 312.877 72.917V73.0028C312.88 73.2493 313.082 73.4467 313.329 73.4441C313.575 73.4405 313.773 73.2386 313.77 72.9921Z" fill="#17282F"/>
<path d="M314.815 34.4627C314.816 34.4636 314.872 34.5351 314.978 34.6744C315.347 35.1639 316.281 36.4574 317.115 38.0349C317.951 39.6106 318.676 41.4784 318.671 43.0559C318.671 43.1488 318.669 43.24 318.663 43.3311C318.48 46.7344 318.216 50.7068 318.215 54.697C318.215 55.3267 318.222 55.9574 318.236 56.5871L318.237 56.6747C318.241 57.7135 317.806 59.1303 317.069 60.6453C315.967 62.9204 314.203 65.4305 312.376 67.4305C311.462 68.431 310.531 69.3037 309.666 69.9584C308.803 70.6132 308 71.0429 307.39 71.1751C305.848 71.5181 304.407 71.7521 303.098 71.7512C301.178 71.7468 299.572 71.2689 298.207 69.9093C295.795 67.4993 293.346 64.0986 290.148 59.7252C289.124 58.3317 288.497 56.2897 288.146 54.2093C287.792 52.1288 287.705 50.0127 287.706 48.4584C287.706 47.7331 287.725 47.1301 287.743 46.7094C287.762 46.2887 287.78 46.0555 287.78 46.0546C287.799 45.809 287.615 45.5946 287.369 45.575C287.124 45.5562 286.909 45.7393 286.89 45.9859C286.889 45.9948 286.813 46.9774 286.813 48.4584C286.813 50.0458 286.9 52.2048 287.265 54.3584C287.633 56.513 288.27 58.6658 289.427 60.2531C292.625 64.6221 295.083 68.0468 297.575 70.5408C299.123 72.0951 301.034 72.6499 303.098 72.6445C304.512 72.6445 306.011 72.3962 307.584 72.0469C308.674 71.7986 309.878 71.008 311.139 69.9057C313.024 68.2487 315.002 65.8682 316.525 63.4465C318.042 61.0186 319.121 58.5791 319.13 56.6747L319.13 56.5657C319.115 55.9449 319.108 55.3205 319.108 54.697C319.108 50.7452 319.372 46.7898 319.556 43.3793C319.561 43.2721 319.565 43.164 319.565 43.0559C319.557 40.955 318.532 38.6986 317.529 36.9344C316.523 35.1738 315.523 33.9187 315.515 33.9071C315.361 33.7142 315.08 33.682 314.887 33.8356C314.694 33.9893 314.661 34.2698 314.815 34.4627Z" fill="#17282F"/>
<path d="M304.715 49.5992C304.491 50.8676 304.377 52.1566 304.377 53.4447C304.376 53.6412 304.379 53.8386 304.384 54.0351C304.422 55.2821 304.588 56.7176 305.579 57.7404C305.842 58.0075 306.125 58.2192 306.33 58.4237C306.538 58.631 306.646 58.8016 306.669 58.9811V58.982L306.675 59.0553C306.675 59.1973 306.618 59.3563 306.498 59.5207C306.38 59.6841 306.204 59.8422 306.017 59.961H306.018C305.591 60.2415 304.998 60.4372 304.466 60.8909C304.28 61.0526 304.26 61.3349 304.422 61.5207C304.584 61.7065 304.866 61.727 305.052 61.5644C305.399 61.2545 305.943 61.0607 306.499 60.7132H306.5C306.765 60.5417 307.021 60.321 307.221 60.0468C307.42 59.7735 307.567 59.4367 307.568 59.0553L307.555 58.8623L307.556 58.8632C307.491 58.3925 307.222 58.0503 306.959 57.7895C306.693 57.5269 306.411 57.3161 306.216 57.1151C305.5 56.3987 305.305 55.2017 305.278 54.011C305.272 53.8225 305.27 53.6331 305.27 53.4447C305.27 52.2093 305.379 50.9721 305.595 49.7555C305.638 49.5125 305.476 49.2803 305.233 49.2374C304.99 49.1945 304.758 49.3562 304.715 49.5992Z" fill="#17282F"/>
<path d="M298.11 61.803C298.118 61.8486 298.253 62.6927 298.953 63.6324C299.651 64.573 300.936 65.5869 303.12 65.9237C303.363 65.9612 303.592 65.795 303.63 65.5512C303.668 65.3073 303.501 65.0786 303.257 65.0411C301.285 64.7294 300.25 63.8692 299.669 63.0983C299.379 62.7115 299.209 62.3426 299.111 62.0755C299.062 61.9424 299.031 61.8334 299.014 61.7619L298.996 61.6824L298.993 61.6664C298.955 61.4225 298.727 61.2555 298.483 61.293C298.239 61.3314 298.073 61.5592 298.11 61.803Z" fill="#17282F"/>
<path d="M298.984 52.0403C298.984 52.9363 298.597 53.6616 298.119 53.6616C297.641 53.6616 297.254 52.9363 297.254 52.0403C297.254 51.1444 297.641 50.4182 298.119 50.4182C298.597 50.4182 298.984 51.1444 298.984 52.0403Z" fill="#17282F"/>
<path d="M311.38 52.4298C311.38 53.3258 310.994 54.052 310.516 54.052C310.038 54.052 309.651 53.3258 309.651 52.4298C309.651 51.5339 310.038 50.8086 310.516 50.8086C310.994 50.8086 311.38 51.5339 311.38 52.4298Z" fill="#17282F"/>
<path d="M309.512 49.1353L309.357 48.9808L309.51 49.1371L309.512 49.1353L309.357 48.9808L309.51 49.1371C309.525 49.121 309.91 48.7494 310.495 48.4002C311.08 48.0473 311.853 47.732 312.633 47.7356C313.085 47.7365 313.546 47.8312 314.039 48.0911C314.531 48.3519 315.063 48.7878 315.61 49.5087C315.908 49.9018 316.469 49.9786 316.862 49.6802C317.255 49.3819 317.331 48.8218 317.033 48.4288C316.36 47.5391 315.63 46.912 314.875 46.5127C314.121 46.1116 313.347 45.9482 312.633 45.9491C311.347 45.9526 310.268 46.4466 309.505 46.912C308.741 47.381 308.282 47.8392 308.248 47.8723C307.899 48.2206 307.899 48.7861 308.248 49.1353C308.597 49.4846 309.163 49.4846 309.512 49.1353Z" fill="#17282F"/>
<path d="M301.019 47.9868C300.977 47.9395 300.634 47.5616 300.002 47.1793C299.372 46.7979 298.438 46.4129 297.264 46.4129C296.09 46.4102 294.711 46.8068 293.246 47.8528C292.844 48.1396 292.75 48.697 293.036 49.099C293.322 49.5009 293.88 49.5947 294.282 49.3089C295.504 48.4433 296.485 48.2021 297.264 48.1994C298.042 48.2003 298.652 48.4522 299.079 48.7086C299.291 48.8363 299.454 48.9641 299.557 49.0552L299.669 49.1588L299.689 49.1794L299.691 49.1811L300.081 48.8229L299.686 49.1758L299.691 49.1811L300.081 48.8229L299.686 49.1758C300.014 49.5438 300.579 49.576 300.947 49.2481C301.315 48.9194 301.347 48.3549 301.019 47.9868Z" fill="#17282F"/>
<path d="M292.887 67.6822C292.887 67.6822 295.356 74.4871 300.87 76.4175C306.384 78.3469 313.706 68.3307 313.706 68.3307L313.322 67.0275C313.322 67.0275 308.526 73.2616 303.188 72.1977C297.852 71.1356 292.574 63.9046 292.574 63.9046L292.887 67.6822Z" fill="#212B4E"/>
<path d="M287.792 55.0311L287.768 55.0383C287.641 55.0812 287.01 55.2697 286.323 55.2679C285.889 55.2688 285.441 55.1937 285.074 54.9945C284.708 54.7918 284.402 54.4827 284.202 53.9074C283.885 52.9802 283.314 51.5617 282.823 50.011C282.33 48.463 281.923 46.7836 281.925 45.4053C281.924 44.8363 281.993 44.3218 282.14 43.8903C282.288 43.458 282.507 43.1105 282.821 42.8407C283.227 42.4959 283.562 42.3879 283.868 42.3861C284.221 42.3852 284.584 42.5469 284.946 42.8381C285.487 43.2722 285.979 43.9788 286.316 44.5737C286.486 44.8703 286.62 45.1391 286.71 45.3321C286.755 45.4286 286.79 45.5062 286.812 45.559L286.845 45.6358C286.937 45.8645 287.198 45.9752 287.427 45.8832C287.655 45.7903 287.765 45.5304 287.673 45.3017C287.665 45.2847 287.302 44.3807 286.669 43.4526C286.352 42.9881 285.967 42.5156 285.507 42.1431C285.049 41.7733 284.498 41.4937 283.868 41.4928C283.326 41.491 282.763 41.7108 282.239 42.1628C281.787 42.5495 281.481 43.0498 281.294 43.6036C281.106 44.1574 281.032 44.7666 281.032 45.4053C281.034 46.9516 281.468 48.6899 281.971 50.2808C282.474 51.8681 283.055 53.3098 283.357 54.1959C283.614 54.9642 284.099 55.4867 284.649 55.7797C285.199 56.0754 285.793 56.1602 286.323 56.1611C287.285 56.1593 288.062 55.8815 288.089 55.8735C288.322 55.7913 288.443 55.5358 288.362 55.3036C288.28 55.0705 288.024 54.949 287.792 55.0311Z" fill="#17282F"/>
<path d="M318.589 57.2866C318.61 57.2902 318.957 57.3599 319.463 57.3599C319.989 57.359 320.69 57.2866 321.371 56.9588C322.051 56.6345 322.7 56.0235 323.029 55.0463C323.331 54.1611 323.91 52.7185 324.414 51.1311C324.917 49.5402 325.352 47.8019 325.354 46.2548C325.354 45.6161 325.279 45.0078 325.091 44.4531C324.904 43.9001 324.597 43.399 324.146 43.0131C323.623 42.5611 323.06 42.3414 322.518 42.3432C321.888 42.3441 321.336 42.6236 320.878 42.9935C320.189 43.5526 319.665 44.3342 319.293 44.981C318.924 45.6268 318.717 46.1387 318.712 46.1512C318.619 46.3798 318.73 46.6407 318.959 46.7327C319.188 46.8256 319.448 46.7148 319.54 46.4861L319.554 46.4531C319.628 46.2771 320.003 45.4267 320.563 44.6496C320.842 44.261 321.168 43.893 321.507 43.6357C321.848 43.3767 322.186 43.2355 322.518 43.2364C322.823 43.2382 323.158 43.3463 323.565 43.6911C323.878 43.9609 324.098 44.3084 324.245 44.7407C324.392 45.1721 324.461 45.6867 324.461 46.2548C324.462 47.634 324.055 49.3124 323.563 50.8614C323.071 52.4121 322.5 53.8315 322.183 54.7578C321.922 55.5108 321.483 55.9065 320.981 56.1548C320.479 56.3996 319.904 56.4675 319.463 56.4666C319.251 56.4666 319.071 56.4523 318.947 56.4371L318.806 56.4175L318.771 56.4121L318.765 56.4103C318.523 56.3621 318.288 56.5184 318.239 56.7605C318.191 57.0026 318.347 57.2375 318.589 57.2866Z" fill="#17282F"/>
<path d="M287.259 52.0403C288.17 51.9992 289.664 51.1113 290.144 50.3359C290.623 49.5606 290.826 48.6494 290.982 47.7517C291.279 46.0313 291.433 44.2867 291.438 42.5413C291.441 41.8588 291.423 41.163 291.622 40.5109C291.83 39.8311 292.26 39.2433 292.721 38.7038C293.868 37.3594 295.25 36.2232 296.34 34.8324C297.43 33.4416 298.232 31.6819 297.937 29.9391C297.937 29.9391 305.391 36.7529 316.136 34.6457C321.921 33.5113 327.473 28.4348 326.797 22.0542C326.557 19.7836 324.888 18.1516 322.721 17.612C319.861 16.901 317.292 18.4249 314.702 19.403C309.979 21.1833 305.357 18.1257 300.585 17.612C296.504 17.1734 291.495 17.679 289.37 21.7371C289.37 21.7371 282.04 22.5973 278.829 28.6188C275.618 34.6386 281.721 42.9736 281.721 42.9736C281.721 42.9736 284.178 40 287.335 46.0206L287.259 52.0403Z" fill="#212B4E"/>
<path d="M315.626 32.6448C315.626 32.6448 313.731 42.5234 318.677 47.3069C318.677 47.3069 319.759 44.3368 320.857 43.6123C320.857 43.6123 323.61 38.3939 319.991 32.6448C316.371 26.8967 315.626 32.6448 315.626 32.6448Z" fill="#212B4E"/>
<path d="M286.426 37.1638C286.416 37.1638 286.406 37.1638 286.396 37.1629C286.149 37.146 285.963 36.9334 285.98 36.6868C286.18 33.7882 287.754 31.1021 289.961 29.1352C292.17 27.1691 295.024 25.9051 297.86 25.9024C298.131 25.9024 298.401 25.914 298.671 25.9381C303.535 26.3741 308.216 28.0007 312.841 28.0007C312.849 28.0007 312.858 28.0007 312.866 28.0007C314.87 27.9998 316.862 27.7015 318.875 26.8823C321.385 25.8613 323.576 23.8345 324.256 21.2878C324.31 21.0886 324.49 20.9573 324.687 20.9573C324.725 20.9573 324.764 20.9618 324.804 20.9725C325.041 21.0368 325.182 21.2816 325.119 21.5201C324.334 24.4178 321.922 26.6027 319.212 27.7095C317.079 28.5787 314.962 28.894 312.87 28.894C312.869 28.894 312.867 28.894 312.866 28.894C308.027 28.8877 303.318 27.2396 298.592 26.8278C298.349 26.8064 298.106 26.7957 297.86 26.7957C297.857 26.7957 297.855 26.7957 297.852 26.7957C295.289 26.7957 292.617 27.9632 290.555 29.8024C288.488 31.6425 287.046 34.141 286.872 36.7476C286.856 36.9834 286.659 37.1638 286.426 37.1638Z" fill="#405158"/>
<path d="M282.162 35.6428C282.158 35.6428 282.155 35.6428 282.151 35.6428C281.904 35.6366 281.709 35.4329 281.714 35.1855C281.829 30.4556 284.924 25.9714 289.308 24.1894C289.363 24.167 289.42 24.1563 289.476 24.1563C289.652 24.1563 289.819 24.2617 289.889 24.435C289.982 24.6637 289.872 24.9245 289.644 25.0165C285.606 26.6458 282.701 30.854 282.607 35.206C282.602 35.4499 282.403 35.6428 282.162 35.6428Z" fill="#405158"/>
<path d="M290.66 73.2974C290.686 73.3198 295.232 78.3471 301.526 80.7312C301.617 80.7651 301.714 80.7696 301.808 80.7419C301.826 80.7365 303.905 80.1336 306.52 78.8026C309.134 77.4708 312.291 75.4145 314.449 72.4613C314.594 72.2621 314.551 71.9825 314.351 71.8369C314.152 71.6922 313.873 71.7351 313.728 71.9343C311.703 74.7124 308.657 76.7142 306.115 78.0067C304.844 78.6534 303.7 79.1251 302.878 79.4333C302.466 79.5869 302.133 79.7004 301.907 79.7754C301.792 79.8129 301.705 79.8406 301.646 79.8585L301.56 79.8844L301.684 80.3131L301.842 79.8951C298.822 78.7553 296.182 76.9518 294.305 75.4341C293.366 74.6748 292.617 73.9879 292.105 73.4913C291.848 73.2438 291.651 73.0437 291.519 72.9062L291.37 72.749L291.321 72.6971C291.156 72.514 290.874 72.5006 290.691 72.6668C290.508 72.832 290.494 73.1143 290.66 73.2974Z" fill="#17282F"/>
<path d="M303.624 52.0405H303.178C303.177 53.9271 302.414 55.6314 301.178 56.8677C299.94 58.1049 298.236 58.8677 296.35 58.8677C294.463 58.8677 292.759 58.1049 291.521 56.8677C290.285 55.6314 289.522 53.9271 289.522 52.0405C289.522 50.1539 290.285 48.4496 291.521 47.2124C292.759 45.9761 294.463 45.2133 296.35 45.2133C298.236 45.2133 299.94 45.9761 301.178 47.2124C302.414 48.4496 303.177 50.1539 303.178 52.0405H303.624H304.071C304.07 47.776 300.613 44.32 296.35 44.32C292.085 44.32 288.629 47.776 288.629 52.0405C288.629 56.304 292.085 59.761 296.35 59.761C300.614 59.761 304.07 56.304 304.071 52.0405H303.624Z" fill="#17282F"/>
<path d="M319.875 52.0405H319.428C319.428 53.9271 318.664 55.6314 317.429 56.8677C316.192 58.1049 314.487 58.8677 312.601 58.8677C310.714 58.8677 309.01 58.1049 307.773 56.8677C306.537 55.6314 305.773 53.9271 305.773 52.0405C305.773 50.1539 306.537 48.4496 307.773 47.2124C309.01 45.9761 310.714 45.2133 312.601 45.2133C314.488 45.2133 316.192 45.9761 317.429 47.2124C318.664 48.4496 319.428 50.1539 319.428 52.0405H319.875H320.321C320.321 47.776 316.865 44.32 312.601 44.32C308.336 44.32 304.88 47.776 304.88 52.0405C304.88 56.304 308.336 59.761 312.601 59.761C316.865 59.761 320.321 56.304 320.321 52.0405H319.875Z" fill="#17282F"/>
<path d="M292.485 69.8469C292.454 69.8531 291.86 69.9755 291.091 70.4007C290.324 70.8241 289.379 71.5574 288.687 72.7768C288.346 73.3842 288.161 74.1863 288.042 75.0903C287.926 75.9925 287.886 76.9921 287.886 77.9586C287.886 80.2927 288.12 82.4374 288.121 82.4464C288.132 82.5491 288.177 82.6429 288.251 82.7161C288.27 82.7286 294.906 89.3174 300.674 92.1517C300.8 92.2133 300.947 92.2124 301.072 92.149C301.197 92.0856 301.285 91.9668 301.31 91.8283L302.634 84.3821L304.7 91.8694C304.738 92.0088 304.844 92.1222 304.98 92.1714C305.117 92.2196 305.271 92.199 305.388 92.1151C305.396 92.1088 307.598 90.5528 310.112 88.3312C312.626 86.1043 315.453 83.2369 316.727 80.5008L316.764 80.3704C316.765 80.3606 317.12 77.6388 317.12 75.1939C317.116 73.9648 317.042 72.8232 316.737 72.0345C316.337 71.0108 315.658 70.4346 315.052 70.1488C314.444 69.8603 313.917 69.8379 313.743 69.837L313.682 69.8379C313.436 69.8504 313.246 70.0603 313.259 70.3069C313.272 70.5534 313.482 70.7428 313.728 70.7303L313.725 70.6695L313.727 70.7303H313.728L313.725 70.6695L313.727 70.7303H313.743C313.832 70.7294 314.232 70.7455 314.667 70.9554C315.103 71.1671 315.581 71.5485 315.906 72.3623C316.129 72.9107 316.231 74.0175 316.226 75.1939C316.226 76.3748 316.14 77.6442 316.052 78.6151C316.009 79.1011 315.966 79.512 315.933 79.8014C315.9 80.0908 315.879 80.2552 315.879 80.2561L316.322 80.3132L315.916 80.1257C314.763 82.6295 311.995 85.4799 309.52 87.6621C308.283 88.7555 307.119 89.6881 306.265 90.3464C305.839 90.676 305.489 90.936 305.247 91.1146C305.005 91.2924 304.873 91.3853 304.872 91.3862L305.13 91.7506L305.561 91.6318L302.97 82.2427C302.915 82.0417 302.727 81.9059 302.518 81.9158C302.31 81.9256 302.136 82.0774 302.1 82.2838L300.43 91.672L300.87 91.7506L301.067 91.3495C298.297 89.9936 295.236 87.672 292.883 85.6925C291.705 84.7027 290.702 83.7979 289.996 83.1422C289.642 82.8144 289.362 82.5482 289.171 82.3642C288.98 82.1811 288.879 82.081 288.879 82.081L288.565 82.3981L289.009 82.3499C289.009 82.3499 288.995 82.2213 288.973 81.9881C288.909 81.2878 288.779 79.6656 288.779 77.9586C288.779 77.0171 288.818 76.0488 288.928 75.2047C289.034 74.3605 289.221 73.637 289.463 73.218C290.058 72.1711 290.863 71.5485 291.524 71.1823C291.854 70.9992 292.146 70.8821 292.352 70.8125C292.456 70.7776 292.537 70.7535 292.591 70.7401L292.65 70.7249L292.663 70.7222C292.904 70.6731 293.06 70.4373 293.012 70.1961C292.963 69.954 292.727 69.7977 292.485 69.8469Z" fill="#17282F"/>
<path d="M282.603 133.005C282.602 133 281.953 128.642 280.869 123.39C279.783 118.133 278.276 112 276.51 108.367C276.403 108.146 276.135 108.054 275.913 108.162C275.692 108.27 275.6 108.537 275.707 108.758C277.4 112.228 278.919 118.348 279.995 123.571C280.533 126.183 280.965 128.576 281.261 130.316C281.41 131.185 281.524 131.891 281.602 132.379C281.679 132.868 281.72 133.136 281.72 133.136C281.755 133.381 281.983 133.549 282.227 133.513C282.471 133.477 282.64 133.249 282.603 133.005Z" fill="#17282F"/>
<path d="M268.271 93.3708C268.271 93.3717 268.472 93.653 268.811 94.1506C269.826 95.6405 272.057 99.0439 273.608 102.301C273.714 102.523 273.98 102.618 274.203 102.512C274.426 102.405 274.52 102.139 274.414 101.917C272.297 97.4726 269.005 92.8634 268.998 92.8518C268.854 92.6508 268.575 92.6043 268.374 92.7473C268.174 92.8911 268.127 93.1698 268.271 93.3708Z" fill="#17282F"/>
<path d="M337.335 106.22C338.245 102.766 339.216 99.738 340.162 97.8059C340.271 97.5844 340.179 97.3173 339.958 97.2083C339.736 97.1002 339.468 97.1922 339.36 97.4138C338.363 99.4522 337.391 102.509 336.472 105.993C336.409 106.231 336.551 106.475 336.79 106.538C337.028 106.601 337.273 106.459 337.335 106.22Z" fill="#17282F"/>
<path d="M331.975 133.14C331.975 133.138 332.092 132.397 332.302 131.126C332.932 127.313 334.404 118.761 336.074 111.402C336.128 111.161 335.977 110.922 335.737 110.867C335.497 110.813 335.257 110.964 335.203 111.204C332.968 121.06 331.093 132.997 331.092 133.002C331.054 133.245 331.22 133.474 331.464 133.513C331.708 133.551 331.936 133.384 331.975 133.14Z" fill="#17282F"/>
<path d="M335.069 116.592C336.793 114.289 339.302 112.574 342.072 111.803C342.31 111.737 342.449 111.492 342.383 111.254C342.316 111.016 342.07 110.877 341.833 110.943C338.868 111.769 336.201 113.594 334.354 116.057C334.206 116.255 334.246 116.534 334.444 116.682C334.641 116.83 334.921 116.79 335.069 116.592Z" fill="#17282F"/>
<path d="M316.508 79.1447C316.511 79.1456 331.602 85.1743 341.359 88.6035L341.508 88.1828L341.201 88.5079L341.23 88.5356C341.884 89.1734 353.486 100.865 365.917 138.631L366.341 138.492L365.957 138.264C365.957 138.264 365.914 138.335 365.825 138.479C364.479 140.641 352.855 158.329 332.046 164.219C331.81 164.286 331.671 164.533 331.739 164.771C331.806 165.007 332.053 165.146 332.29 165.078C354.883 158.66 366.695 138.757 366.725 138.72C366.791 138.609 366.806 138.475 366.766 138.352C353.898 99.2611 341.879 87.9193 341.813 87.8576L341.656 87.7612C336.794 86.0523 330.588 83.6905 325.599 81.7557C323.105 80.7883 320.914 79.9281 319.348 79.31C317.781 78.6918 316.841 78.3167 316.839 78.3149C316.61 78.2237 316.35 78.3354 316.259 78.5641C316.167 78.7937 316.278 79.0536 316.508 79.1447Z" fill="#17282F"/>
<path d="M336.345 146.724L347.165 137.689L346.879 137.346L347.149 137.702L347.178 137.68C347.503 137.438 350.479 135.37 354.139 135.378C355.477 135.379 356.905 135.647 358.357 136.372C358.577 136.482 358.845 136.392 358.956 136.172C359.066 135.951 358.976 135.683 358.756 135.573C357.173 134.781 355.596 134.484 354.139 134.484C349.879 134.493 346.647 136.969 346.608 136.991L346.592 137.003L335.772 146.038C335.583 146.196 335.557 146.478 335.715 146.668C335.873 146.857 336.155 146.882 336.345 146.724Z" fill="#17282F"/>
<path d="M335.269 115.484C335.269 115.485 335.407 115.686 335.655 116.063C336.522 117.378 338.729 120.8 340.965 124.859C343.2 128.916 345.464 133.621 346.446 137.457C346.507 137.697 346.75 137.84 346.99 137.779C347.228 137.718 347.372 137.474 347.311 137.236C346.144 132.691 343.32 127.15 340.788 122.719C338.255 118.291 336.012 114.988 336.008 114.982C335.869 114.778 335.592 114.724 335.388 114.863C335.183 115.001 335.131 115.279 335.269 115.484Z" fill="#17282F"/>
<path d="M274.797 140.042L271.631 137.023C271.566 136.961 271.487 136.922 271.4 136.906C271.378 136.902 270.885 136.817 270.048 136.817C268.232 136.817 264.783 137.219 261.05 139.722C260.846 139.86 260.791 140.137 260.929 140.342C261.065 140.547 261.343 140.601 261.548 140.464C265.103 138.081 268.36 137.712 270.048 137.711C270.437 137.711 270.741 137.73 270.946 137.75C271.049 137.76 271.126 137.769 271.176 137.776L271.232 137.784L271.245 137.786L271.323 137.346L271.015 137.67L274.18 140.689C274.359 140.859 274.642 140.852 274.812 140.674C274.983 140.495 274.975 140.212 274.797 140.042Z" fill="#17282F"/>
<path d="M271.75 137.477C271.751 137.474 271.994 136.674 272.423 135.362C273.704 131.43 276.649 122.915 279.521 117.982C279.645 117.769 279.573 117.495 279.36 117.371C279.146 117.247 278.873 117.319 278.749 117.533C276.783 120.916 274.828 125.825 273.354 129.901C271.882 133.976 270.897 137.211 270.895 137.216C270.824 137.452 270.957 137.702 271.193 137.773C271.428 137.846 271.678 137.713 271.75 137.477Z" fill="#17282F"/>
<path d="M288.175 79.895C288.172 79.8959 282.742 81.9334 277.042 84.2693C274.19 85.4377 271.272 86.6803 268.926 87.7834C267.752 88.3346 266.722 88.8509 265.909 89.31C265.093 89.7736 264.506 90.156 264.161 90.5338C263.945 90.783 263.799 91.1162 263.609 91.6039C262.928 93.4083 261.992 97.2324 260.946 102.085C259.38 109.356 257.586 118.893 256.165 127.076C255.454 131.167 254.836 134.918 254.386 137.879C253.936 140.844 253.655 142.999 253.615 143.964L253.613 144.061C253.616 144.784 253.921 145.525 254.42 146.308C255.297 147.674 256.803 149.191 258.69 150.788C264.349 155.57 273.451 161.03 278.926 163.925C279.144 164.041 279.415 163.958 279.53 163.74C279.645 163.522 279.561 163.251 279.343 163.136C275.209 160.951 268.948 157.264 263.742 153.549C261.139 151.692 258.797 149.826 257.125 148.153C256.289 147.317 255.621 146.528 255.173 145.826C254.721 145.125 254.503 144.513 254.506 144.061L254.507 144C254.556 142.758 255.101 138.913 255.922 133.883C257.153 126.327 259.006 116.029 260.75 107.405C261.622 103.093 262.467 99.1985 263.191 96.2784C263.553 94.8188 263.885 93.6022 264.173 92.7053C264.317 92.2578 264.45 91.8898 264.566 91.6165C264.68 91.3458 264.79 91.1636 264.825 91.1305C265.012 90.9152 265.569 90.5231 266.348 90.0872C269.091 88.5383 274.646 86.1881 279.49 84.2399C281.913 83.2644 284.164 82.3872 285.808 81.7539C287.453 81.1206 288.486 80.732 288.489 80.7311C288.72 80.6445 288.837 80.3872 288.75 80.1567C288.664 79.9254 288.406 79.8084 288.175 79.895Z" fill="#17282F"/>
<path d="M304.568 95.7068C304.568 96.4947 303.928 97.1343 303.14 97.1343C302.351 97.1343 301.712 96.4947 301.712 95.7068C301.712 94.9181 302.351 94.2785 303.14 94.2785C303.928 94.2785 304.568 94.9181 304.568 95.7068Z" fill="#17282F"/>
<path d="M329.69 172.003H280.28C279.64 172.003 279.121 171.485 279.121 170.845C279.121 170.205 279.64 169.686 280.28 169.686H329.69C330.33 169.686 330.848 170.205 330.848 170.845C330.848 171.485 330.33 172.003 329.69 172.003Z" fill="#17282F"/>
<path d="M331.42 168.163L338.041 137.068C338.48 135.01 336.909 133.071 334.805 133.071H277.075C274.991 133.071 273.425 134.976 273.829 137.021L279.765 167.08C280.066 168.602 281.384 169.711 282.936 169.747L328.108 170.782C329.697 170.819 331.089 169.718 331.42 168.163Z" fill="white"/>
<path d="M331.42 168.163L331.857 168.256L338.478 137.161C338.534 136.897 338.562 136.633 338.562 136.373C338.562 134.349 336.922 132.626 334.805 132.625H277.075C274.961 132.626 273.318 134.347 273.318 136.373C273.318 136.615 273.342 136.86 273.391 137.107L279.326 167.167C279.669 168.895 281.164 170.153 282.925 170.194L328.097 171.228L328.185 171.23C329.952 171.229 331.486 169.993 331.857 168.256L331.42 168.163L330.983 168.07C330.701 169.393 329.531 170.336 328.185 170.336L328.118 170.336L282.946 169.3C281.603 169.27 280.464 168.311 280.203 166.994L274.267 136.935C274.229 136.744 274.212 136.557 274.212 136.373C274.212 135.604 274.524 134.89 275.04 134.367C275.556 133.845 276.267 133.518 277.075 133.518H334.805C335.614 133.518 336.325 133.846 336.841 134.368C337.357 134.891 337.668 135.604 337.668 136.373C337.668 136.57 337.648 136.772 337.604 136.976L330.983 168.07L331.42 168.163Z" fill="#17282F"/>
<path d="M310.352 150.99C310.352 153.536 308.288 155.599 305.743 155.599C303.197 155.599 301.135 153.536 301.135 150.99C301.135 148.445 303.197 146.381 305.743 146.381C308.288 146.381 310.352 148.445 310.352 150.99Z" fill="#9083FF"/>
<path d="M319.411 136.467H326.269C326.516 136.467 326.716 136.268 326.716 136.021C326.716 135.774 326.516 135.574 326.269 135.574H319.411C319.164 135.574 318.964 135.774 318.964 136.021C318.964 136.268 319.164 136.467 319.411 136.467Z" fill="#17282F"/>
<path d="M286.656 136.467H312.692C312.938 136.467 313.138 136.268 313.138 136.021C313.138 135.774 312.938 135.574 312.692 135.574H286.656C286.408 135.574 286.209 135.774 286.209 136.021C286.209 136.268 286.408 136.467 286.656 136.467Z" fill="#17282F"/>
<path d="M331.533 201.151L326.269 214.963C326.269 214.963 312.85 211.581 295.654 208.057C277.674 204.373 258.894 199.602 249.153 182.512C247.966 180.43 247.175 177.968 247.731 175.635C249.138 169.732 256.816 168.13 261.878 167.539C265.055 167.168 268.262 167.045 271.459 167C273.088 166.977 278.464 166.124 279.765 167.081C279.766 167.081 283.139 169.563 286.013 170.783C288.888 172.003 330.848 169.686 330.848 169.686C330.848 169.686 332.096 167.053 332.168 164.648C338.764 161.296 354.037 158.457 360.491 159.711C370.64 161.684 376.559 167.604 375.432 173.806C374.305 180.008 351.908 196.64 331.533 201.151Z" fill="#212B4E"/>
<path d="M331.648 200.719C331.647 200.719 331.454 200.668 331.088 200.563C328.526 199.828 317.642 196.47 308.589 190.351C303.864 187.16 299.586 183.713 294.928 181.05C290.273 178.388 285.223 176.516 279.014 176.518C277.782 176.518 276.505 176.591 275.177 176.746C274.932 176.774 274.757 176.996 274.785 177.241C274.814 177.486 275.035 177.661 275.28 177.633C276.575 177.482 277.818 177.411 279.014 177.411C285.04 177.412 289.908 179.213 294.484 181.826C299.059 184.439 303.325 187.87 308.089 191.091C318.603 198.191 331.395 201.574 331.419 201.583C331.658 201.647 331.901 201.504 331.965 201.266C332.028 201.028 331.886 200.783 331.648 200.719Z" fill="white"/>
<path d="M306.064 189.487C312.771 187.553 317.653 183.238 322.924 179.161C328.513 174.833 334.412 170.652 340.741 167.451C340.962 167.339 341.05 167.071 340.939 166.851C340.827 166.631 340.559 166.543 340.338 166.654C333.93 169.896 327.986 174.111 322.377 178.455C317.075 182.563 312.284 186.77 305.816 188.629C305.58 188.697 305.443 188.944 305.511 189.181C305.579 189.418 305.826 189.555 306.064 189.487Z" fill="white"/>
<path d="M303.624 53.6384H305.557C305.804 53.6384 306.004 53.4383 306.004 53.1918C306.004 52.9453 305.804 52.7452 305.557 52.7452H303.624C303.378 52.7452 303.178 52.9453 303.178 53.1918C303.178 53.4383 303.378 53.6384 303.624 53.6384Z" fill="#17282F"/>
</g>
<defs>
<clipPath id="clip0_391_2583">
<rect width="522" height="178" fill="white"/>
</clipPath>
</defs>
</svg>
