<svg width="451" height="505" viewBox="0 0 451 505" fill="none" xmlns="http://www.w3.org/2000/svg">
<g opacity="0.1">
<path fill-rule="evenodd" clip-rule="evenodd" d="M62.0608 129.429C61.741 131.287 61.1457 133.725 60.7379 134.849C60.33 135.972 59.7657 137.675 59.4838 138.632C58.6012 141.631 54.0995 150.654 51.5437 154.548C40.1705 171.875 21.3536 185.099 3.33811 188.427L0 189.044L2.71083 189.891C4.20154 190.358 6.21622 190.89 7.18789 191.074C10.1688 191.639 20.7927 196 23.8957 197.932C24.4368 198.268 25.9866 199.216 27.3396 200.037C44.1634 210.247 58.0477 229.846 62.0559 249.042C62.5415 251.369 62.9548 253.138 62.9739 252.974C63.1334 251.595 66.0543 240.819 66.3844 240.393C66.6176 240.091 66.9664 239.179 67.1593 238.366C67.3521 237.553 68.6721 234.531 70.093 231.65C77.5672 216.493 89.9371 203.994 104.825 196.553C109.91 194.012 118.137 190.886 119.911 190.822C120.409 190.803 122.034 190.386 123.522 189.893L126.228 188.998L123.522 188.628C117.049 187.745 104.383 182.485 97.4473 177.799C93.5439 175.162 86.3619 169.278 83.961 166.749C74.7299 157.028 67.4943 144.014 64.4533 131.663C62.9941 125.735 62.7383 125.496 62.0608 129.429Z" fill="#9183FF"/>
<path fill-rule="evenodd" clip-rule="evenodd" d="M188.149 129.429C187.829 131.287 187.234 133.725 186.826 134.849C186.418 135.972 185.854 137.675 185.572 138.632C184.689 141.631 180.187 150.654 177.632 154.548C166.258 171.875 147.442 185.099 129.426 188.427L126.088 189.044L128.799 189.891C130.289 190.358 132.304 190.89 133.276 191.074C136.257 191.639 146.881 196 149.984 197.932C150.525 198.268 152.075 199.216 153.428 200.037C170.251 210.247 184.136 229.846 188.144 249.042C188.629 251.369 189.043 253.138 189.062 252.974C189.221 251.595 192.142 240.819 192.472 240.393C192.706 240.091 193.054 239.179 193.247 238.366C193.44 237.553 194.76 234.531 196.181 231.65C203.655 216.493 216.025 203.994 230.913 196.553C235.998 194.012 244.225 190.886 245.999 190.822C246.497 190.803 248.122 190.386 249.61 189.893L252.316 188.998L249.61 188.628C243.137 187.745 230.471 182.485 223.535 177.799C219.632 175.162 212.45 169.278 210.049 166.749C200.818 157.028 193.582 144.014 190.541 131.663C189.082 125.735 188.826 125.496 188.149 129.429Z" fill="#9183FF"/>
<path fill-rule="evenodd" clip-rule="evenodd" d="M62.0608 3.45832C61.741 5.31595 61.1457 7.75449 60.7379 8.87802C60.33 10.0016 59.7657 11.704 59.4838 12.6614C58.6012 15.66 54.0995 24.683 51.5437 28.5769C40.1705 45.9038 21.3536 59.128 3.33811 62.4563L0 63.0731L2.71083 63.9206C4.20154 64.3871 6.21622 64.9193 7.18789 65.1033C10.1688 65.6688 20.7927 70.0291 23.8957 71.9609C24.4368 72.2976 25.9866 73.245 27.3396 74.0662C44.1634 84.2759 58.0477 103.875 62.0559 123.071C62.5415 125.398 62.9548 127.168 62.9739 127.003C63.1334 125.624 66.0543 114.848 66.3844 114.422C66.6176 114.12 66.9664 113.208 67.1593 112.396C67.3521 111.582 68.6721 108.56 70.093 105.679C77.5672 90.5227 89.9371 78.0231 104.825 70.5827C109.91 68.0412 118.137 64.9153 119.911 64.8511C120.409 64.8327 122.034 64.4149 123.522 63.9226L126.228 63.0273L123.522 62.6578C117.049 61.774 104.383 56.5139 97.4473 51.8283C93.5439 49.1913 86.3619 43.3071 83.961 40.7785C74.7299 31.0577 67.4943 18.0433 64.4533 5.69195C62.9941 -0.236055 62.7383 -0.474787 62.0608 3.45832Z" fill="#9183FF"/>
<path fill-rule="evenodd" clip-rule="evenodd" d="M188.149 3.45832C187.829 5.31595 187.234 7.75449 186.826 8.87802C186.418 10.0016 185.854 11.704 185.572 12.6614C184.689 15.66 180.187 24.683 177.632 28.5769C166.258 45.9038 147.442 59.128 129.426 62.4563L126.088 63.0731L128.799 63.9206C130.289 64.3871 132.304 64.9193 133.276 65.1033C136.257 65.6688 146.881 70.0291 149.984 71.9609C150.525 72.2976 152.075 73.245 153.428 74.0662C170.251 84.2759 184.136 103.875 188.144 123.071C188.629 125.398 189.043 127.168 189.062 127.003C189.221 125.624 192.142 114.848 192.472 114.422C192.706 114.12 193.054 113.208 193.247 112.396C193.44 111.582 194.76 108.56 196.181 105.679C203.655 90.5227 216.025 78.0231 230.913 70.5827C235.998 68.0412 244.225 64.9153 245.999 64.8511C246.497 64.8327 248.122 64.4149 249.61 63.9226L252.316 63.0273L249.61 62.6578C243.137 61.774 230.471 56.5139 223.535 51.8283C219.632 49.1913 212.45 43.3071 210.049 40.7785C200.818 31.0577 193.582 18.0433 190.541 5.69195C189.082 -0.236055 188.826 -0.474787 188.149 3.45832Z" fill="#9183FF"/>
<path fill-rule="evenodd" clip-rule="evenodd" d="M313.745 129.429C313.425 131.287 312.83 133.725 312.422 134.849C312.014 135.972 311.449 137.675 311.168 138.632C310.285 141.631 305.783 150.654 303.227 154.548C291.854 171.875 273.037 185.099 255.022 188.427L251.684 189.044L254.395 189.891C255.885 190.358 257.9 190.89 258.872 191.074C261.853 191.639 272.476 196 275.579 197.932C276.121 198.268 277.67 199.216 279.023 200.037C295.847 210.247 309.731 229.846 313.74 249.042C314.225 251.369 314.639 253.138 314.658 252.974C314.817 251.595 317.738 240.819 318.068 240.393C318.301 240.091 318.65 239.179 318.843 238.366C319.036 237.553 320.356 234.531 321.777 231.65C329.251 216.493 341.621 203.994 356.509 196.553C361.593 194.012 369.821 190.886 371.595 190.822C372.093 190.803 373.718 190.386 375.206 189.893L377.912 188.998L375.206 188.628C368.733 187.745 356.067 182.485 349.131 177.799C345.228 175.162 338.046 169.278 335.645 166.749C326.414 157.028 319.178 144.014 316.137 131.663C314.678 125.735 314.422 125.496 313.745 129.429Z" fill="#9183FF"/>
<path fill-rule="evenodd" clip-rule="evenodd" d="M439.833 129.429C439.513 131.287 438.918 133.725 438.51 134.849C438.102 135.972 437.538 137.675 437.256 138.632C436.373 141.631 431.871 150.654 429.315 154.548C417.942 171.875 399.125 185.099 381.11 188.427L377.772 189.044L380.483 189.891C381.973 190.358 383.988 190.89 384.96 191.074C387.941 191.639 398.565 196 401.667 197.932C402.209 198.268 403.758 199.216 405.111 200.037C421.935 210.247 435.819 229.846 439.828 249.042C440.313 251.369 440.727 253.138 440.746 252.974C440.905 251.595 443.826 240.819 444.156 240.393C444.389 240.091 444.738 239.179 444.931 238.366C445.124 237.553 446.444 234.531 447.865 231.65C455.339 216.493 467.709 203.994 482.597 196.553C487.682 194.012 495.909 190.886 497.683 190.822C498.181 190.803 499.806 190.386 501.294 189.893L504 188.998L501.294 188.628C494.821 187.745 482.155 182.485 475.219 177.799C471.316 175.162 464.134 169.278 461.733 166.749C452.502 157.028 445.266 144.014 442.225 131.663C440.766 125.735 440.51 125.496 439.833 129.429Z" fill="#9183FF"/>
<path fill-rule="evenodd" clip-rule="evenodd" d="M313.745 3.45832C313.425 5.31595 312.829 7.75449 312.422 8.87802C312.014 10.0016 311.449 11.704 311.167 12.6614C310.285 15.66 305.783 24.683 303.227 28.5769C291.854 45.9038 273.037 59.128 255.022 62.4563L251.684 63.0731L254.395 63.9206C255.885 64.3871 257.9 64.9193 258.872 65.1033C261.853 65.6688 272.476 70.0291 275.579 71.9609C276.121 72.2976 277.67 73.245 279.023 74.0662C295.847 84.2759 309.731 103.875 313.74 123.071C314.225 125.398 314.638 127.168 314.658 127.003C314.817 125.624 317.738 114.848 318.068 114.422C318.301 114.12 318.65 113.208 318.843 112.396C319.036 111.582 320.356 108.56 321.777 105.679C329.251 90.5227 341.621 78.0231 356.509 70.5827C361.593 68.0412 369.821 64.9153 371.595 64.8511C372.093 64.8327 373.718 64.4149 375.206 63.9226L377.912 63.0273L375.206 62.6578C368.733 61.774 356.066 56.5139 349.131 51.8283C345.228 49.1913 338.046 43.3071 335.645 40.7785C326.414 31.0577 319.178 18.0433 316.137 5.69195C314.678 -0.236055 314.422 -0.474787 313.745 3.45832Z" fill="#9183FF"/>
<path fill-rule="evenodd" clip-rule="evenodd" d="M439.833 3.45832C439.513 5.31595 438.917 7.75449 438.51 8.87802C438.102 10.0016 437.537 11.704 437.256 12.6614C436.373 15.66 431.871 24.683 429.315 28.5769C417.942 45.9038 399.125 59.128 381.11 62.4563L377.772 63.0731L380.483 63.9206C381.973 64.3871 383.988 64.9193 384.96 65.1033C387.941 65.6688 398.564 70.0291 401.667 71.9609C402.209 72.2976 403.758 73.245 405.111 74.0662C421.935 84.2759 435.819 103.875 439.828 123.071C440.313 125.398 440.726 127.168 440.746 127.003C440.905 125.624 443.826 114.848 444.156 114.422C444.389 114.12 444.738 113.208 444.931 112.396C445.124 111.582 446.444 108.56 447.865 105.679C455.339 90.5227 467.709 78.0231 482.597 70.5827C487.681 68.0412 495.909 64.9153 497.683 64.8511C498.181 64.8327 499.806 64.4149 501.294 63.9226L504 63.0273L501.294 62.6578C494.821 61.774 482.154 56.5139 475.219 51.8283C471.316 49.1913 464.134 43.3071 461.733 40.7785C452.502 31.0577 445.266 18.0433 442.225 5.69195C440.766 -0.236055 440.51 -0.474787 439.833 3.45832Z" fill="#9183FF"/>
<path fill-rule="evenodd" clip-rule="evenodd" d="M62.0608 381.371C61.741 383.229 61.1457 385.667 60.7379 386.791C60.33 387.914 59.7657 389.617 59.4838 390.574C58.6012 393.573 54.0995 402.596 51.5437 406.49C40.1705 423.817 21.3536 437.041 3.33811 440.369L0 440.986L2.71083 441.833C4.20154 442.3 6.21622 442.832 7.18789 443.016C10.1688 443.581 20.7927 447.942 23.8957 449.874C24.4368 450.21 25.9866 451.158 27.3396 451.979C44.1634 462.189 58.0477 481.788 62.0559 500.984C62.5415 503.311 62.9548 505.08 62.9739 504.916C63.1334 503.537 66.0543 492.761 66.3844 492.335C66.6176 492.033 66.9664 491.121 67.1593 490.308C67.3521 489.495 68.6721 486.473 70.093 483.592C77.5672 468.435 89.9371 455.936 104.825 448.495C109.91 445.954 118.137 442.828 119.911 442.764C120.409 442.745 122.034 442.328 123.522 441.835L126.228 440.94L123.522 440.57C117.049 439.687 104.383 434.427 97.4473 429.741C93.5439 427.104 86.3619 421.22 83.961 418.691C74.7299 408.97 67.4943 395.956 64.4533 383.605C62.9941 377.677 62.7383 377.438 62.0608 381.371Z" fill="#9183FF"/>
<path fill-rule="evenodd" clip-rule="evenodd" d="M188.149 381.371C187.829 383.229 187.234 385.667 186.826 386.791C186.418 387.914 185.854 389.617 185.572 390.574C184.689 393.573 180.187 402.596 177.632 406.49C166.258 423.817 147.442 437.041 129.426 440.369L126.088 440.986L128.799 441.833C130.289 442.3 132.304 442.832 133.276 443.016C136.257 443.581 146.881 447.942 149.984 449.874C150.525 450.21 152.075 451.158 153.428 451.979C170.251 462.189 184.136 481.788 188.144 500.984C188.629 503.311 189.043 505.08 189.062 504.916C189.221 503.537 192.142 492.761 192.472 492.335C192.706 492.033 193.054 491.121 193.247 490.308C193.44 489.495 194.76 486.473 196.181 483.592C203.655 468.435 216.025 455.936 230.913 448.495C235.998 445.954 244.225 442.828 245.999 442.764C246.497 442.745 248.122 442.328 249.61 441.835L252.316 440.94L249.61 440.57C243.137 439.687 230.471 434.427 223.535 429.741C219.632 427.104 212.45 421.22 210.049 418.691C200.818 408.97 193.582 395.956 190.541 383.605C189.082 377.677 188.826 377.438 188.149 381.371Z" fill="#9183FF"/>
<path fill-rule="evenodd" clip-rule="evenodd" d="M62.0608 255.4C61.741 257.258 61.1457 259.696 60.7379 260.82C60.33 261.943 59.7657 263.646 59.4838 264.603C58.6012 267.602 54.0995 276.625 51.5437 280.519C40.1705 297.846 21.3536 311.07 3.33811 314.398L0 315.015L2.71083 315.862C4.20154 316.329 6.21622 316.861 7.18789 317.045C10.1688 317.611 20.7927 321.971 23.8957 323.903C24.4368 324.239 25.9866 325.187 27.3396 326.008C44.1634 336.218 58.0477 355.817 62.0559 375.013C62.5415 377.34 62.9548 379.109 62.9739 378.945C63.1334 377.566 66.0543 366.79 66.3844 366.364C66.6176 366.062 66.9664 365.15 67.1593 364.337C67.3521 363.524 68.6721 360.502 70.093 357.621C77.5672 342.465 89.9371 329.965 104.825 322.524C109.91 319.983 118.137 316.857 119.911 316.793C120.409 316.774 122.034 316.357 123.522 315.864L126.228 314.969L123.522 314.6C117.049 313.716 104.383 308.456 97.4473 303.77C93.5439 301.133 86.3619 295.249 83.961 292.72C74.7299 282.999 67.4943 269.985 64.4533 257.634C62.9941 251.706 62.7383 251.467 62.0608 255.4Z" fill="#9183FF"/>
<path fill-rule="evenodd" clip-rule="evenodd" d="M188.149 255.4C187.829 257.258 187.234 259.696 186.826 260.82C186.418 261.943 185.854 263.646 185.572 264.603C184.689 267.602 180.187 276.625 177.632 280.519C166.258 297.846 147.442 311.07 129.426 314.398L126.088 315.015L128.799 315.862C130.289 316.329 132.304 316.861 133.276 317.045C136.257 317.611 146.881 321.971 149.984 323.903C150.525 324.239 152.075 325.187 153.428 326.008C170.251 336.218 184.136 355.817 188.144 375.013C188.629 377.34 189.043 379.109 189.062 378.945C189.221 377.566 192.142 366.79 192.472 366.364C192.706 366.062 193.054 365.15 193.247 364.337C193.44 363.524 194.76 360.502 196.181 357.621C203.655 342.465 216.025 329.965 230.913 322.524C235.998 319.983 244.225 316.857 245.999 316.793C246.497 316.774 248.122 316.357 249.61 315.864L252.316 314.969L249.61 314.6C243.137 313.716 230.471 308.456 223.535 303.77C219.632 301.133 212.45 295.249 210.049 292.72C200.818 282.999 193.582 269.985 190.541 257.634C189.082 251.706 188.826 251.467 188.149 255.4Z" fill="#9183FF"/>
<path fill-rule="evenodd" clip-rule="evenodd" d="M313.745 381.371C313.425 383.229 312.83 385.667 312.422 386.791C312.014 387.914 311.449 389.617 311.168 390.574C310.285 393.573 305.783 402.596 303.227 406.49C291.854 423.817 273.037 437.041 255.022 440.369L251.684 440.986L254.395 441.833C255.885 442.3 257.9 442.832 258.872 443.016C261.853 443.581 272.476 447.942 275.579 449.874C276.121 450.21 277.67 451.158 279.023 451.979C295.847 462.189 309.731 481.788 313.74 500.984C314.225 503.311 314.639 505.08 314.658 504.916C314.817 503.537 317.738 492.761 318.068 492.335C318.301 492.033 318.65 491.121 318.843 490.308C319.036 489.495 320.356 486.473 321.777 483.592C329.251 468.435 341.621 455.936 356.509 448.495C361.593 445.954 369.821 442.828 371.595 442.764C372.093 442.745 373.718 442.328 375.206 441.835L377.912 440.94L375.206 440.57C368.733 439.687 356.067 434.427 349.131 429.741C345.228 427.104 338.046 421.22 335.645 418.691C326.414 408.97 319.178 395.956 316.137 383.605C314.678 377.677 314.422 377.438 313.745 381.371Z" fill="#9183FF"/>
<path fill-rule="evenodd" clip-rule="evenodd" d="M439.833 381.371C439.513 383.229 438.918 385.667 438.51 386.791C438.102 387.914 437.538 389.617 437.256 390.574C436.373 393.573 431.871 402.596 429.315 406.49C417.942 423.817 399.125 437.041 381.11 440.369L377.772 440.986L380.483 441.833C381.973 442.3 383.988 442.832 384.96 443.016C387.941 443.581 398.565 447.942 401.667 449.874C402.209 450.21 403.758 451.158 405.111 451.979C421.935 462.189 435.819 481.788 439.828 500.984C440.313 503.311 440.727 505.08 440.746 504.916C440.905 503.537 443.826 492.761 444.156 492.335C444.389 492.033 444.738 491.121 444.931 490.308C445.124 489.495 446.444 486.473 447.865 483.592C455.339 468.435 467.709 455.936 482.597 448.495C487.682 445.954 495.909 442.828 497.683 442.764C498.181 442.745 499.806 442.328 501.294 441.835L504 440.94L501.294 440.57C494.821 439.687 482.155 434.427 475.219 429.741C471.316 427.104 464.134 421.22 461.733 418.691C452.502 408.97 445.266 395.956 442.225 383.605C440.766 377.677 440.51 377.438 439.833 381.371Z" fill="#9183FF"/>
<path fill-rule="evenodd" clip-rule="evenodd" d="M313.745 255.4C313.425 257.258 312.829 259.696 312.422 260.82C312.014 261.943 311.449 263.646 311.167 264.603C310.285 267.602 305.783 276.625 303.227 280.519C291.854 297.846 273.037 311.07 255.022 314.398L251.684 315.015L254.395 315.862C255.885 316.329 257.9 316.861 258.872 317.045C261.853 317.611 272.476 321.971 275.579 323.903C276.121 324.239 277.67 325.187 279.023 326.008C295.847 336.218 309.731 355.817 313.74 375.013C314.225 377.34 314.638 379.109 314.658 378.945C314.817 377.566 317.738 366.79 318.068 366.364C318.301 366.062 318.65 365.15 318.843 364.337C319.036 363.524 320.356 360.502 321.777 357.621C329.251 342.465 341.621 329.965 356.509 322.524C361.593 319.983 369.821 316.857 371.595 316.793C372.093 316.774 373.718 316.357 375.206 315.864L377.912 314.969L375.206 314.6C368.733 313.716 356.066 308.456 349.131 303.77C345.228 301.133 338.046 295.249 335.645 292.72C326.414 282.999 319.178 269.985 316.137 257.634C314.678 251.706 314.422 251.467 313.745 255.4Z" fill="#9183FF"/>
<path fill-rule="evenodd" clip-rule="evenodd" d="M439.833 255.4C439.513 257.258 438.917 259.696 438.51 260.82C438.102 261.943 437.537 263.646 437.256 264.603C436.373 267.602 431.871 276.625 429.315 280.519C417.942 297.846 399.125 311.07 381.11 314.398L377.772 315.015L380.483 315.862C381.973 316.329 383.988 316.861 384.96 317.045C387.941 317.611 398.564 321.971 401.667 323.903C402.209 324.239 403.758 325.187 405.111 326.008C421.935 336.218 435.819 355.817 439.828 375.013C440.313 377.34 440.726 379.109 440.746 378.945C440.905 377.566 443.826 366.79 444.156 366.364C444.389 366.062 444.738 365.15 444.931 364.337C445.124 363.524 446.444 360.502 447.865 357.621C455.339 342.465 467.709 329.965 482.597 322.524C487.681 319.983 495.909 316.857 497.683 316.793C498.181 316.774 499.806 316.357 501.294 315.864L504 314.969L501.294 314.6C494.821 313.716 482.154 308.456 475.219 303.77C471.316 301.133 464.134 295.249 461.733 292.72C452.502 282.999 445.266 269.985 442.225 257.634C440.766 251.706 440.51 251.467 439.833 255.4Z" fill="#9183FF"/>
</g>
</svg>
