<svg width="107" height="733" viewBox="0 0 107 733" fill="none" xmlns="http://www.w3.org/2000/svg">
<g opacity="0.05">
<path d="M107 637C107 624.393 104.517 611.91 99.6924 600.262C94.868 588.615 87.7967 578.032 78.8822 569.118C69.9678 560.203 59.3849 553.132 47.7376 548.308C36.0903 543.483 23.6069 541 11 541C-1.6069 541 -14.0904 543.483 -25.7376 548.308C-37.3849 553.132 -47.9678 560.203 -56.8823 569.118C-65.7967 578.032 -72.868 588.615 -77.6924 600.262C-82.5169 611.91 -85 624.393 -85 637L11 637H107Z" fill="#8472FF"/>
<path d="M107 348.438C107 335.831 104.517 323.348 99.6924 311.701C94.868 300.053 87.7967 289.471 78.8822 280.556C69.9678 271.642 59.3849 264.57 47.7376 259.746C36.0903 254.921 23.6069 252.438 11 252.438C-1.6069 252.438 -14.0904 254.921 -25.7376 259.746C-37.3849 264.57 -47.9678 271.642 -56.8823 280.556C-65.7967 289.471 -72.868 300.053 -77.6924 311.701C-82.5169 323.348 -85 335.831 -85 348.438L11 348.438H107Z" fill="#5A46E3"/>
<path d="M107 445C107 457.607 104.517 470.09 99.6924 481.738C94.868 493.385 87.7967 503.968 78.8822 512.882C69.9678 521.797 59.3849 528.868 47.7376 533.692C36.0903 538.517 23.6069 541 11 541C-1.6069 541 -14.0904 538.517 -25.7376 533.692C-37.3849 528.868 -47.9678 521.797 -56.8823 512.882C-65.7967 503.968 -72.868 493.385 -77.6924 481.738C-82.5169 470.09 -85 457.607 -85 445L11 445H107Z" fill="#342B77"/>
<path d="M107 156.438C107 169.045 104.517 181.529 99.6924 193.176C94.868 204.823 87.7967 215.406 78.8822 224.321C69.9678 233.235 59.3849 240.306 47.7376 245.131C36.0903 249.955 23.6069 252.438 11 252.438C-1.6069 252.438 -14.0904 249.955 -25.7376 245.131C-37.3849 240.306 -47.9678 233.235 -56.8823 224.321C-65.7967 215.406 -72.868 204.823 -77.6924 193.176C-82.5169 181.529 -85 169.045 -85 156.438L11 156.438H107Z" fill="#342B77"/>
<path d="M107 348.438C107 361.045 104.517 373.529 99.6924 385.176C94.868 396.823 87.7967 407.406 78.8822 416.321C69.9678 425.235 59.3849 432.306 47.7376 437.131C36.0903 441.955 23.6069 444.438 11 444.438C-1.6069 444.438 -14.0904 441.955 -25.7376 437.131C-37.3849 432.306 -47.9678 425.235 -56.8823 416.321C-65.7967 407.406 -72.868 396.823 -77.6924 385.176C-82.5169 373.529 -85 361.045 -85 348.438L11 348.438H107Z" fill="#8472FF"/>
<path d="M107 61C107 73.6069 104.517 86.0904 99.6924 97.7376C94.868 109.385 87.7967 119.968 78.8822 128.882C69.9678 137.797 59.3849 144.868 47.7376 149.692C36.0903 154.517 23.6069 157 11 157C-1.6069 157 -14.0904 154.517 -25.7376 149.692C-37.3849 144.868 -47.9678 137.797 -56.8823 128.882C-65.7967 119.968 -72.868 109.385 -77.6924 97.7376C-82.5169 86.0903 -85 73.6069 -85 61L11 61H107Z" fill="#8472FF"/>
</g>
</svg>
