<svg width="443" height="499" viewBox="0 0 443 499" fill="none" xmlns="http://www.w3.org/2000/svg">
<g opacity="0.1">
<path fill-rule="evenodd" clip-rule="evenodd" d="M62.0608 127.222C61.741 129.059 61.1457 131.471 60.7379 132.583C60.33 133.694 59.7657 135.378 59.4838 136.325C58.6012 139.291 54.0995 148.217 51.5437 152.069C40.1705 169.209 21.3536 182.29 3.33811 185.582L0 186.192L2.71083 187.031C4.20154 187.492 6.21622 188.019 7.18789 188.201C10.1688 188.76 20.7927 193.073 23.8957 194.984C24.4368 195.317 25.9866 196.255 27.3396 197.067C44.1634 207.166 58.0477 226.554 62.0559 245.542C62.5415 247.845 62.9548 249.595 62.9739 249.432C63.1334 248.068 66.0543 237.409 66.3844 236.987C66.6176 236.688 66.9664 235.786 67.1593 234.982C67.3521 234.178 68.6721 231.188 70.093 228.339C77.5672 213.346 89.9371 200.981 104.825 193.621C109.91 191.107 118.137 188.015 119.911 187.951C120.409 187.933 122.034 187.52 123.522 187.033L126.228 186.147L123.522 185.782C117.049 184.907 104.383 179.704 97.4473 175.069C93.5439 172.461 86.3619 166.64 83.961 164.139C74.7299 154.523 67.4943 141.649 64.4533 129.431C62.9941 123.567 62.7383 123.331 62.0608 127.222Z" fill="#9183FF"/>
<path fill-rule="evenodd" clip-rule="evenodd" d="M188.149 127.221C187.829 129.059 187.234 131.471 186.826 132.583C186.418 133.694 185.854 135.378 185.572 136.325C184.689 139.291 180.187 148.217 177.632 152.069C166.258 169.209 147.442 182.29 129.426 185.582L126.088 186.192L128.799 187.031C130.289 187.492 132.304 188.019 133.276 188.201C136.257 188.76 146.881 193.073 149.984 194.984C150.525 195.317 152.075 196.255 153.428 197.067C170.251 207.166 184.136 226.554 188.144 245.542C188.629 247.845 189.043 249.595 189.062 249.432C189.221 248.068 192.142 237.409 192.472 236.987C192.706 236.688 193.054 235.786 193.247 234.982C193.44 234.178 194.76 231.188 196.181 228.338C203.655 213.346 216.025 200.981 230.913 193.621C235.998 191.107 244.225 188.015 245.999 187.951C246.497 187.933 248.122 187.52 249.61 187.033L252.316 186.147L249.61 185.782C243.137 184.907 230.471 179.704 223.535 175.069C219.632 172.461 212.45 166.64 210.049 164.139C200.818 154.523 193.582 141.649 190.541 129.431C189.082 123.567 188.826 123.331 188.149 127.221Z" fill="#9183FF"/>
<path fill-rule="evenodd" clip-rule="evenodd" d="M62.0608 2.61109C61.741 4.44865 61.1457 6.86086 60.7379 7.97226C60.33 9.08366 59.7657 10.7677 59.4838 11.7148C58.6012 14.681 54.0995 23.6066 51.5437 27.4584C40.1705 44.5982 21.3536 57.6796 3.33811 60.972L0 61.5821L2.71083 62.4204C4.20154 62.8819 6.21622 63.4083 7.18789 63.5903C10.1688 64.1497 20.7927 68.463 23.8957 70.3739C24.4368 70.7069 25.9866 71.6442 27.3396 72.4564C44.1634 82.5559 58.0477 101.944 62.0559 120.932C62.5415 123.234 62.9548 124.984 62.9739 124.822C63.1334 123.458 66.0543 112.798 66.3844 112.377C66.6176 112.078 66.9664 111.176 67.1593 110.372C67.3521 109.567 68.6721 106.578 70.093 103.728C77.5672 88.7353 89.9371 76.3707 104.825 69.0106C109.91 66.4965 118.137 63.4044 119.911 63.3409C120.409 63.3227 122.034 62.9094 123.522 62.4224L126.228 61.5368L123.522 61.1712C117.049 60.297 104.383 55.0937 97.4473 50.4587C93.5439 47.8502 86.3619 42.0295 83.961 39.5283C74.7299 29.9124 67.4943 17.0386 64.4533 4.8206C62.9941 -1.04339 62.7383 -1.27954 62.0608 2.61109Z" fill="#9183FF"/>
<path fill-rule="evenodd" clip-rule="evenodd" d="M188.149 2.61112C187.829 4.44869 187.234 6.8609 186.826 7.9723C186.418 9.08369 185.854 10.7678 185.572 11.7148C184.689 14.681 180.187 23.6066 177.632 27.4584C166.258 44.5982 147.442 57.6797 129.426 60.972L126.088 61.5821L128.799 62.4204C130.289 62.8819 132.304 63.4083 133.276 63.5904C136.257 64.1498 146.881 68.463 149.984 70.3739C150.525 70.707 152.075 71.6442 153.428 72.4565C170.251 82.556 184.136 101.944 188.144 120.932C188.629 123.234 189.043 124.984 189.062 124.822C189.221 123.458 192.142 112.798 192.472 112.377C192.706 112.078 193.054 111.176 193.247 110.372C193.44 109.567 194.76 106.578 196.181 103.728C203.655 88.7353 216.025 76.3707 230.913 69.0106C235.998 66.4965 244.225 63.4044 245.999 63.3409C246.497 63.3227 248.122 62.9095 249.61 62.4224L252.316 61.5368L249.61 61.1713C243.137 60.297 230.471 55.0938 223.535 50.4588C219.632 47.8503 212.45 42.0296 210.049 39.5283C200.818 29.9124 193.582 17.0386 190.541 4.82063C189.082 -1.04335 188.826 -1.27951 188.149 2.61112Z" fill="#9183FF"/>
<path fill-rule="evenodd" clip-rule="evenodd" d="M313.745 127.222C313.425 129.059 312.83 131.471 312.422 132.583C312.014 133.694 311.449 135.378 311.168 136.325C310.285 139.291 305.783 148.217 303.227 152.069C291.854 169.209 273.037 182.29 255.022 185.582L251.684 186.193L254.395 187.031C255.885 187.492 257.9 188.019 258.872 188.201C261.853 188.76 272.476 193.073 275.579 194.984C276.121 195.317 277.67 196.255 279.023 197.067C295.847 207.166 309.731 226.554 313.74 245.542C314.225 247.845 314.639 249.595 314.658 249.432C314.817 248.068 317.738 237.409 318.068 236.987C318.301 236.689 318.65 235.786 318.843 234.982C319.036 234.178 320.356 231.188 321.777 228.339C329.251 213.346 341.621 200.981 356.509 193.621C361.593 191.107 369.821 188.015 371.595 187.951C372.093 187.933 373.718 187.52 375.206 187.033L377.912 186.147L375.206 185.782C368.733 184.907 356.067 179.704 349.131 175.069C345.228 172.461 338.046 166.64 335.645 164.139C326.414 154.523 319.178 141.649 316.137 129.431C314.678 123.567 314.422 123.331 313.745 127.222Z" fill="#9183FF"/>
<path fill-rule="evenodd" clip-rule="evenodd" d="M439.833 127.222C439.513 129.059 438.918 131.471 438.51 132.583C438.102 133.694 437.538 135.378 437.256 136.325C436.373 139.291 431.871 148.217 429.315 152.069C417.942 169.209 399.125 182.29 381.11 185.582L377.772 186.192L380.483 187.031C381.973 187.492 383.988 188.019 384.96 188.201C387.941 188.76 398.565 193.073 401.667 194.984C402.209 195.317 403.758 196.255 405.111 197.067C421.935 207.166 435.819 226.554 439.828 245.542C440.313 247.845 440.727 249.595 440.746 249.432C440.905 248.068 443.826 237.409 444.156 236.987C444.389 236.688 444.738 235.786 444.931 234.982C445.124 234.178 446.444 231.188 447.865 228.338C455.339 213.346 467.709 200.981 482.597 193.621C487.682 191.107 495.909 188.015 497.683 187.951C498.181 187.933 499.806 187.52 501.294 187.033L504 186.147L501.294 185.782C494.821 184.907 482.155 179.704 475.219 175.069C471.316 172.461 464.134 166.64 461.733 164.139C452.502 154.523 445.266 141.649 442.225 129.431C440.766 123.567 440.51 123.331 439.833 127.222Z" fill="#9183FF"/>
<path fill-rule="evenodd" clip-rule="evenodd" d="M313.745 2.61112C313.425 4.44869 312.829 6.8609 312.422 7.9723C312.014 9.08369 311.449 10.7678 311.167 11.7148C310.285 14.681 305.783 23.6066 303.227 27.4584C291.854 44.5982 273.037 57.6797 255.022 60.972L251.684 61.5821L254.395 62.4204C255.885 62.8819 257.9 63.4083 258.872 63.5904C261.853 64.1498 272.476 68.463 275.579 70.3739C276.121 70.707 277.67 71.6442 279.023 72.4565C295.847 82.556 309.731 101.944 313.74 120.932C314.225 123.234 314.638 124.984 314.658 124.822C314.817 123.458 317.738 112.798 318.068 112.377C318.301 112.078 318.65 111.176 318.843 110.372C319.036 109.567 320.356 106.578 321.777 103.728C329.251 88.7353 341.621 76.3707 356.509 69.0106C361.593 66.4965 369.821 63.4044 371.595 63.3409C372.093 63.3227 373.718 62.9095 375.206 62.4224L377.912 61.5368L375.206 61.1713C368.733 60.297 356.066 55.0938 349.131 50.4588C345.228 47.8503 338.046 42.0296 335.645 39.5283C326.414 29.9124 319.178 17.0386 316.137 4.82063C314.678 -1.04335 314.422 -1.27951 313.745 2.61112Z" fill="#9183FF"/>
<path fill-rule="evenodd" clip-rule="evenodd" d="M439.833 2.61116C439.513 4.44873 438.917 6.86094 438.51 7.97233C438.102 9.08373 437.537 10.7678 437.256 11.7149C436.373 14.6811 431.871 23.6067 429.315 27.4584C417.942 44.5983 399.125 57.6797 381.11 60.9721L377.772 61.5821L380.483 62.4205C381.973 62.882 383.988 63.4084 384.96 63.5904C387.941 64.1498 398.564 68.4631 401.667 70.3739C402.209 70.707 403.758 71.6442 405.111 72.4565C421.935 82.556 435.819 101.944 439.828 120.932C440.313 123.234 440.726 124.984 440.746 124.822C440.905 123.458 443.826 112.798 444.156 112.377C444.389 112.078 444.738 111.176 444.931 110.372C445.124 109.568 446.444 106.578 447.865 103.728C455.339 88.7353 467.709 76.3707 482.597 69.0106C487.681 66.4966 495.909 63.4045 497.683 63.341C498.181 63.3228 499.806 62.9095 501.294 62.4224L504 61.5369L501.294 61.1713C494.821 60.2971 482.154 55.0938 475.219 50.4588C471.316 47.8503 464.134 42.0296 461.733 39.5283C452.502 29.9125 445.266 17.0387 442.225 4.82067C440.766 -1.04332 440.51 -1.27947 439.833 2.61116Z" fill="#9183FF"/>
<path fill-rule="evenodd" clip-rule="evenodd" d="M62.0608 376.443C61.741 378.28 61.1457 380.692 60.7379 381.804C60.33 382.915 59.7657 384.599 59.4838 385.546C58.6012 388.513 54.0995 397.438 51.5437 401.29C40.1705 418.43 21.3536 431.511 3.33811 434.804L0 435.414L2.71083 436.252C4.20154 436.713 6.21622 437.24 7.18789 437.422C10.1688 437.981 20.7927 442.295 23.8957 444.205C24.4368 444.539 25.9866 445.476 27.3396 446.288C44.1634 456.388 58.0477 475.775 62.0559 494.763C62.5415 497.066 62.9548 498.816 62.9739 498.654C63.1334 497.289 66.0543 486.63 66.3844 486.208C66.6176 485.91 66.9664 485.007 67.1593 484.203C67.3521 483.399 68.6721 480.409 70.093 477.56C77.5672 462.567 89.9371 450.202 104.825 442.842C109.91 440.328 118.137 437.236 119.911 437.172C120.409 437.154 122.034 436.741 123.522 436.254L126.228 435.368L123.522 435.003C117.049 434.129 104.383 428.925 97.4473 424.29C93.5439 421.682 86.3619 415.861 83.961 413.36C74.7299 403.744 67.4943 390.87 64.4533 378.652C62.9941 372.788 62.7383 372.552 62.0608 376.443Z" fill="#9183FF"/>
<path fill-rule="evenodd" clip-rule="evenodd" d="M188.149 376.443C187.829 378.28 187.234 380.692 186.826 381.804C186.418 382.915 185.854 384.599 185.572 385.546C184.689 388.513 180.187 397.438 177.632 401.29C166.258 418.43 147.442 431.511 129.426 434.804L126.088 435.414L128.799 436.252C130.289 436.713 132.304 437.24 133.276 437.422C136.257 437.981 146.881 442.295 149.984 444.205C150.525 444.539 152.075 445.476 153.428 446.288C170.251 456.388 184.136 475.775 188.144 494.763C188.629 497.066 189.043 498.816 189.062 498.654C189.221 497.289 192.142 486.63 192.472 486.208C192.706 485.91 193.054 485.007 193.247 484.203C193.44 483.399 194.76 480.409 196.181 477.56C203.655 462.567 216.025 450.202 230.913 442.842C235.998 440.328 244.225 437.236 245.999 437.172C246.497 437.154 248.122 436.741 249.61 436.254L252.316 435.368L249.61 435.003C243.137 434.129 230.471 428.925 223.535 424.29C219.632 421.682 212.45 415.861 210.049 413.36C200.818 403.744 193.582 390.87 190.541 378.652C189.082 372.788 188.826 372.552 188.149 376.443Z" fill="#9183FF"/>
<path fill-rule="evenodd" clip-rule="evenodd" d="M62.0608 251.832C61.741 253.67 61.1457 256.082 60.7379 257.193C60.33 258.305 59.7657 259.989 59.4838 260.936C58.6012 263.902 54.0995 272.828 51.5437 276.679C40.1705 293.819 21.3536 306.901 3.33811 310.193L0 310.803L2.71083 311.641C4.20154 312.103 6.21622 312.629 7.18789 312.811C10.1688 313.371 20.7927 317.684 23.8957 319.595C24.4368 319.928 25.9866 320.865 27.3396 321.677C44.1634 331.777 58.0477 351.165 62.0559 370.153C62.5415 372.455 62.9548 374.205 62.9739 374.043C63.1334 372.679 66.0543 362.019 66.3844 361.598C66.6176 361.299 66.9664 360.397 67.1593 359.593C67.3521 358.788 68.6721 355.799 70.093 352.949C77.5672 337.956 89.9371 325.592 104.825 318.232C109.91 315.717 118.137 312.625 119.911 312.562C120.409 312.544 122.034 312.13 123.522 311.643L126.228 310.758L123.522 310.392C117.049 309.518 104.383 304.315 97.4473 299.68C93.5439 297.071 86.3619 291.251 83.961 288.749C74.7299 279.133 67.4943 266.26 64.4533 254.042C62.9941 248.178 62.7383 247.941 62.0608 251.832Z" fill="#9183FF"/>
<path fill-rule="evenodd" clip-rule="evenodd" d="M188.149 251.832C187.829 253.67 187.234 256.082 186.826 257.193C186.418 258.305 185.854 259.989 185.572 260.936C184.689 263.902 180.187 272.828 177.632 276.679C166.258 293.819 147.442 306.901 129.426 310.193L126.088 310.803L128.799 311.641C130.289 312.103 132.304 312.629 133.276 312.811C136.257 313.371 146.881 317.684 149.984 319.595C150.525 319.928 152.075 320.865 153.428 321.677C170.251 331.777 184.136 351.165 188.144 370.153C188.629 372.455 189.043 374.205 189.062 374.043C189.221 372.679 192.142 362.019 192.472 361.598C192.706 361.299 193.054 360.397 193.247 359.593C193.44 358.788 194.76 355.799 196.181 352.949C203.655 337.956 216.025 325.592 230.913 318.232C235.998 315.718 244.225 312.625 245.999 312.562C246.497 312.544 248.122 312.13 249.61 311.643L252.316 310.758L249.61 310.392C243.137 309.518 230.471 304.315 223.535 299.68C219.632 297.071 212.45 291.251 210.049 288.749C200.818 279.133 193.582 266.26 190.541 254.042C189.082 248.178 188.826 247.941 188.149 251.832Z" fill="#9183FF"/>
<path fill-rule="evenodd" clip-rule="evenodd" d="M313.745 376.443C313.425 378.28 312.83 380.692 312.422 381.804C312.014 382.915 311.449 384.599 311.168 385.546C310.285 388.513 305.783 397.438 303.227 401.29C291.854 418.43 273.037 431.511 255.022 434.804L251.684 435.414L254.395 436.252C255.885 436.713 257.9 437.24 258.872 437.422C261.853 437.981 272.476 442.295 275.579 444.205C276.121 444.539 277.67 445.476 279.023 446.288C295.847 456.388 309.731 475.775 313.74 494.763C314.225 497.066 314.639 498.816 314.658 498.654C314.817 497.289 317.738 486.63 318.068 486.208C318.301 485.91 318.65 485.007 318.843 484.203C319.036 483.399 320.356 480.409 321.777 477.56C329.251 462.567 341.621 450.202 356.509 442.842C361.593 440.328 369.821 437.236 371.595 437.173C372.093 437.154 373.718 436.741 375.206 436.254L377.912 435.368L375.206 435.003C368.733 434.129 356.067 428.925 349.131 424.29C345.228 421.682 338.046 415.861 335.645 413.36C326.414 403.744 319.178 390.87 316.137 378.652C314.678 372.788 314.422 372.552 313.745 376.443Z" fill="#9183FF"/>
<path fill-rule="evenodd" clip-rule="evenodd" d="M439.833 376.443C439.513 378.28 438.918 380.692 438.51 381.804C438.102 382.915 437.538 384.599 437.256 385.546C436.373 388.513 431.871 397.438 429.315 401.29C417.942 418.43 399.125 431.511 381.11 434.804L377.772 435.414L380.483 436.252C381.973 436.713 383.988 437.24 384.96 437.422C387.941 437.981 398.565 442.295 401.667 444.205C402.209 444.539 403.758 445.476 405.111 446.288C421.935 456.388 435.819 475.775 439.828 494.763C440.313 497.066 440.727 498.816 440.746 498.654C440.905 497.289 443.826 486.63 444.156 486.208C444.389 485.91 444.738 485.007 444.931 484.203C445.124 483.399 446.444 480.409 447.865 477.56C455.339 462.567 467.709 450.202 482.597 442.842C487.682 440.328 495.909 437.236 497.683 437.173C498.181 437.154 499.806 436.741 501.294 436.254L504 435.368L501.294 435.003C494.821 434.129 482.155 428.925 475.219 424.29C471.316 421.682 464.134 415.861 461.733 413.36C452.502 403.744 445.266 390.87 442.225 378.652C440.766 372.788 440.51 372.552 439.833 376.443Z" fill="#9183FF"/>
<path fill-rule="evenodd" clip-rule="evenodd" d="M313.745 251.832C313.425 253.67 312.829 256.082 312.422 257.193C312.014 258.305 311.449 259.989 311.167 260.936C310.285 263.902 305.783 272.828 303.227 276.679C291.854 293.819 273.037 306.901 255.022 310.193L251.684 310.803L254.395 311.641C255.885 312.103 257.9 312.629 258.872 312.811C261.853 313.371 272.476 317.684 275.579 319.595C276.121 319.928 277.67 320.865 279.023 321.677C295.847 331.777 309.731 351.165 313.74 370.153C314.225 372.455 314.638 374.205 314.658 374.043C314.817 372.679 317.738 362.019 318.068 361.598C318.301 361.299 318.65 360.397 318.843 359.593C319.036 358.788 320.356 355.799 321.777 352.949C329.251 337.956 341.621 325.592 356.509 318.232C361.593 315.718 369.821 312.625 371.595 312.562C372.093 312.544 373.718 312.13 375.206 311.643L377.912 310.758L375.206 310.392C368.733 309.518 356.066 304.315 349.131 299.68C345.228 297.071 338.046 291.251 335.645 288.749C326.414 279.133 319.178 266.26 316.137 254.042C314.678 248.178 314.422 247.941 313.745 251.832Z" fill="#9183FF"/>
<path fill-rule="evenodd" clip-rule="evenodd" d="M439.833 251.832C439.513 253.67 438.917 256.082 438.51 257.193C438.102 258.305 437.537 259.989 437.256 260.936C436.373 263.902 431.871 272.828 429.315 276.679C417.942 293.819 399.125 306.901 381.11 310.193L377.772 310.803L380.483 311.641C381.973 312.103 383.988 312.629 384.96 312.811C387.941 313.371 398.564 317.684 401.667 319.595C402.209 319.928 403.758 320.865 405.111 321.677C421.935 331.777 435.819 351.165 439.828 370.153C440.313 372.455 440.726 374.205 440.746 374.043C440.905 372.679 443.826 362.019 444.156 361.598C444.389 361.299 444.738 360.397 444.931 359.593C445.124 358.788 446.444 355.799 447.865 352.949C455.339 337.956 467.709 325.592 482.597 318.232C487.681 315.718 495.909 312.625 497.683 312.562C498.181 312.544 499.806 312.13 501.294 311.643L504 310.758L501.294 310.392C494.821 309.518 482.154 304.315 475.219 299.68C471.316 297.071 464.134 291.251 461.733 288.749C452.502 279.133 445.266 266.26 442.225 254.042C440.766 248.178 440.51 247.941 439.833 251.832Z" fill="#9183FF"/>
</g>
</svg>
