<svg width="112" height="728" viewBox="0 0 112 728" fill="none" xmlns="http://www.w3.org/2000/svg">
<g opacity="0.1">
<path d="M112 637C112 625.05 109.646 613.216 105.073 602.176C100.5 591.135 93.7968 581.103 85.3467 572.653C76.8966 564.203 66.8648 557.5 55.8242 552.927C44.7836 548.354 32.9503 546 21 546C9.04971 546 -2.78357 548.354 -13.8242 552.927C-24.8648 557.5 -34.8966 564.203 -43.3467 572.653C-51.7969 581.103 -58.4999 591.135 -63.073 602.176C-67.6462 613.216 -70 625.05 -70 637L21 637H112Z" fill="#575757"/>
<path d="M112 363.468C112 351.517 109.646 339.684 105.073 328.644C100.5 317.603 93.7968 307.571 85.3467 299.121C76.8966 290.671 66.8648 283.968 55.8242 279.395C44.7836 274.822 32.9503 272.468 21 272.468C9.04971 272.468 -2.78357 274.822 -13.8242 279.395C-24.8648 283.968 -34.8966 290.671 -43.3467 299.121C-51.7969 307.571 -58.4999 317.603 -63.073 328.644C-67.6462 339.684 -70 351.517 -70 363.468L21 363.468H112Z" fill="#575757"/>
<path d="M112 455C112 466.95 109.646 478.784 105.073 489.824C100.5 500.865 93.7968 510.897 85.3467 519.347C76.8966 527.797 66.8648 534.5 55.8242 539.073C44.7836 543.646 32.9503 546 21 546C9.04971 546 -2.78357 543.646 -13.8242 539.073C-24.8648 534.5 -34.8966 527.797 -43.3467 519.347C-51.7969 510.897 -58.4999 500.865 -63.073 489.824C-67.6462 478.784 -70 466.95 -70 455L21 455H112Z" fill="#898989"/>
<path d="M112 181.468C112 193.418 109.646 205.251 105.073 216.292C100.5 227.333 93.7968 237.364 85.3467 245.815C76.8966 254.265 66.8648 260.968 55.8242 265.541C44.7836 270.114 32.9503 272.468 21 272.468C9.04971 272.468 -2.78357 270.114 -13.8242 265.541C-24.8648 260.968 -34.8966 254.265 -43.3467 245.815C-51.7969 237.364 -58.4999 227.333 -63.073 216.292C-67.6462 205.251 -70 193.418 -70 181.468L21 181.468H112Z" fill="#898989"/>
<path d="M112 363.468C112 375.418 109.646 387.251 105.073 398.292C100.5 409.333 93.7968 419.364 85.3467 427.815C76.8966 436.265 66.8648 442.968 55.8242 447.541C44.7836 452.114 32.9503 454.468 21 454.468C9.04971 454.468 -2.78357 452.114 -13.8242 447.541C-24.8648 442.968 -34.8966 436.265 -43.3467 427.815C-51.7969 419.364 -58.4999 409.333 -63.073 398.292C-67.6462 387.251 -70 375.418 -70 363.468L21 363.468H112Z" fill="#C4C4C4"/>
<path d="M112 91C112 102.95 109.646 114.784 105.073 125.824C100.5 136.865 93.7968 146.897 85.3467 155.347C76.8966 163.797 66.8648 170.5 55.8242 175.073C44.7836 179.646 32.9503 182 21 182C9.04971 182 -2.78357 179.646 -13.8242 175.073C-24.8648 170.5 -34.8966 163.797 -43.3467 155.347C-51.7969 146.897 -58.4999 136.865 -63.073 125.824C-67.6462 114.784 -70 102.95 -70 91L21 91H112Z" fill="#C4C4C4"/>
</g>
</svg>
