<svg width="175" height="499" viewBox="0 0 175 499" fill="none" xmlns="http://www.w3.org/2000/svg">
<g opacity="0.02">
<path fill-rule="evenodd" clip-rule="evenodd" d="M-15.2553 127.222C-15.5751 129.059 -16.1704 131.471 -16.5783 132.583C-16.9861 133.694 -17.5504 135.378 -17.8323 136.325C-18.715 139.291 -23.2166 148.217 -25.7725 152.069C-37.1457 169.209 -55.9626 182.29 -73.9781 185.582L-77.3162 186.193L-74.6053 187.031C-73.1146 187.492 -71.0999 188.019 -70.1283 188.201C-67.1473 188.76 -56.5234 193.073 -53.4205 194.984C-52.8793 195.317 -51.3296 196.255 -49.9766 197.067C-33.1527 207.166 -19.2685 226.554 -15.2603 245.542C-14.7747 247.845 -14.3614 249.595 -14.3422 249.432C-14.1828 248.068 -11.2619 237.409 -10.9318 236.987C-10.6986 236.689 -10.3498 235.786 -10.1569 234.982C-9.96404 234.178 -8.64405 231.188 -7.22321 228.339C0.251015 213.346 12.621 200.981 27.5089 193.621C32.5936 191.107 40.821 188.015 42.5951 187.951C43.093 187.933 44.718 187.52 46.2063 187.033L48.9122 186.147L46.2063 185.782C39.7327 184.907 27.0666 179.704 20.1311 175.069C16.2277 172.461 9.04572 166.64 6.64484 164.139C-2.58625 154.523 -9.82186 141.649 -12.8628 129.431C-14.322 123.567 -14.5779 123.331 -15.2553 127.222Z" fill="#9183FF"/>
<path fill-rule="evenodd" clip-rule="evenodd" d="M110.833 127.222C110.513 129.059 109.918 131.471 109.51 132.583C109.102 133.694 108.538 135.378 108.256 136.325C107.373 139.291 102.871 148.217 100.316 152.069C88.9423 169.209 70.1254 182.29 52.11 185.582L48.7719 186.192L51.4827 187.031C52.9734 187.492 54.9881 188.019 55.9597 188.201C58.9407 188.76 69.5646 193.073 72.6675 194.984C73.2087 195.317 74.7584 196.255 76.1114 197.067C92.9353 207.166 106.82 226.554 110.828 245.542C111.313 247.845 111.727 249.595 111.746 249.432C111.905 248.068 114.826 237.409 115.156 236.987C115.389 236.688 115.738 235.786 115.931 234.982C116.124 234.178 117.444 231.188 118.865 228.338C126.339 213.346 138.709 200.981 153.597 193.621C158.682 191.107 166.909 188.015 168.683 187.951C169.181 187.933 170.806 187.52 172.294 187.033L175 186.147L172.294 185.782C165.821 184.907 153.155 179.704 146.219 175.069C142.316 172.461 135.134 166.64 132.733 164.139C123.502 154.523 116.266 141.649 113.225 129.431C111.766 123.567 111.51 123.331 110.833 127.222Z" fill="#9183FF"/>
<path fill-rule="evenodd" clip-rule="evenodd" d="M-15.2555 2.61112C-15.5752 4.44869 -16.1705 6.8609 -16.5784 7.9723C-16.9863 9.08369 -17.5506 10.7678 -17.8325 11.7148C-18.7151 14.681 -23.2167 23.6066 -25.7726 27.4584C-37.1458 44.5982 -55.9627 57.6797 -73.9782 60.972L-77.3163 61.5821L-74.6055 62.4204C-73.1147 62.8819 -71.1001 63.4083 -70.1284 63.5904C-67.1475 64.1498 -56.5236 68.463 -53.4206 70.3739C-52.8794 70.707 -51.3297 71.6442 -49.9767 72.4565C-33.1529 82.556 -19.2686 101.944 -15.2604 120.932C-14.7748 123.234 -14.3615 124.984 -14.3423 124.822C-14.1829 123.458 -11.262 112.798 -10.9319 112.377C-10.6987 112.078 -10.3499 111.176 -10.157 110.372C-9.96416 109.567 -8.64417 106.578 -7.22333 103.728C0.250893 88.7353 12.6208 76.3707 27.5088 69.0106C32.5934 66.4965 40.8209 63.4044 42.595 63.3409C43.0929 63.3227 44.7179 62.9095 46.2061 62.4224L48.912 61.5368L46.2061 61.1713C39.7326 60.297 27.0665 55.0938 20.131 50.4588C16.2276 47.8503 9.0456 42.0296 6.64472 39.5283C-2.58637 29.9124 -9.82198 17.0386 -12.8629 4.82063C-14.3222 -1.04335 -14.578 -1.27951 -15.2555 2.61112Z" fill="#9183FF"/>
<path fill-rule="evenodd" clip-rule="evenodd" d="M110.833 2.61116C110.513 4.44873 109.917 6.86094 109.51 7.97233C109.102 9.08373 108.537 10.7678 108.256 11.7149C107.373 14.6811 102.871 23.6067 100.315 27.4584C88.9422 44.5983 70.1253 57.6797 52.1098 60.9721L48.7717 61.5821L51.4826 62.4205C52.9733 62.882 54.9879 63.4084 55.9596 63.5904C58.9405 64.1498 69.5644 68.4631 72.6674 70.3739C73.2086 70.707 74.7583 71.6442 76.1113 72.4565C92.9352 82.556 106.819 101.944 110.828 120.932C111.313 123.234 111.726 124.984 111.746 124.822C111.905 123.458 114.826 112.798 115.156 112.377C115.389 112.078 115.738 111.176 115.931 110.372C116.124 109.568 117.444 106.578 118.865 103.728C126.339 88.7353 138.709 76.3707 153.597 69.0106C158.681 66.4966 166.909 63.4045 168.683 63.341C169.181 63.3228 170.806 62.9095 172.294 62.4224L175 61.5369L172.294 61.1713C165.821 60.2971 153.154 55.0938 146.219 50.4588C142.316 47.8503 135.134 42.0296 132.733 39.5283C123.502 29.9125 116.266 17.0387 113.225 4.82067C111.766 -1.04332 111.51 -1.27947 110.833 2.61116Z" fill="#9183FF"/>
<path fill-rule="evenodd" clip-rule="evenodd" d="M-15.2553 376.443C-15.5751 378.28 -16.1704 380.692 -16.5783 381.804C-16.9861 382.915 -17.5504 384.599 -17.8323 385.546C-18.715 388.513 -23.2166 397.438 -25.7725 401.29C-37.1457 418.43 -55.9626 431.511 -73.9781 434.804L-77.3162 435.414L-74.6053 436.252C-73.1146 436.713 -71.0999 437.24 -70.1283 437.422C-67.1473 437.981 -56.5234 442.295 -53.4205 444.205C-52.8793 444.539 -51.3296 445.476 -49.9766 446.288C-33.1527 456.388 -19.2685 475.775 -15.2603 494.763C-14.7747 497.066 -14.3614 498.816 -14.3422 498.654C-14.1828 497.289 -11.2619 486.63 -10.9318 486.208C-10.6986 485.91 -10.3498 485.007 -10.1569 484.203C-9.96404 483.399 -8.64405 480.409 -7.22321 477.56C0.251015 462.567 12.621 450.202 27.5089 442.842C32.5936 440.328 40.821 437.236 42.5951 437.173C43.093 437.154 44.718 436.741 46.2063 436.254L48.9122 435.368L46.2063 435.003C39.7327 434.129 27.0666 428.925 20.1311 424.29C16.2277 421.682 9.04572 415.861 6.64484 413.36C-2.58625 403.744 -9.82186 390.87 -12.8628 378.652C-14.322 372.788 -14.5779 372.552 -15.2553 376.443Z" fill="#9183FF"/>
<path fill-rule="evenodd" clip-rule="evenodd" d="M110.833 376.443C110.513 378.28 109.918 380.692 109.51 381.804C109.102 382.915 108.538 384.599 108.256 385.546C107.373 388.513 102.871 397.438 100.316 401.29C88.9423 418.43 70.1254 431.511 52.11 434.804L48.7719 435.414L51.4827 436.252C52.9734 436.713 54.9881 437.24 55.9597 437.422C58.9407 437.981 69.5646 442.295 72.6675 444.205C73.2087 444.539 74.7584 445.476 76.1114 446.288C92.9353 456.388 106.82 475.775 110.828 494.763C111.313 497.066 111.727 498.816 111.746 498.654C111.905 497.289 114.826 486.63 115.156 486.208C115.389 485.91 115.738 485.007 115.931 484.203C116.124 483.399 117.444 480.409 118.865 477.56C126.339 462.567 138.709 450.202 153.597 442.842C158.682 440.328 166.909 437.236 168.683 437.173C169.181 437.154 170.806 436.741 172.294 436.254L175 435.368L172.294 435.003C165.821 434.129 153.155 428.925 146.219 424.29C142.316 421.682 135.134 415.861 132.733 413.36C123.502 403.744 116.266 390.87 113.225 378.652C111.766 372.788 111.51 372.552 110.833 376.443Z" fill="#9183FF"/>
<path fill-rule="evenodd" clip-rule="evenodd" d="M-15.2555 251.832C-15.5752 253.67 -16.1705 256.082 -16.5784 257.193C-16.9863 258.305 -17.5506 259.989 -17.8325 260.936C-18.7151 263.902 -23.2167 272.828 -25.7726 276.679C-37.1458 293.819 -55.9627 306.901 -73.9782 310.193L-77.3163 310.803L-74.6055 311.641C-73.1147 312.103 -71.1001 312.629 -70.1284 312.811C-67.1475 313.371 -56.5236 317.684 -53.4206 319.595C-52.8794 319.928 -51.3297 320.865 -49.9767 321.677C-33.1529 331.777 -19.2686 351.165 -15.2604 370.153C-14.7748 372.455 -14.3615 374.205 -14.3423 374.043C-14.1829 372.679 -11.262 362.019 -10.9319 361.598C-10.6987 361.299 -10.3499 360.397 -10.157 359.593C-9.96416 358.788 -8.64417 355.799 -7.22333 352.949C0.250893 337.956 12.6208 325.592 27.5088 318.232C32.5934 315.718 40.8209 312.625 42.595 312.562C43.0929 312.544 44.7179 312.13 46.2061 311.643L48.912 310.758L46.2061 310.392C39.7326 309.518 27.0665 304.315 20.131 299.68C16.2276 297.071 9.0456 291.251 6.64472 288.749C-2.58637 279.133 -9.82198 266.26 -12.8629 254.042C-14.3222 248.178 -14.578 247.941 -15.2555 251.832Z" fill="#9183FF"/>
<path fill-rule="evenodd" clip-rule="evenodd" d="M110.833 251.832C110.513 253.67 109.917 256.082 109.51 257.193C109.102 258.305 108.537 259.989 108.256 260.936C107.373 263.902 102.871 272.828 100.315 276.679C88.9422 293.819 70.1253 306.901 52.1098 310.193L48.7717 310.803L51.4826 311.641C52.9733 312.103 54.9879 312.629 55.9596 312.811C58.9405 313.371 69.5644 317.684 72.6674 319.595C73.2086 319.928 74.7583 320.865 76.1113 321.677C92.9352 331.777 106.819 351.165 110.828 370.153C111.313 372.455 111.726 374.205 111.746 374.043C111.905 372.679 114.826 362.019 115.156 361.598C115.389 361.299 115.738 360.397 115.931 359.593C116.124 358.788 117.444 355.799 118.865 352.949C126.339 337.956 138.709 325.592 153.597 318.232C158.681 315.718 166.909 312.625 168.683 312.562C169.181 312.544 170.806 312.13 172.294 311.643L175 310.758L172.294 310.392C165.821 309.518 153.154 304.315 146.219 299.68C142.316 297.071 135.134 291.251 132.733 288.749C123.502 279.133 116.266 266.26 113.225 254.042C111.766 248.178 111.51 247.941 110.833 251.832Z" fill="#9183FF"/>
</g>
</svg>
