<svg width="376" height="599" viewBox="0 0 376 599" fill="none" xmlns="http://www.w3.org/2000/svg">
<g opacity="0.3">
<path d="M126.635 50.0371C126.635 43.4661 125.34 36.9595 122.826 30.8887C120.311 24.8179 116.626 19.3019 111.979 14.6555C107.333 10.0091 101.817 6.32343 95.7459 3.80883C89.6751 1.29424 83.1685 -1.52588e-05 76.5975 -1.52588e-05C70.0266 -1.52588e-05 63.5199 1.29424 57.4492 3.80884C51.3784 6.32343 45.8623 10.0091 41.216 14.6555C36.5696 19.3019 32.8839 24.8179 30.3693 30.8887C27.8547 36.9595 26.5604 43.4661 26.5604 50.0371L76.5975 50.0371H126.635Z" fill="#C4C4C4"/>
<path d="M327.252 50.0371C327.252 43.4661 325.958 36.9595 323.443 30.8887C320.929 24.8179 317.243 19.3019 312.596 14.6555C307.95 10.0091 302.434 6.32343 296.363 3.80883C290.292 1.29424 283.786 -1.52588e-05 277.215 -1.52588e-05C270.644 -1.52588e-05 264.137 1.29424 258.066 3.80884C251.996 6.32343 246.48 10.0091 241.833 14.6555C237.187 19.3019 233.501 24.8179 230.987 30.8887C228.472 36.9595 227.178 43.4661 227.178 50.0371L277.215 50.0371H327.252Z" fill="#C4C4C4"/>
<path d="M175.383 50.0371C175.383 56.6081 174.088 63.1147 171.574 69.1855C169.059 75.2563 165.373 80.7723 160.727 85.4187C156.081 90.0651 150.565 93.7508 144.494 96.2654C138.423 98.78 131.916 100.074 125.345 100.074C118.774 100.074 112.268 98.78 106.197 96.2654C100.126 93.7508 94.6103 90.0651 89.9639 85.4187C85.3175 80.7723 81.6318 75.2563 79.1172 69.1855C76.6026 63.1147 75.3083 56.6081 75.3083 50.0371L125.345 50.0371H175.383Z" fill="#C3C3C3"/>
<path d="M376 50.0371C376 56.6081 374.706 63.1147 372.191 69.1855C369.677 75.2563 365.991 80.7723 361.344 85.4187C356.698 90.0651 351.182 93.7508 345.111 96.2654C339.04 98.78 332.534 100.074 325.963 100.074C319.392 100.074 312.885 98.78 306.815 96.2654C300.744 93.7508 295.228 90.0651 290.581 85.4187C285.935 80.7723 282.249 75.2563 279.735 69.1855C277.22 63.1147 275.926 56.6081 275.926 50.0371L325.963 50.0371H376Z" fill="#C3C3C3"/>
<path d="M75.0742 50.0371C75.0742 56.6081 73.78 63.1147 71.2654 69.1855C68.7508 75.2563 65.0651 80.7723 60.4187 85.4187C55.7723 90.0651 50.2563 93.7508 44.1855 96.2654C38.1147 98.78 31.6081 100.074 25.0371 100.074C18.4661 100.074 11.9595 98.78 5.88874 96.2654C-0.182043 93.7508 -5.69809 90.0651 -10.3445 85.4187C-14.9908 80.7723 -18.6766 75.2563 -21.1912 69.1855C-23.7058 63.1147 -25 56.6081 -25 50.0371L25.0371 50.0371H75.0742Z" fill="#575757" fill-opacity="0.1"/>
<path d="M275.691 50.0371C275.691 56.6081 274.397 63.1147 271.882 69.1855C269.368 75.2563 265.682 80.7723 261.036 85.4187C256.389 90.0651 250.873 93.7508 244.803 96.2654C238.732 98.78 232.225 100.074 225.654 100.074C219.083 100.074 212.577 98.78 206.506 96.2654C200.435 93.7508 194.919 90.0651 190.273 85.4187C185.626 80.7723 181.941 75.2563 179.426 69.1855C176.911 63.1147 175.617 56.6081 175.617 50.0371L225.654 50.0371H275.691Z" fill="#575757" fill-opacity="0.1"/>
<path d="M226.943 50.0371C226.943 43.4661 225.649 36.9595 223.134 30.8887C220.62 24.8179 216.934 19.3019 212.287 14.6555C207.641 10.0091 202.125 6.32343 196.054 3.80883C189.983 1.29424 183.477 -1.52588e-05 176.906 -1.52588e-05C170.335 -1.52588e-05 163.828 1.29424 157.758 3.80884C151.687 6.32343 146.171 10.0091 141.524 14.6555C136.878 19.3019 133.192 24.8179 130.678 30.8887C128.163 36.9595 126.869 43.4661 126.869 50.0371L176.906 50.0371H226.943Z" fill="#575757" fill-opacity="0.1"/>
<path d="M126.635 146.756C126.635 140.185 125.34 133.678 122.826 127.607C120.311 121.536 116.626 116.02 111.979 111.374C107.333 106.728 101.817 103.042 95.7459 100.527C89.6751 98.0127 83.1685 96.7185 76.5975 96.7185C70.0266 96.7185 63.5199 98.0127 57.4492 100.527C51.3784 103.042 45.8623 106.728 41.216 111.374C36.5696 116.02 32.8839 121.536 30.3693 127.607C27.8547 133.678 26.5604 140.185 26.5604 146.756L76.5975 146.756H126.635Z" fill="#C4C4C4"/>
<path d="M327.252 146.756C327.252 140.185 325.958 133.678 323.443 127.607C320.929 121.536 317.243 116.02 312.596 111.374C307.95 106.728 302.434 103.042 296.363 100.527C290.292 98.0127 283.786 96.7185 277.215 96.7185C270.644 96.7185 264.137 98.0127 258.066 100.527C251.996 103.042 246.48 106.728 241.833 111.374C237.187 116.02 233.501 121.536 230.987 127.607C228.472 133.678 227.178 140.185 227.178 146.756L277.215 146.756H327.252Z" fill="#C4C4C4"/>
<path d="M175.383 146.756C175.383 153.327 174.088 159.833 171.574 165.904C169.059 171.975 165.373 177.491 160.727 182.137C156.081 186.784 150.565 190.469 144.494 192.984C138.423 195.498 131.916 196.793 125.345 196.793C118.774 196.793 112.268 195.498 106.197 192.984C100.126 190.469 94.6103 186.784 89.9639 182.137C85.3175 177.491 81.6318 171.975 79.1172 165.904C76.6026 159.833 75.3083 153.327 75.3083 146.756L125.345 146.756H175.383Z" fill="#C3C3C3"/>
<path d="M376 146.756C376 153.327 374.706 159.833 372.191 165.904C369.677 171.975 365.991 177.491 361.344 182.137C356.698 186.784 351.182 190.469 345.111 192.984C339.04 195.498 332.534 196.793 325.963 196.793C319.392 196.793 312.885 195.498 306.815 192.984C300.744 190.469 295.228 186.784 290.581 182.137C285.935 177.491 282.249 171.975 279.735 165.904C277.22 159.833 275.926 153.327 275.926 146.756L325.963 146.756H376Z" fill="#C3C3C3"/>
<path d="M75.0742 146.756C75.0742 153.327 73.78 159.833 71.2654 165.904C68.7508 171.975 65.0651 177.491 60.4187 182.137C55.7723 186.784 50.2563 190.469 44.1855 192.984C38.1147 195.498 31.6081 196.793 25.0371 196.793C18.4661 196.793 11.9595 195.498 5.88874 192.984C-0.182043 190.469 -5.69809 186.784 -10.3445 182.137C-14.9908 177.491 -18.6766 171.975 -21.1912 165.904C-23.7058 159.833 -25 153.327 -25 146.756L25.0371 146.756H75.0742Z" fill="#575757" fill-opacity="0.1"/>
<path d="M275.691 146.756C275.691 153.327 274.397 159.833 271.882 165.904C269.368 171.975 265.682 177.491 261.036 182.137C256.389 186.784 250.873 190.469 244.803 192.984C238.732 195.498 232.225 196.793 225.654 196.793C219.083 196.793 212.577 195.498 206.506 192.984C200.435 190.469 194.919 186.784 190.273 182.137C185.626 177.491 181.941 171.975 179.426 165.904C176.911 159.833 175.617 153.327 175.617 146.756L225.654 146.756H275.691Z" fill="#575757" fill-opacity="0.1"/>
<path d="M226.943 146.756C226.943 140.185 225.649 133.678 223.134 127.607C220.62 121.536 216.934 116.02 212.287 111.374C207.641 106.728 202.125 103.042 196.054 100.527C189.983 98.0127 183.477 96.7185 176.906 96.7185C170.335 96.7185 163.828 98.0127 157.758 100.527C151.687 103.042 146.171 106.728 141.524 111.374C136.878 116.02 133.192 121.536 130.678 127.607C128.163 133.678 126.869 140.185 126.869 146.756L176.906 146.756H226.943Z" fill="#575757" fill-opacity="0.1"/>
<path d="M126.635 247.305C126.635 240.734 125.34 234.227 122.826 228.156C120.311 222.086 116.626 216.57 111.979 211.923C107.333 207.277 101.817 203.591 95.7459 201.077C89.6751 198.562 83.1685 197.268 76.5975 197.268C70.0266 197.268 63.5199 198.562 57.4492 201.077C51.3784 203.591 45.8623 207.277 41.216 211.923C36.5696 216.57 32.8839 222.086 30.3693 228.156C27.8547 234.227 26.5604 240.734 26.5604 247.305L76.5975 247.305H126.635Z" fill="#C4C4C4"/>
<path d="M327.252 247.305C327.252 240.734 325.958 234.227 323.443 228.156C320.929 222.086 317.243 216.57 312.596 211.923C307.95 207.277 302.434 203.591 296.363 201.077C290.292 198.562 283.786 197.268 277.215 197.268C270.644 197.268 264.137 198.562 258.066 201.077C251.996 203.591 246.48 207.277 241.833 211.923C237.187 216.57 233.501 222.086 230.987 228.156C228.472 234.227 227.178 240.734 227.178 247.305L277.215 247.305H327.252Z" fill="#C4C4C4"/>
<path d="M175.383 247.305C175.383 253.876 174.088 260.382 171.574 266.453C169.059 272.524 165.373 278.04 160.727 282.686C156.081 287.333 150.565 291.018 144.494 293.533C138.423 296.048 131.916 297.342 125.345 297.342C118.774 297.342 112.268 296.048 106.197 293.533C100.126 291.018 94.6103 287.333 89.9639 282.686C85.3175 278.04 81.6318 272.524 79.1172 266.453C76.6026 260.382 75.3083 253.876 75.3083 247.305L125.345 247.305H175.383Z" fill="#C3C3C3"/>
<path d="M376 247.305C376 253.876 374.706 260.382 372.191 266.453C369.677 272.524 365.991 278.04 361.344 282.686C356.698 287.333 351.182 291.018 345.111 293.533C339.04 296.048 332.534 297.342 325.963 297.342C319.392 297.342 312.885 296.048 306.815 293.533C300.744 291.018 295.228 287.333 290.581 282.686C285.935 278.04 282.249 272.524 279.735 266.453C277.22 260.382 275.926 253.876 275.926 247.305L325.963 247.305H376Z" fill="#C3C3C3"/>
<path d="M75.0742 247.305C75.0742 253.876 73.78 260.382 71.2654 266.453C68.7508 272.524 65.0651 278.04 60.4187 282.686C55.7723 287.333 50.2563 291.018 44.1855 293.533C38.1147 296.048 31.6081 297.342 25.0371 297.342C18.4661 297.342 11.9595 296.048 5.88874 293.533C-0.182043 291.018 -5.69809 287.333 -10.3445 282.686C-14.9908 278.04 -18.6766 272.524 -21.1912 266.453C-23.7058 260.382 -25 253.876 -25 247.305L25.0371 247.305H75.0742Z" fill="#575757" fill-opacity="0.1"/>
<path d="M275.691 247.305C275.691 253.876 274.397 260.382 271.882 266.453C269.368 272.524 265.682 278.04 261.036 282.686C256.389 287.333 250.873 291.018 244.803 293.533C238.732 296.048 232.225 297.342 225.654 297.342C219.083 297.342 212.577 296.048 206.506 293.533C200.435 291.018 194.919 287.333 190.273 282.686C185.626 278.04 181.941 272.524 179.426 266.453C176.911 260.382 175.617 253.876 175.617 247.305L225.654 247.305H275.691Z" fill="#575757" fill-opacity="0.1"/>
<path d="M226.943 247.305C226.943 240.734 225.649 234.227 223.134 228.156C220.62 222.086 216.934 216.57 212.287 211.923C207.641 207.277 202.125 203.591 196.054 201.077C189.983 198.562 183.477 197.268 176.906 197.268C170.335 197.268 163.828 198.562 157.758 201.077C151.687 203.591 146.171 207.277 141.524 211.923C136.878 216.57 133.192 222.086 130.678 228.156C128.163 234.227 126.869 240.734 126.869 247.305L176.906 247.305H226.943Z" fill="#575757" fill-opacity="0.1"/>
<path d="M126.635 347.854C126.635 341.283 125.34 334.776 122.826 328.705C120.311 322.635 116.626 317.118 111.979 312.472C107.333 307.826 101.817 304.14 95.7459 301.625C89.6751 299.111 83.1685 297.817 76.5975 297.817C70.0266 297.817 63.5199 299.111 57.4492 301.625C51.3784 304.14 45.8623 307.826 41.216 312.472C36.5696 317.118 32.8839 322.635 30.3693 328.705C27.8547 334.776 26.5604 341.283 26.5604 347.854L76.5975 347.854H126.635Z" fill="#C4C4C4"/>
<path d="M327.252 347.854C327.252 341.283 325.958 334.776 323.443 328.705C320.929 322.635 317.243 317.118 312.596 312.472C307.95 307.826 302.434 304.14 296.363 301.625C290.292 299.111 283.786 297.817 277.215 297.817C270.644 297.817 264.137 299.111 258.066 301.625C251.996 304.14 246.48 307.826 241.833 312.472C237.187 317.118 233.501 322.635 230.987 328.705C228.472 334.776 227.178 341.283 227.178 347.854L277.215 347.854H327.252Z" fill="#C4C4C4"/>
<path d="M175.383 347.854C175.383 354.425 174.088 360.931 171.574 367.002C169.059 373.073 165.373 378.589 160.727 383.235C156.081 387.882 150.565 391.567 144.494 394.082C138.423 396.597 131.916 397.891 125.345 397.891C118.774 397.891 112.268 396.597 106.197 394.082C100.126 391.567 94.6103 387.882 89.9639 383.235C85.3175 378.589 81.6318 373.073 79.1172 367.002C76.6026 360.931 75.3083 354.425 75.3083 347.854L125.345 347.854H175.383Z" fill="#C3C3C3"/>
<path d="M376 347.854C376 354.425 374.706 360.931 372.191 367.002C369.677 373.073 365.991 378.589 361.344 383.235C356.698 387.882 351.182 391.567 345.111 394.082C339.04 396.597 332.534 397.891 325.963 397.891C319.392 397.891 312.885 396.597 306.815 394.082C300.744 391.567 295.228 387.882 290.581 383.235C285.935 378.589 282.249 373.073 279.735 367.002C277.22 360.931 275.926 354.425 275.926 347.854L325.963 347.854H376Z" fill="#C3C3C3"/>
<path d="M75.0742 347.854C75.0742 354.425 73.78 360.931 71.2654 367.002C68.7508 373.073 65.0651 378.589 60.4187 383.235C55.7723 387.882 50.2563 391.567 44.1855 394.082C38.1147 396.597 31.6081 397.891 25.0371 397.891C18.4661 397.891 11.9595 396.597 5.88874 394.082C-0.182043 391.567 -5.69809 387.882 -10.3445 383.235C-14.9908 378.589 -18.6766 373.073 -21.1912 367.002C-23.7058 360.931 -25 354.425 -25 347.854L25.0371 347.854H75.0742Z" fill="#575757" fill-opacity="0.1"/>
<path d="M275.691 347.854C275.691 354.425 274.397 360.931 271.882 367.002C269.368 373.073 265.682 378.589 261.036 383.235C256.389 387.882 250.873 391.567 244.803 394.082C238.732 396.597 232.225 397.891 225.654 397.891C219.083 397.891 212.577 396.597 206.506 394.082C200.435 391.567 194.919 387.882 190.273 383.235C185.626 378.589 181.941 373.073 179.426 367.002C176.911 360.931 175.617 354.425 175.617 347.854L225.654 347.854H275.691Z" fill="#575757" fill-opacity="0.1"/>
<path d="M226.943 347.854C226.943 341.283 225.649 334.776 223.134 328.705C220.62 322.635 216.934 317.118 212.287 312.472C207.641 307.826 202.125 304.14 196.054 301.625C189.983 299.111 183.477 297.817 176.906 297.817C170.335 297.817 163.828 299.111 157.758 301.625C151.687 304.14 146.171 307.826 141.524 312.472C136.878 317.118 133.192 322.635 130.678 328.705C128.163 334.776 126.869 341.283 126.869 347.854L176.906 347.854H226.943Z" fill="#575757" fill-opacity="0.1"/>
<path d="M126.635 448.403C126.635 441.832 125.34 435.325 122.826 429.254C120.311 423.184 116.626 417.667 111.979 413.021C107.333 408.375 101.817 404.689 95.7459 402.174C89.6751 399.66 83.1685 398.366 76.5975 398.366C70.0266 398.366 63.5199 399.66 57.4492 402.174C51.3784 404.689 45.8623 408.375 41.216 413.021C36.5696 417.667 32.8839 423.184 30.3693 429.254C27.8547 435.325 26.5604 441.832 26.5604 448.403L76.5975 448.403H126.635Z" fill="#C4C4C4"/>
<path d="M327.252 448.403C327.252 441.832 325.958 435.325 323.443 429.254C320.929 423.184 317.243 417.667 312.596 413.021C307.95 408.375 302.434 404.689 296.363 402.174C290.292 399.66 283.786 398.366 277.215 398.366C270.644 398.366 264.137 399.66 258.066 402.174C251.996 404.689 246.48 408.375 241.833 413.021C237.187 417.667 233.501 423.184 230.987 429.254C228.472 435.325 227.178 441.832 227.178 448.403L277.215 448.403H327.252Z" fill="#C4C4C4"/>
<path d="M175.383 448.403C175.383 454.974 174.088 461.48 171.574 467.551C169.059 473.622 165.373 479.138 160.727 483.784C156.081 488.431 150.565 492.116 144.494 494.631C138.423 497.146 131.916 498.44 125.345 498.44C118.774 498.44 112.268 497.146 106.197 494.631C100.126 492.116 94.6103 488.431 89.9639 483.784C85.3175 479.138 81.6318 473.622 79.1172 467.551C76.6026 461.48 75.3083 454.974 75.3083 448.403L125.345 448.403H175.383Z" fill="#C3C3C3"/>
<path d="M376 448.403C376 454.974 374.706 461.48 372.191 467.551C369.677 473.622 365.991 479.138 361.344 483.784C356.698 488.431 351.182 492.116 345.111 494.631C339.04 497.146 332.534 498.44 325.963 498.44C319.392 498.44 312.885 497.146 306.815 494.631C300.744 492.116 295.228 488.431 290.581 483.784C285.935 479.138 282.249 473.622 279.735 467.551C277.22 461.48 275.926 454.974 275.926 448.403L325.963 448.403H376Z" fill="#C3C3C3"/>
<path d="M75.0742 448.403C75.0742 454.974 73.78 461.48 71.2654 467.551C68.7508 473.622 65.0651 479.138 60.4187 483.784C55.7723 488.431 50.2563 492.116 44.1855 494.631C38.1147 497.146 31.6081 498.44 25.0371 498.44C18.4661 498.44 11.9595 497.146 5.88874 494.631C-0.182043 492.116 -5.69809 488.431 -10.3445 483.784C-14.9908 479.138 -18.6766 473.622 -21.1912 467.551C-23.7058 461.48 -25 454.974 -25 448.403L25.0371 448.403H75.0742Z" fill="#575757" fill-opacity="0.1"/>
<path d="M275.691 448.403C275.691 454.974 274.397 461.48 271.882 467.551C269.368 473.622 265.682 479.138 261.036 483.784C256.389 488.431 250.873 492.116 244.803 494.631C238.732 497.146 232.225 498.44 225.654 498.44C219.083 498.44 212.577 497.146 206.506 494.631C200.435 492.116 194.919 488.431 190.273 483.784C185.626 479.138 181.941 473.622 179.426 467.551C176.911 461.48 175.617 454.974 175.617 448.403L225.654 448.403H275.691Z" fill="#575757" fill-opacity="0.1"/>
<path d="M226.943 448.403C226.943 441.832 225.649 435.325 223.134 429.254C220.62 423.184 216.934 417.667 212.287 413.021C207.641 408.375 202.125 404.689 196.054 402.174C189.983 399.66 183.477 398.366 176.906 398.366C170.335 398.366 163.828 399.66 157.758 402.174C151.687 404.689 146.171 408.375 141.524 413.021C136.878 417.667 133.192 423.184 130.678 429.254C128.163 435.325 126.869 441.832 126.869 448.403L176.906 448.403H226.943Z" fill="#575757" fill-opacity="0.1"/>
<path d="M126.635 548.952C126.635 542.381 125.34 535.874 122.826 529.803C120.311 523.733 116.626 518.216 111.979 513.57C107.333 508.924 101.817 505.238 95.7459 502.723C89.6751 500.209 83.1685 498.915 76.5975 498.915C70.0266 498.915 63.5199 500.209 57.4492 502.723C51.3784 505.238 45.8623 508.924 41.216 513.57C36.5696 518.216 32.8839 523.733 30.3693 529.803C27.8547 535.874 26.5604 542.381 26.5604 548.952L76.5975 548.952H126.635Z" fill="#C4C4C4"/>
<path d="M327.252 548.952C327.252 542.381 325.958 535.874 323.443 529.803C320.929 523.733 317.243 518.216 312.596 513.57C307.95 508.924 302.434 505.238 296.363 502.723C290.292 500.209 283.786 498.915 277.215 498.915C270.644 498.915 264.137 500.209 258.066 502.723C251.996 505.238 246.48 508.924 241.833 513.57C237.187 518.216 233.501 523.733 230.987 529.803C228.472 535.874 227.178 542.381 227.178 548.952L277.215 548.952H327.252Z" fill="#C4C4C4"/>
<path d="M175.383 548.952C175.383 555.523 174.088 562.029 171.574 568.1C169.059 574.171 165.373 579.687 160.727 584.333C156.081 588.98 150.565 592.665 144.494 595.18C138.423 597.695 131.916 598.989 125.345 598.989C118.774 598.989 112.268 597.695 106.197 595.18C100.126 592.665 94.6103 588.98 89.9639 584.333C85.3175 579.687 81.6318 574.171 79.1172 568.1C76.6026 562.029 75.3083 555.523 75.3083 548.952L125.345 548.952H175.383Z" fill="#C3C3C3"/>
<path d="M376 548.952C376 555.523 374.706 562.029 372.191 568.1C369.677 574.171 365.991 579.687 361.344 584.333C356.698 588.98 351.182 592.665 345.111 595.18C339.04 597.695 332.534 598.989 325.963 598.989C319.392 598.989 312.885 597.695 306.815 595.18C300.744 592.665 295.228 588.98 290.581 584.333C285.935 579.687 282.249 574.171 279.735 568.1C277.22 562.029 275.926 555.523 275.926 548.952L325.963 548.952H376Z" fill="#C3C3C3"/>
<path d="M75.0742 548.952C75.0742 555.523 73.78 562.029 71.2654 568.1C68.7508 574.171 65.0651 579.687 60.4187 584.333C55.7723 588.98 50.2563 592.665 44.1855 595.18C38.1147 597.695 31.6081 598.989 25.0371 598.989C18.4661 598.989 11.9595 597.695 5.88874 595.18C-0.182043 592.665 -5.69809 588.98 -10.3445 584.333C-14.9908 579.687 -18.6766 574.171 -21.1912 568.1C-23.7058 562.029 -25 555.523 -25 548.952L25.0371 548.952H75.0742Z" fill="#575757" fill-opacity="0.1"/>
<path d="M275.691 548.952C275.691 555.523 274.397 562.029 271.882 568.1C269.368 574.171 265.682 579.687 261.036 584.333C256.389 588.98 250.873 592.665 244.803 595.18C238.732 597.695 232.225 598.989 225.654 598.989C219.083 598.989 212.577 597.695 206.506 595.18C200.435 592.665 194.919 588.98 190.273 584.333C185.626 579.687 181.941 574.171 179.426 568.1C176.911 562.029 175.617 555.523 175.617 548.952L225.654 548.952H275.691Z" fill="#575757" fill-opacity="0.1"/>
<path d="M226.943 548.952C226.943 542.381 225.649 535.874 223.134 529.803C220.62 523.733 216.934 518.216 212.287 513.57C207.641 508.924 202.125 505.238 196.054 502.723C189.983 500.209 183.477 498.915 176.906 498.915C170.335 498.915 163.828 500.209 157.758 502.723C151.687 505.238 146.171 508.924 141.524 513.57C136.878 518.216 133.192 523.733 130.678 529.803C128.163 535.874 126.869 542.381 126.869 548.952L176.906 548.952H226.943Z" fill="#575757" fill-opacity="0.1"/>
</g>
</svg>
