<svg width="199" height="1041" viewBox="0 0 199 1041" fill="none" xmlns="http://www.w3.org/2000/svg">
<g opacity="0.1">
<path d="M278 902C278 883.746 274.405 865.671 267.419 848.807C260.434 831.943 250.195 816.619 237.288 803.712C224.38 790.805 209.057 780.566 192.193 773.581C175.329 766.595 157.254 763 139 763C120.746 763 102.671 766.595 85.807 773.581C68.9427 780.566 53.6195 790.805 40.7122 803.712C27.8048 816.62 17.5661 831.943 10.5807 848.807C3.59534 865.671 -1.59579e-06 883.746 0 902L139 902H278Z" fill="#575757"/>
<path d="M278 484.187C278 465.933 274.405 447.858 267.419 430.994C260.434 414.13 250.195 398.807 237.288 385.899C224.38 372.992 209.057 362.753 192.193 355.768C175.329 348.782 157.254 345.187 139 345.187C120.746 345.187 102.671 348.782 85.807 355.768C68.9427 362.753 53.6195 372.992 40.7122 385.899C27.8048 398.807 17.5661 414.13 10.5807 430.994C3.59534 447.858 -1.59579e-06 465.933 0 484.187L139 484.187H278Z" fill="#575757"/>
<path d="M278 624C278 642.254 274.405 660.329 267.419 677.193C260.434 694.057 250.195 709.381 237.288 722.288C224.38 735.195 209.057 745.434 192.193 752.419C175.329 759.405 157.254 763 139 763C120.746 763 102.671 759.405 85.807 752.419C68.9427 745.434 53.6195 735.195 40.7122 722.288C27.8048 709.38 17.5661 694.057 10.5807 677.193C3.59534 660.329 -1.59579e-06 642.254 0 624L139 624H278Z" fill="#898989"/>
<path d="M278 206.187C278 224.441 274.405 242.516 267.419 259.38C260.434 276.244 250.195 291.568 237.288 304.475C224.38 317.382 209.057 327.621 192.193 334.606C175.329 341.592 157.254 345.187 139 345.187C120.746 345.187 102.671 341.592 85.807 334.606C68.9427 327.621 53.6195 317.382 40.7122 304.475C27.8048 291.568 17.5661 276.244 10.5807 259.38C3.59534 242.516 -1.59579e-06 224.441 0 206.187L139 206.187H278Z" fill="#898989"/>
<path d="M278 484.187C278 502.441 274.405 520.516 267.419 537.38C260.434 554.244 250.195 569.568 237.288 582.475C224.38 595.382 209.057 605.621 192.193 612.606C175.329 619.592 157.254 623.187 139 623.187C120.746 623.187 102.671 619.592 85.807 612.606C68.9427 605.621 53.6195 595.382 40.7122 582.475C27.8048 569.568 17.5661 554.244 10.5807 537.38C3.59534 520.516 -1.59579e-06 502.441 0 484.187L139 484.187H278Z" fill="#C4C4C4"/>
<path d="M278 68C278 86.2537 274.405 104.329 267.419 121.193C260.434 138.057 250.195 153.381 237.288 166.288C224.38 179.195 209.057 189.434 192.193 196.419C175.329 203.405 157.254 207 139 207C120.746 207 102.671 203.405 85.807 196.419C68.9427 189.434 53.6195 179.195 40.7122 166.288C27.8048 153.38 17.5661 138.057 10.5807 121.193C3.59534 104.329 -1.59579e-06 86.2537 0 68L139 68H278Z" fill="#C4C4C4"/>
</g>
</svg>
